<svg xmlns="http://www.w3.org/2000/svg" viewBox="0 0 512.006 512.006">
    <g fill="#cff09e">
        <path d="M186.017 353.378c-29.488 26.745-73.86 35.613-98.189 50.076-41.847-39.011-68.732-93.856-71.086-154.998 14.619-5.455 28.802-12.172 36.797-19.762 21.305-20.261 37.92-27.01 52.476 0 14.541 27.01 21.29 50.918 46.757 55.064 25.453 4.161 72.209 34.288 33.245 69.62zM252.599 224.327c-3.345 28.316-1.429 56.585 23.581 77.326.36.299.686.617 1.019.932a149.489 149.489 0 0 1 12.341-14.011c24.128-24.128 55.246-38.188 85.948-46.233-15.185-17.953-31.131-85.504-84.718-58.26-11.215 5.703-15.277-75.512-12.861-78.601 23.087-30.03 42.361-43.114 77.664-55.224.946-.338 1.699-.868 2.492-1.4-34.175-21.08-74.384-33.266-117.498-33.266-47.374 0-91.28 14.745-127.49 39.871.193.87.454 1.767.831 2.598 15.275 32.937 34.965 88.836 68.539 101.699 16.29 6.256 75.004 23.478 70.152 64.569z"/>
    </g>
    <g fill="#507c5c">
        <path d="M291.578 309.563a136.39 136.39 0 0 1 3.794-4.453c.284-.32.574-.631.86-.946 1.407-1.549 2.84-3.08 4.328-4.57 1.125-1.125 2.28-2.23 3.455-3.32.358-.334.725-.655 1.086-.983.832-.756 1.672-1.507 2.53-2.246.424-.366.853-.726 1.28-1.086a145.28 145.28 0 0 1 2.539-2.087c.422-.34.845-.68 1.272-1.013a141.9 141.9 0 0 1 2.95-2.243c.315-.234.627-.474.943-.704a142.07 142.07 0 0 1 4.013-2.823c.279-.19.564-.369.845-.558 1.077-.72 2.165-1.431 3.27-2.129.492-.312.988-.616 1.484-.921.924-.57 1.859-1.133 2.804-1.688.538-.316 1.075-.634 1.618-.944a164.773 164.773 0 0 1 3.164-1.761 169.09 169.09 0 0 1 5.324-2.781c.757-.377 1.518-.745 2.28-1.111.704-.34 1.414-.675 2.127-1.007.86-.401 1.722-.8 2.589-1.186.502-.224 1.012-.441 1.516-.661a196.272 196.272 0 0 1 5.971-2.489c.24-.095.478-.193.72-.288 1.211-.475 2.427-.938 3.644-1.389l.366-.134c63.061-23.221 134.014-14.635 135.1-14.496 8.527 1.102 16.345-4.914 17.454-13.447 1.11-8.536-4.911-16.355-13.447-17.465-1.183-.154-7.846-.977-18.346-1.537-6.968-74.647-48.396-141.725-112.858-181.507l-.09-.056a27.382 27.382 0 0 0-.439-.262 147.695 147.695 0 0 0-2.721-1.647 27.577 27.577 0 0 0-.748-.451c-.963-.561-1.928-1.124-2.943-1.707a230.111 230.111 0 0 0-3.519-1.968c-1.03-.566-2.06-1.119-3.091-1.671a17.741 17.741 0 0 0-.622-.338l-.871-.449c-.853-.44-1.699-.876-2.555-1.305a203.95 203.95 0 0 0-10.971-5.21 264.064 264.064 0 0 0-3.709-1.615l-.033-.014-.118-.051c-7.614-3.218-15.331-6.027-22.898-8.334a286.6 286.6 0 0 0-3.892-1.156 186.11 186.11 0 0 0-6.557-1.791 284.397 284.397 0 0 0-5.42-1.326c-1.376-.326-2.77-.636-4.11-.918l-.282-.061a123.429 123.429 0 0 0-3.296-.675l-2.143-.424a173.96 173.96 0 0 0-4.21-.748 259.378 259.378 0 0 0-6.883-1.082l-.175-.025-.393-.053a270.667 270.667 0 0 0-3.259-.422c-1.459-.178-2.914-.34-4.375-.503l-.206-.022-2.489-.242a252.403 252.403 0 0 0-8.009-.62 98.139 98.139 0 0 0-2.487-.132c-.949-.047-1.901-.092-2.863-.125-.143-.008-.284-.008-.425-.014-.397-.014-.795-.026-1.192-.041-.497-.016-.997-.042-1.493-.05-.084-.002-.168-.002-.254-.002a69.134 69.134 0 0 0-2.463-.047c-.954-.014-1.915-.02-2.876-.023-.203 0-.405-.011-.608-.011-.14 0-.279.008-.421.008-1.398.002-2.776.014-4.083.044-.859.014-1.702.056-2.554.081-1.068.031-2.137.056-3.203.101-.134.006-.271.006-.405.012-1.156.036-2.313.103-3.476.171-1.262.075-2.52.162-3.77.249-.195.014-.39.026-.584.042-.055.005-.109.008-.162.014a184.018 184.018 0 0 0-4.157.363c-.341.026-.683.058-1.021.097-.979.092-1.959.199-2.938.31l-1.05.118c-.162.019-.315.036-.489.059-2.727.313-5.245.65-7.676 1.026-.252.037-.505.078-.757.117l.033-.006a238.753 238.753 0 0 0-6.907 1.173l-.703.134c-.718.134-1.435.277-2.152.418a249.6 249.6 0 0 0-3.753.767l-1.255.27c-.352.078-.701.165-1.054.243-1.06.237-2.117.483-3.172.734-.538.128-1.08.243-1.616.374-.07.017-.175.042-.221.055-1.608.397-3.214.81-4.811 1.242-.555.15-1.107.312-1.661.466-2.076.575-4.144 1.18-6.201 1.811-.742.228-1.484.455-2.223.689-2 .636-3.988 1.303-5.969 1.992-.851.295-1.704.586-2.551.891a238.907 238.907 0 0 0-5.813 2.19c-1.038.404-2.073.812-3.105 1.231a244.829 244.829 0 0 0-5.34 2.246 250.9 250.9 0 0 0-7.982 3.649 243.94 243.94 0 0 0-24.125 13.316c-.683.43-1.368.851-2.046 1.287a245.33 245.33 0 0 0-6.039 4.024c-.318.218-.644.421-.96.641-.109.076-.21.161-.318.238-19.168 13.336-36.446 29.448-51.076 47.879C18.892 133.482.97 184.949.97 239.602c0 3.022.059 6.105.181 9.425.009.262.026.522.047.779.042.994.106 1.984.161 2.977.045.843.081 1.688.136 2.528.072 1.114.164 2.224.251 3.337.067.854.125 1.711.199 2.564.098 1.096.215 2.187.327 3.279.089.865.168 1.732.267 2.595.122 1.066.262 2.127.397 3.189.112.885.215 1.772.338 2.654.143 1.035.305 2.065.463 3.097.137.902.265 1.806.411 2.706.165 1.018.352 2.031.531 3.045.161.907.312 1.816.482 2.718.187.991.393 1.978.592 2.967.185.921.363 1.845.56 2.763.206.963.432 1.92.65 2.88.212.935.416 1.872.639 2.804.226.946.472 1.884.711 2.827.237.938.464 1.878.714 2.813.246.929.513 1.85.77 2.774.262.941.516 1.884.79 2.823.265.91.55 1.814.828 2.72.288.943.567 1.887.865 2.826.285.895.589 1.785.885 2.676.312.941.617 1.887.941 2.824.304.877.625 1.747.938 2.62.338.943.669 1.891 1.019 2.829.321.86.661 1.713.993 2.568.365.943.722 1.889 1.097 2.826.341.851.701 1.693 1.054 2.539.388.934.767 1.87 1.166 2.798.362.84.742 1.672 1.114 2.509.411.926.814 1.855 1.236 2.774.376.818.771 1.627 1.156 2.442.44.929.871 1.861 1.323 2.784.396.81.812 1.61 1.217 2.416.461.915.913 1.834 1.387 2.743.422.81.862 1.612 1.294 2.419.478.895.949 1.794 1.44 2.682.446.809.91 1.607 1.367 2.411.496.874.983 1.753 1.492 2.623.472.809.963 1.607 1.446 2.411.513.853 1.015 1.711 1.538 2.558.494.801 1.008 1.591 1.513 2.388.531.839 1.054 1.682 1.596 2.514.508.779 1.035 1.549 1.554 2.324.56.837 1.11 1.679 1.68 2.509.524.762 1.066 1.513 1.599 2.271.584.829 1.16 1.663 1.753 2.486.549.759 1.116 1.506 1.674 2.258.6.809 1.191 1.624 1.802 2.425.563.74 1.146 1.468 1.718 2.202.627.803 1.244 1.612 1.881 2.408.569.711 1.155 1.409 1.733 2.113.661.806 1.312 1.618 1.982 2.416.574.681 1.164 1.351 1.746 2.026.695.809 1.382 1.622 2.09 2.424.542.614 1.102 1.216 1.651 1.825.767.849 1.526 1.705 2.305 2.545.455.489.924.969 1.382 1.456.893.946 1.78 1.895 2.688 2.829.22.226.446.444.667.669a246.814 246.814 0 0 0 7.824 7.637 239.287 239.287 0 0 0 140.848 63.257c.56 10.512 1.384 17.186 1.538 18.369a15.59 15.59 0 0 0 13.447 13.446c1.822.237 16.652 2.067 38.507 2.067 47.472 0 128.08-8.638 180.43-60.985 27.669-27.669 46.213-66.276 55.117-114.751 1.555-8.466-4.046-16.589-12.512-18.145-8.479-1.562-16.592 4.046-18.145 12.514-7.743 42.14-23.388 75.227-46.503 98.341C376.572 482.361 283 482.083 249.46 480.07c-1.925-31.283-2.342-114.73 41.112-169.237.327-.426.665-.851 1.006-1.27zm-14.981-30.054c-8.912-12.574-11.388-29.079-8.522-53.354 5.89-49.874-53.103-71.187-75.311-79.21-1.825-.659-3.423-1.234-4.743-1.742-22.548-8.637-40.019-48.479-52.774-77.568-.932-2.124-1.844-4.205-2.738-6.23a206.855 206.855 0 0 1 51.53-22.454c.195-.055.391-.111.588-.165a205.529 205.529 0 0 1 6.205-1.624c.661-.162 1.323-.305 1.986-.46 1.462-.343 2.925-.68 4.397-.99.849-.181 1.705-.348 2.559-.516 1.325-.263 2.653-.517 3.984-.756a209.35 209.35 0 0 1 14.611-2.082c.435-.045.868-.097 1.303-.137a207.322 207.322 0 0 1 12.692-.869c.499-.02.993-.044 1.498-.059 2.102-.067 4.21-.103 6.321-.108.405 0 .818.002 1.234.005 1.152.005 2.304.019 3.454.044.231.005.461.003.69.014.217.009.433.014.65.014h.002c1.347.036 2.69.089 4.034.151.324.016.653.026.976.042l.047.002c1.557.079 3.111.178 4.665.291.137.011.268.017.407.028a208.119 208.119 0 0 1 65.132 15.715c-22.225 11.228-38.269 25.535-55.841 48.393-2.936 3.756-5.709 7.302-2.84 43.655 1.838 23.269 4.883 39.402 9.054 47.952 5.29 10.844 13.425 12.465 17.81 12.465h.006c2.843 0 5.594-.667 8.175-1.979 6.134-3.117 11.67-4.699 16.458-4.699 15.163 0 25.565 17.373 36.642 38.361l.829 1.571c-26.327 9.192-52.091 23.197-73.243 44.349l-.053.055c-.631.622-1.255 1.255-1.874 1.895zm171.125-62.775c-18.955.542-41.676 2.583-65.227 7.797-1.298-2.341-2.654-4.903-3.995-7.444-11.555-21.896-29.016-54.984-64.209-54.984-5.517 0-11.211.873-17.029 2.603-2.928-15.12-4.861-42.269-4.476-52.958 18.684-23.556 34.536-34.816 63.774-45.32 51.341 34.415 84.496 89.306 91.162 150.306zM90.657 384.393a206.666 206.666 0 0 1-3.13-3.295c-.064-.069-.126-.14-.19-.21a210.616 210.616 0 0 1-3.05-3.37c-.337-.38-.667-.767-1.001-1.15-.725-.829-1.445-1.66-2.154-2.5-.387-.457-.765-.916-1.149-1.375a206.685 206.685 0 0 1-3.093-3.808 210.118 210.118 0 0 1-1.852-2.374c-.371-.482-.742-.963-1.108-1.448a189.34 189.34 0 0 1-1.873-2.526c-.326-.446-.656-.888-.977-1.336a209.143 209.143 0 0 1-2.173-3.084c-.19-.274-.387-.546-.575-.82a213.416 213.416 0 0 1-2.65-3.963c-.226-.346-.443-.697-.665-1.043a215.164 215.164 0 0 1-1.883-2.972c-.307-.496-.606-.994-.909-1.492a200.463 200.463 0 0 1-1.549-2.584c-.323-.547-.639-1.099-.957-1.649a218.428 218.428 0 0 1-2.354-4.194c-.461-.845-.913-1.694-1.362-2.545-.291-.553-.584-1.105-.871-1.661-.475-.923-.94-1.852-1.401-2.78-.242-.486-.488-.971-.726-1.459a203.553 203.553 0 0 1-1.911-4.034c-.076-.165-.151-.332-.228-.497a213.275 213.275 0 0 1-1.791-4.035c-.22-.511-.432-1.027-.648-1.541-.396-.94-.79-1.88-1.172-2.826-.242-.597-.475-1.195-.711-1.794a204.54 204.54 0 0 1-1.018-2.634 223.531 223.531 0 0 1-1.635-4.493c-.22-.627-.44-1.255-.655-1.884-.309-.907-.606-1.816-.902-2.727-.193-.595-.391-1.191-.58-1.789a241.805 241.805 0 0 1-.955-3.14c-.139-.468-.285-.934-.421-1.401a201.23 201.23 0 0 1-1.253-4.517c-.114-.432-.22-.868-.33-1.301a195.445 195.445 0 0 1-.832-3.312c-.145-.6-.279-1.203-.419-1.805-.22-.951-.436-1.901-.644-2.857a186.53 186.53 0 0 1-.407-1.945 217.638 217.638 0 0 1-.924-4.747c-.17-.934-.332-1.87-.489-2.807-.109-.645-.218-1.289-.321-1.936a216.917 216.917 0 0 1-.45-3.016c-.083-.578-.171-1.156-.249-1.736a211.871 211.871 0 0 1-.497-3.999c-.03-.259-.065-.516-.095-.775-.165-1.484-.31-2.972-.444-4.464 14.046-5.999 24.324-12.174 31.258-18.754 13.196-12.549 18.52-13.525 19.839-13.525 1.202 0 4.372 2.564 8.175 9.618 2.492 4.629 4.785 9.247 7.003 13.711 10.908 21.957 22.186 44.662 50.962 49.347 13.146 2.149 31.531 13.238 34.647 23.784 1.612 5.455-1.537 11.817-9.359 18.91-16.695 15.141-40.102 24.355-60.752 32.486-8.51 3.347-16.702 6.573-24.14 10.073zm127.041 62.361a208.086 208.086 0 0 1-101.1-39.607c3.119-1.262 6.334-2.533 9.613-3.823 23.138-9.108 49.362-19.432 70.277-38.401 21.726-19.702 21.951-38.517 18.313-50.831-7.705-26.081-39.439-42.435-59.523-45.717-12.442-2.026-17.887-11.963-28.063-32.449-2.33-4.69-4.74-9.54-7.478-14.625-9.3-17.258-21.285-26.009-35.618-26.009-15.925 0-29.824 11.175-41.309 22.099-1.605 1.523-4.646 3.91-10.106 6.928 4.154-57.389 31.514-109.085 73.827-144.549.056.129.112.254.168.385 15.799 36.026 35.459 80.861 70.158 94.154 1.47.564 3.264 1.214 5.315 1.954 26.975 9.746 57.596 23.807 54.948 46.238-2.985 25.267-3.078 56.557 19.577 81.96-30.109 45.785-37.855 102.397-38.999 142.293z"/>
        <path d="M235.056 510.067c-3.99 0-7.977-1.521-11.021-4.565-6.086-6.086-6.086-15.955 0-22.043L351.79 355.707c6.091-6.086 15.956-6.085 22.043 0 6.086 6.086 6.086 15.955 0 22.041L246.078 505.501a15.54 15.54 0 0 1-11.022 4.566z"/>
    </g>
</svg>
