<svg xmlns="http://www.w3.org/2000/svg" viewBox="0 0 512 512">
    <path d="M163.658 447.313c.106 27.579-22.166 50.023-49.745 50.128-27.579.106-50.023-22.166-50.128-49.745-.153-39.926 49.627-81.051 49.627-81.051s50.092 40.389 50.246 80.668z" fill="#cff09e"/>
    <path d="M113.716 512c-35.424 0-64.354-28.822-64.489-64.247-.175-45.503 49.275-87.671 54.913-92.328a14.556 14.556 0 0 1 18.409-.109c5.679 4.58 55.491 46.062 55.667 91.944.066 17.227-6.581 33.45-18.715 45.677-12.134 12.227-28.305 18.999-45.532 19.064l-.253-.001zm-.18-125.743c-14.552 14.412-35.277 39.702-35.194 61.384.074 19.434 15.943 35.245 35.374 35.245h.141c9.449-.036 18.32-3.75 24.977-10.458s10.302-15.607 10.267-25.058c-.083-21.972-20.921-46.937-35.565-61.113z" fill="#507c5c"/>
    <g fill="#cff09e">
        <path d="M40.269 269.514h146.913v53.425H40.269zM218.826 64.867h169.622V198.43H218.826z"/>
    </g>
    <path d="M471.732 161.34h-68.725v-51.007h68.725c8.039 0 14.557-6.517 14.557-14.557s-6.519-14.557-14.557-14.557h-68.725V64.867c0-8.04-6.519-14.557-14.557-14.557h-70.258V29.115h18.165c8.039 0 14.557-6.517 14.557-14.557S344.394 0 336.356 0h-65.442c-8.039 0-14.557 6.517-14.557 14.557s6.519 14.557 14.557 14.557h18.165V50.31h-70.257c-8.039 0-14.557 6.517-14.557 14.557v16.351h-72.252c-40.201 0-72.907 32.706-72.907 72.907v100.827H40.269c-8.039 0-14.557 6.517-14.557 14.557v53.427c0 8.04 6.519 14.557 14.557 14.557h146.905c8.039 0 14.557-6.517 14.557-14.557V269.51c0-8.04-6.519-14.557-14.557-14.557H88.219V154.126c0-24.148 19.645-43.793 43.793-43.793h72.252v51.007h-50.48c-8.039 0-14.557 6.517-14.557 14.557s6.519 14.557 14.557 14.557h50.48v7.977c0 8.04 6.519 14.557 14.557 14.557h169.628c8.039 0 14.557-6.517 14.557-14.557v-7.977h68.725c8.039 0 14.557-6.517 14.557-14.557.001-8.039-6.518-14.557-14.556-14.557zM172.616 308.378H54.826v-24.312h117.791v24.312h-.001zm201.276-124.503H233.379V79.425h140.513v104.45z" fill="#507c5c"/>
</svg>
