<svg xmlns="http://www.w3.org/2000/svg" viewBox="0 0 512 512">
    <path d="M81.752 139.362c14.378-14.38 33.499-22.299 53.834-22.299 16.108 0 31.452 4.969 44.282 14.18v-39.5c0-41.98 34.153-76.133 76.133-76.133v326.061l-50.868 48.925c-12.163 12.096-28.302 18.755-45.462 18.755-17.224 0-33.416-6.706-45.595-18.885-25.14-25.14-25.14-66.047 0-91.189l13.506-11.92-44.992-39.541-.838-.787c-29.684-29.684-29.684-77.983 0-107.667z" fill="#cff09e"/>
    <g fill="#507c5c">
        <path d="M441.288 128.325c-17.327-17.329-40.364-26.871-64.873-26.871-8.62 0-15.61 6.989-15.61 15.61s6.99 15.61 15.61 15.61c16.167 0 31.367 6.295 42.796 17.727 11.409 11.408 17.692 26.606 17.692 42.796s-6.283 31.387-17.724 42.827l-45.064 39.612a15.616 15.616 0 0 0 0 23.451l12.486 10.974.457.428c9.104 9.191 14.115 21.393 14.115 34.386 0 13.073-5.073 25.346-14.285 34.557-9.229 9.23-21.501 14.313-34.556 14.313-13.003 0-25.24-5.048-34.457-14.213-6.111-6.079-15.997-6.052-22.076.062-6.08 6.113-6.052 15.997.062 22.076 15.107 15.023 35.161 23.296 56.471 23.296 21.393 0 41.507-8.331 56.63-23.457 15.109-15.107 23.431-35.219 23.431-56.631s-8.32-41.526-23.427-56.633a21.174 21.174 0 0 0-.373-.361l-.542-.507 32.097-28.21c.262-.231.517-.47.763-.718l.375-.376c17.305-17.304 26.835-40.344 26.835-64.872s-9.528-47.573-26.833-64.876zM271.611 33.301c20.182 5.442 36.722 21.167 42.621 41.914 2.359 8.292 10.993 13.101 19.285 10.744 8.294-2.359 13.103-10.993 10.746-19.285C333.1 27.417 296.805 0 256.001 0c-50.586 0-91.741 41.156-91.743 91.743v14.253c-9.151-3-18.798-4.544-28.671-4.544-24.508 0-47.546 9.542-64.873 26.871-17.305 17.304-26.835 40.342-26.835 64.872s9.53 47.567 26.835 64.873c.116.116.233.228.353.34l.838.787c.125.117.251.233.381.347l31.677 27.842-.217.192c-.244.215-.481.437-.709.667a81.164 81.164 0 0 0-2.805 2.952c-.18.2-.347.407-.524.607a80.497 80.497 0 0 0-2.131 2.484c-.105.128-.2.259-.303.387a79.929 79.929 0 0 0-2.192 2.833c-.008.009-.014.02-.022.03-10.026 13.637-15.449 30.063-15.449 47.339 0 17.286 5.429 33.721 15.466 47.362l.002.002c.713.969 1.455 1.92 2.213 2.86.097.12.186.243.283.362a79.138 79.138 0 0 0 2.162 2.519c.167.189.323.384.493.571a82.971 82.971 0 0 0 2.807 2.953c15.124 15.126 35.238 23.457 56.631 23.457 21.264 0 41.279-8.237 56.375-23.201l46.58-44.802 4.198-4.037.002-.002a15.532 15.532 0 0 0 4.077-6.591c.014-.045.023-.092.036-.137.133-.442.251-.887.345-1.336.031-.153.048-.309.076-.464.061-.347.122-.693.159-1.043.022-.197.027-.396.041-.595.022-.314.045-.628.048-.943 0-.047.008-.094.008-.14V33.301h-.002zM125.113 379.428a49.34 49.34 0 0 1-1.703-1.79c-.133-.147-.254-.298-.386-.446a52.66 52.66 0 0 1-1.224-1.425c-.094-.114-.178-.233-.27-.347a48.175 48.175 0 0 1-1.239-1.6c-.037-.05-.072-.103-.109-.155a48.624 48.624 0 0 1-8.829-21.579 49.719 49.719 0 0 1-.299-11.931c.022-.228.053-.454.078-.682.058-.528.117-1.054.19-1.578.064-.445.142-.888.217-1.333.052-.301.097-.603.155-.902.116-.612.248-1.219.389-1.828.03-.131.056-.265.087-.396a48.825 48.825 0 0 1 .582-2.213 48.516 48.516 0 0 1 4.636-10.869l.005-.008c.375-.645.766-1.282 1.172-1.912.034-.055.067-.111.103-.164a47.72 47.72 0 0 1 1.152-1.683c.08-.111.153-.226.234-.336.362-.5.741-.99 1.124-1.478.122-.156.237-.315.361-.47.359-.446.737-.884 1.113-1.321.159-.184.309-.373.471-.554.426-.479.869-.946 1.317-1.411.12-.125.233-.254.354-.378l13.114-11.575a15.613 15.613 0 0 0-.023-23.429l-44.794-39.37-.465-.437c-11.303-11.391-17.527-26.52-17.527-42.631 0-16.189 6.283-31.387 17.692-42.796 11.43-11.431 26.629-17.727 42.796-17.727 12.763 0 24.928 3.89 35.175 11.25a15.61 15.61 0 1 0 24.716-12.68V91.743c0-.968.028-1.931.073-2.888.014-.308.039-.612.059-.916.041-.652.087-1.302.148-1.948.033-.353.073-.702.112-1.054a59.162 59.162 0 0 1 .387-2.852c.1-.618.212-1.233.331-1.845.059-.311.116-.621.18-.93.165-.788.348-1.572.543-2.349.03-.12.055-.244.086-.364.231-.894.485-1.781.757-2.658.083-.268.175-.532.261-.798.198-.612.401-1.221.618-1.825.116-.318.236-.635.356-.952a66.547 66.547 0 0 1 1.049-2.595 62.12 62.12 0 0 1 .743-1.639c.134-.286.265-.574.404-.859.315-.646.645-1.283.983-1.915.091-.169.173-.34.265-.509.432-.795.885-1.577 1.352-2.348.126-.209.261-.412.39-.618.35-.562.704-1.121 1.072-1.67.181-.27.368-.537.553-.804a60.584 60.584 0 0 1 1.63-2.249c.356-.467.72-.927 1.088-1.383.203-.251.403-.503.609-.751.431-.517.874-1.024 1.322-1.525.151-.17.298-.343.451-.512a60.217 60.217 0 0 1 1.862-1.953c.142-.144.292-.279.436-.421a62.726 62.726 0 0 1 1.516-1.445c.233-.214.471-.421.707-.632.442-.393.887-.78 1.339-1.161a57.697 57.697 0 0 1 2.162-1.73c.259-.198.517-.396.779-.59.52-.384 1.049-.757 1.581-1.125.212-.147.42-.298.634-.442a60.929 60.929 0 0 1 2.281-1.464c.122-.075.248-.142.37-.215a59.545 59.545 0 0 1 1.982-1.141c.268-.147.54-.287.81-.429a60.388 60.388 0 0 1 1.622-.832 61.624 61.624 0 0 1 2.529-1.17c.306-.133.61-.267.918-.395.59-.245 1.186-.478 1.784-.706.261-.098.518-.203.78-.298a61.472 61.472 0 0 1 2.618-.888l.119-.034a61.42 61.42 0 0 1 2.259-.643v301.754l-21.056 20.252-25.024 24.067a16.18 16.18 0 0 1-.186.183c-9.216 9.166-21.454 14.214-34.456 14.214-13.05-.001-25.323-5.085-34.553-14.315z"/>
        <path d="M256.001 512c-8.62 0-15.61-6.989-15.61-15.61V341.67c0-8.621 6.99-15.61 15.61-15.61s15.61 6.989 15.61 15.61v154.72c0 8.621-6.989 15.61-15.61 15.61z"/>
    </g>
</svg>
