<svg xmlns="http://www.w3.org/2000/svg" viewBox="0 0 511.996 511.996">
    <g fill="#cff09e">
        <path d="M224.768 203.978c-62.459 108.183-156.148-54.091-31.229-54.091-124.918 0-31.229-162.273 31.229-54.091-62.459-108.183 124.918-108.183 62.459 0 62.459-108.183 156.148 54.091 31.229 54.091 124.918 0 31.229 162.273-31.229 54.091 62.458 108.183-124.92 108.183-62.459 0z"/>
        <circle cx="256" cy="149.888" r="54.971"/>
    </g>
    <path d="M427.671 229.338H382.98c7.461-11.009 11.707-24.108 11.707-36.618 0-15.516-6.24-31.625-21.535-42.83 15.297-11.205 21.541-27.317 21.541-42.833 0-29.849-24.096-63.107-58.671-63.107-6.251 0-13.615 1.133-21.515 4.594-.953-8.571-3.654-15.516-6.78-20.929C297.895 10.581 278.072 0 255.997 0s-41.898 10.581-51.733 27.613c-3.125 5.412-5.827 12.357-6.78 20.929-7.9-3.461-15.264-4.594-21.515-4.594-15.796 0-30.787 7.234-42.209 20.37-10.459 12.028-16.458 27.604-16.458 42.735 0 15.538 6.261 31.672 21.603 42.879-6.915 5.101-11.56 10.896-14.677 16.295-9.833 17.038-9.083 39.499 1.96 58.617a68.42 68.42 0 0 0 2.861 4.49H84.322c-8.096 0-14.659 6.563-14.659 14.659v82.226c0 8.096 6.563 14.659 14.659 14.659h11.569l20.578 158.349c.948 7.305 7.171 12.769 14.537 12.769h249.983a14.66 14.66 0 0 0 14.537-12.769l20.578-158.349h11.569c8.096 0 14.659-6.563 14.659-14.659v-82.226c-.002-8.093-6.565-14.655-14.661-14.655zm-145.333 28.164c-5.515 9.552-17.223 12.954-26.342 12.954s-20.827-3.404-26.342-12.954c-5.559-9.627-3.698-24.167 5.145-41.294a69.336 69.336 0 0 0 21.197 3.31 69.34 69.34 0 0 0 21.197-3.31c8.843 17.127 10.703 31.666 5.145 41.294zm13.971-107.614c0 22.229-18.083 40.312-40.312 40.312s-40.312-18.083-40.312-40.312 18.083-40.312 40.312-40.312 40.312 18.083 40.312 40.312zm27.722 14.785c26.36 1.223 41.34 11.289 41.34 28.045 0 15.304-13.09 33.789-29.349 33.789-11.122 0-22.789-8.889-33.205-25.127 10.519-9.572 18.09-22.32 21.214-36.707zm11.991-91.406c16.26 0 29.353 18.485 29.353 33.789 0 7.482-2.876 13.621-8.549 18.249-7.073 5.768-18.346 9.115-32.798 9.789-3.125-14.383-10.695-27.129-21.211-36.7 10.416-16.238 22.083-25.127 33.205-25.127zM229.655 42.272c5.515-9.55 17.223-12.954 26.342-12.954s20.827 3.404 26.342 12.954c5.559 9.627 3.698 24.167-5.145 41.294-6.687-2.143-13.807-3.31-21.197-3.31s-14.509 1.167-21.197 3.31c-8.843-17.127-10.704-31.666-5.145-41.294zm-53.684 30.995c11.122 0 22.789 8.889 33.205 25.127-10.518 9.572-18.089 22.32-21.213 36.707-26.36-1.223-41.34-11.289-41.34-28.045-.001-15.304 13.091-33.789 29.348-33.789zm-26.348 107.618c5.559-9.631 19.083-15.291 38.342-16.197 3.127 14.38 10.695 27.122 21.21 36.69-10.414 16.233-22.082 25.122-33.21 25.127h-.007c-11.024 0-19.822-8.432-24.381-16.324-4.56-7.895-7.469-19.739-1.954-29.296zm218.489 301.797H143.883L125.455 340.88h149.713c8.096 0 14.659-6.563 14.659-14.659s-6.563-14.659-14.659-14.659H98.981v-52.909h99.855c1.318 5.252 3.265 9.754 5.428 13.505 9.833 17.032 29.656 27.613 51.733 27.613s41.898-10.581 51.733-27.613c2.165-3.75 4.11-8.253 5.428-13.505h99.855v52.909h-45.11c-8.096 0-14.659 6.563-14.659 14.659s6.563 14.659 14.659 14.659h18.637l-18.428 141.802z" fill="#507c5c"/>
</svg>
