<svg xmlns="http://www.w3.org/2000/svg" viewBox="0 0 512 512">
    <g fill="#cff09e">
        <path d="M461.783 162.832c-44.312 44.312-126.893 33.577-126.893 33.577s-10.735-82.581 33.577-126.893S495.36 35.939 495.36 35.939s10.737 82.581-33.577 126.893z"/>
        <path d="M205.069 162.832c44.312 44.312 126.893 33.577 126.893 33.577s10.735-82.581-33.577-126.893-126.893-33.577-126.893-33.577-10.736 82.581 33.577 126.893z"/>
    </g>
    <path d="M251.727 461.739H110.343c-43.785 0-79.405-35.62-79.405-79.405s35.62-79.407 79.405-79.407c8.543 0 15.469-6.925 15.469-15.469s-6.925-15.469-15.469-15.469C49.501 271.99 0 321.489 0 382.333s49.501 110.343 110.343 110.343h141.385c8.543 0 15.469-6.925 15.469-15.469-.001-8.543-6.926-15.468-15.47-15.468zm105.355-248.718c28.528 0 81.489-5.099 115.641-39.251 49.131-49.131 38.456-136.147 37.979-139.827a15.472 15.472 0 0 0-13.347-13.345c-.399-.053-9.953-1.273-24.186-1.273-28.528 0-81.489 5.099-115.641 39.251-10.573 10.573-18.371 22.903-24.102 35.777-5.731-12.875-13.529-25.204-24.102-35.777-34.152-34.152-87.112-39.252-115.641-39.252-14.233 0-23.787 1.22-24.186 1.273a15.468 15.468 0 0 0-13.345 13.345c-.48 3.68-11.152 90.696 37.978 139.827 34.152 34.151 87.11 39.251 115.641 39.251h.002c2.947 0 5.679-.054 8.185-.138v76.121c-20.264-20.991-48.565-33.521-79.385-33.521-24.866 0-48.344 8.079-67.898 23.364-6.731 5.261-7.922 14.983-2.661 21.714s14.983 7.922 21.714 2.661c14.06-10.991 30.95-16.801 48.843-16.801 34.988 0 65.466 22.425 75.843 55.799a15.47 15.47 0 0 0 22.557 8.776 59.334 59.334 0 0 1 29.829-8.042c32.749 0 59.393 26.644 59.393 59.393s-26.644 59.393-59.393 59.393h-38.054c-8.542 0-15.469 6.925-15.469 15.469 0 8.543 6.927 15.469 15.469 15.469h38.057c49.808 0 90.331-40.522 90.331-90.331s-40.521-90.331-90.331-90.331c-6.036 0-12.033.617-17.905 1.805V212.882c2.504.085 5.237.139 8.184.139zm22.325-132.567c26.266-26.268 70.022-30.191 93.763-30.191 2.812 0 5.41.054 7.738.138.851 23.035-1.097 72.528-30.062 101.492-26.266 26.268-70.022 30.191-93.763 30.191-2.812 0-5.409-.054-7.738-.138-.852-23.035 1.096-72.528 30.062-101.492zM317.48 181.946c-2.32.084-4.907.138-7.708.138-23.743 0-67.497-3.923-93.763-30.191-28.829-28.828-30.84-78.423-30.033-101.492 2.32-.084 4.905-.138 7.708-.138 23.743 0 67.497 3.921 93.763 30.191 28.829 28.828 30.84 78.425 30.033 101.492z" fill="#507c5c"/>
</svg>
