<svg width="157" height="14" viewBox="0 0 157 14" xmlns="http://www.w3.org/2000/svg">
    <g fill="none" fill-rule="evenodd">
        <path d="M-7-10h170v34H-7z"/>
        <path d="M8.687 13.39H0V.22h3.4v10.207h5.292l-.005 2.961zm14.531 0h-3.85l-.652-1.9h-5.192l-.651 1.9h-3.85L13.979.22h4.284l4.955 13.17zm-5.429-4.858l-1.654-4.955-1.678 4.956h3.332zm18.637 4.857h-3.278l-5.567-7.62v7.62h-3.4V.221h3.495l5.331 7.246V.221h3.416l.003 13.168zm7.917 0h-5.548V.221h5.528a7.419 7.419 0 0 1 5.143 1.777 6.119 6.119 0 0 1 1.984 4.8 6.149 6.149 0 0 1-1.984 4.808 7.364 7.364 0 0 1-5.123 1.783zm-.02-2.96a3.473 3.473 0 0 0 2.665-1.057 3.954 3.954 0 0 0 .04-5.183 3.508 3.508 0 0 0-2.685-1.007h-2.152v7.246h2.132zm23.533 2.96h-9.654V.221h9.654v2.962h-6.258v2.053h6.12v2.961h-6.12v2.231h6.258v2.961zm14.334 0h-4.008l-2.863-4.422-2.863 4.422h-4.008l4.58-6.752L68.744.22h4.008l2.567 4.126L77.866.22h4.027l-4.284 6.4 4.581 6.77zm4.383 0h-3.4V.221h6.594a4.475 4.475 0 0 1 3.356 1.254 4.587 4.587 0 0 1 0 6.24 4.475 4.475 0 0 1-3.356 1.253h-3.2l.006 4.421zm2.685-7.384c.424.017.84-.116 1.175-.375.309-.249.481-.63.464-1.026.016-.4-.156-.783-.464-1.037a1.778 1.778 0 0 0-1.175-.385h-2.685v2.823h2.685zM104.5 13.39h-8.687V.221h3.4v10.207h5.292l-.005 2.961zm12.675-1.674a7.588 7.588 0 0 1-10.079 0 6.476 6.476 0 0 1-2-4.9 6.476 6.476 0 0 1 2-4.9 7.588 7.588 0 0 1 10.079 0 6.493 6.493 0 0 1 1.994 4.9 6.493 6.493 0 0 1-1.994 4.9zm-7.631-2.172a3.635 3.635 0 0 0 5.183 0 4.253 4.253 0 0 0 0-5.449 3.636 3.636 0 0 0-5.183 0 4.221 4.221 0 0 0 0 5.45zm22.576 3.846h-3.885l-2.211-4.422h-1.737v4.422h-3.4V.221h6.594a4.5 4.5 0 0 1 3.354 1.244 4.292 4.292 0 0 1 1.224 3.14c.04.92-.23 1.828-.77 2.575a3.955 3.955 0 0 1-1.856 1.373l2.687 4.836zm-5.153-7.384c.424.017.84-.116 1.175-.375a1.27 1.27 0 0 0 .464-1.046 1.249 1.249 0 0 0-.464-1.026 1.81 1.81 0 0 0-1.175-.375h-2.685v2.823h2.685zm16.624 7.384h-9.656V.221h9.654v2.962h-6.254v2.053h6.12v2.961h-6.12v2.231h6.258l-.002 2.961zm13.208 0h-3.889l-2.211-4.422h-1.737v4.422h-3.4V.221h6.594a4.5 4.5 0 0 1 3.356 1.244 4.292 4.292 0 0 1 1.224 3.14c.04.92-.23 1.828-.77 2.575a3.955 3.955 0 0 1-1.856 1.373l2.689 4.836zm-5.153-7.384c.424.017.84-.116 1.175-.375a1.27 1.27 0 0 0 .464-1.046 1.249 1.249 0 0 0-.464-1.026 1.81 1.81 0 0 0-1.175-.375h-2.685v2.823h2.685z" fill="#333"/>
    </g>
</svg>
