<svg width="203" height="34" viewBox="0 0 203 34" xmlns="http://www.w3.org/2000/svg">
    <g transform="translate(1)" fill="none" fill-rule="evenodd">
        <path fill="#333" d="M53.452 23.574h-8.687V10.406h3.4v10.207h5.292zm14.531 0h-3.85l-.652-1.9h-5.192l-.651 1.9h-3.85l4.956-13.169h4.284l4.955 13.169zm-5.429-4.857L60.9 13.762l-1.678 4.956 3.332-.001zm18.637 4.857h-3.278l-5.567-7.621v7.621h-3.4V10.406h3.495l5.331 7.246v-7.246h3.416zm7.917 0H83.56V10.406h5.528a7.419 7.419 0 0 1 5.143 1.777 6.119 6.119 0 0 1 1.984 4.8 6.149 6.149 0 0 1-1.984 4.808 7.364 7.364 0 0 1-5.123 1.783zm-.02-2.961a3.473 3.473 0 0 0 2.665-1.056 3.954 3.954 0 0 0 .04-5.183 3.508 3.508 0 0 0-2.685-1.007h-2.152v7.246h2.132zm23.533 2.961h-9.654V10.406h9.654v2.962h-6.258v2.053h6.12v2.961h-6.12v2.231h6.258zm14.334 0h-4.008l-2.863-4.422-2.863 4.422h-4.008l4.58-6.752-4.284-6.417h4.008l2.567 4.126 2.547-4.126h4.027l-4.284 6.4zm4.383 0h-3.4V10.406h6.594a4.475 4.475 0 0 1 3.356 1.254 4.587 4.587 0 0 1 0 6.239 4.475 4.475 0 0 1-3.356 1.254h-3.2l.006 4.421zm2.685-7.384c.424.017.84-.116 1.175-.375.309-.249.481-.63.464-1.026.016-.4-.156-.783-.464-1.037a1.778 1.778 0 0 0-1.175-.385h-2.685v2.823h2.685zm15.242 7.384h-8.687V10.406h3.4v10.207h5.292zM161.94 21.9a7.588 7.588 0 0 1-10.079 0 6.476 6.476 0 0 1-2-4.9 6.476 6.476 0 0 1 2-4.9 7.588 7.588 0 0 1 10.079 0 6.493 6.493 0 0 1 1.994 4.9 6.493 6.493 0 0 1-1.994 4.9zm-7.631-2.172a3.635 3.635 0 0 0 5.183 0 4.253 4.253 0 0 0 0-5.449 3.636 3.636 0 0 0-5.183 0 4.221 4.221 0 0 0 0 5.449zm22.576 3.846H173l-2.211-4.422h-1.737v4.422h-3.4V10.406h6.594a4.5 4.5 0 0 1 3.354 1.244 4.292 4.292 0 0 1 1.224 3.139c.04.92-.23 1.829-.77 2.576a3.955 3.955 0 0 1-1.856 1.373l2.687 4.836zm-5.153-7.384c.424.017.84-.116 1.175-.375a1.27 1.27 0 0 0 .464-1.046 1.249 1.249 0 0 0-.464-1.026 1.81 1.81 0 0 0-1.175-.375h-2.685v2.823l2.685-.001zm16.624 7.384H178.7V10.406h9.654v2.962H182.1v2.053h6.12v2.961h-6.12v2.231h6.258zm13.208 0h-3.889l-2.211-4.422h-1.737v4.422h-3.4V10.406h6.594a4.5 4.5 0 0 1 3.356 1.244 4.292 4.292 0 0 1 1.224 3.139c.04.92-.23 1.829-.77 2.576a3.955 3.955 0 0 1-1.856 1.373l2.689 4.836zm-5.153-7.384c.424.017.84-.116 1.175-.375a1.27 1.27 0 0 0 .464-1.046 1.249 1.249 0 0 0-.464-1.026 1.81 1.81 0 0 0-1.175-.375h-2.685v2.823l2.685-.001z"/>
        <path d="M16.895 33c-8.837 0-16-7.163-16-16s7.163-16 16-16 16 7.163 16 16c-.01 8.832-7.168 15.99-16 16zm0-30c-7.732 0-14 6.268-14 14s6.268 14 14 14 14-6.268 14-14c-.009-7.728-6.272-13.991-14-14z" fill="#666"/>
        <path stroke="#1A1A1A" fill="#1A1A1A" d="M.436 33.121L11.649 16.59l5.608 5.7z"/>
        <path fill="#C1272D" d="M17.257 10.982l16.1-10.1-10.493 15.659"/>
        <circle fill="#F2F2F2" cx="17.504" cy="16.949" r="6.182"/>
        <circle fill="#CCC" cx="17.504" cy="16.949" r="6.182"/>
        <circle fill="#FFF" cx="17.504" cy="16.437" r="3.734"/>
    </g>
</svg>
