<svg width="632" height="489" viewBox="0 0 632 489" xmlns="http://www.w3.org/2000/svg">
    <g fill="none" fill-rule="evenodd">
        <path d="M387.073 119.721c-1.325-6.314-8.98-10.596-17.105-9.568-8.122 1.03-13.631 6.985-12.306 13.3l71.724 341.836H198.429l71.724-341.836c1.325-6.315-4.185-12.27-12.306-13.3-8.124-1.03-15.781 3.254-17.105 9.568L166.194 475.01c-.703 3.355.523 6.78 3.353 9.37 2.831 2.589 6.981 4.081 11.352 4.082h266.014c4.371 0 8.522-1.492 11.353-4.082 2.83-2.59 4.056-6.015 3.352-9.37l-74.545-355.288z" fill="#507C5C"/>
        <path d="M313.907 430.011c-8.229 0-14.9-6.671-14.9-14.9v-31.786c0-8.229 6.671-14.9 14.9-14.9s14.9 6.671 14.9 14.9v31.786c0 8.229-6.67 14.9-14.9 14.9zm0-102.811c-8.229 0-14.9-6.671-14.9-14.9v-31.786c0-8.229 6.671-14.9 14.9-14.9s14.9 6.671 14.9 14.9V312.3c0 8.23-6.67 14.9-14.9 14.9zm0-102.81c-8.229 0-14.9-6.671-14.9-14.9v-31.786c0-8.229 6.671-14.9 14.9-14.9s14.9 6.671 14.9 14.9v31.786c0 8.229-6.67 14.9-14.9 14.9z" fill="#507C5C"/>
        <path d="M315 57.5c-11.482.045-70.727.884-134 13C110.5 84 100.5 185 100.5 185H51C107 71 15 53.5 15 53.5V15h602v38.5S525 71 581 185h-49.5S521.5 84 451 70.5c-63.273-12.116-122.518-12.955-134-13h-.054a281.562 281.562 0 0 0-1.946 0z" stroke="#507C5C" stroke-width="30" stroke-linecap="round" stroke-linejoin="round" fill="#CFF09E"/>
    </g>
</svg>
