<svg xmlns="http://www.w3.org/2000/svg" viewBox="0 0 512 512">
    <g fill="#cff09e">
        <path d="M295.968 154.854c-9.586 4.279-18.034 9.769-25.329 16.163-5.665-4.043-10.554-8.733-14.637-13.903 20.425-25.858 20.836-63.525 0-89.769 4.729-5.957 10.527-11.34 17.461-15.844l52.615-34.184c13.211-8.582 30.758.354 31.584 16.086l4.727 89.849c.035.652.024 1.291.036 1.937l-66.457 29.665zM216.035 154.854c16.891 7.54 30.262 18.828 39.966 32.235-24.66 34.064-25.582 81.835 0 116.81-5.946 8.129-13.317 15.57-22.162 21.982-49.801 33.201-117.049 1.58-123.247-57.953L96.779 135.23c-1.631-15.669 14.311-27.227 28.697-20.805l90.559 40.429z"/>
    </g>
    <path d="M415.091 105.223c-10.083-7.309-22.892-8.644-34.262-3.567l-5.445 2.43-3.758-71.421C370.663 14.349 355.529 0 337.173 0c-6.614 0-13.086 1.933-18.715 5.589l-52.616 34.183a87.904 87.904 0 0 0-9.818 7.423 89.922 89.922 0 0 0-9.864-7.423L193.545 5.589C187.916 1.933 181.444 0 174.83 0c-18.355 0-33.49 14.349-34.453 32.667l-3.758 71.419-5.445-2.43c-4.493-2.005-9.225-3.022-14.062-3.022-9.718 0-19.056 4.178-25.623 11.464-6.582 7.302-9.643 16.743-8.62 26.581l13.813 132.698c4.983 47.855 45.069 83.941 93.244 83.941 18.295 0 36.161-5.464 51.668-15.802.143-.095.282-.193.421-.292v101.361h-13.984c-7.723 0-13.984 6.261-13.984 13.984s6.261 13.984 13.984 13.984h13.984v31.464c0 7.723 6.261 13.984 13.984 13.984s13.984-6.261 13.984-13.984v-99.753h13.984c7.723 0 13.984-6.261 13.984-13.984s-6.261-13.984-13.984-13.984h-13.984v-33.071c16.059 11.633 34.714 17.575 53.593 17.575 12.67 0 25.438-2.675 37.592-8.101 30.274-13.516 50.397-41.27 53.83-74.246l4.517-43.394c.8-7.681-4.778-14.557-12.461-15.357-7.691-.797-14.559 4.778-15.357 12.461l-4.517 43.394c-2.386 22.92-16.373 42.21-37.413 51.603-21.042 9.393-44.741 6.925-63.397-6.6-10.031-7.273-18.125-16.326-24.018-26.543-.083-.144-.169-.285-.25-.429-.259-.454-.505-.916-.755-1.375a79.437 79.437 0 0 1-1.241-2.368c-13.441-26.926-11.692-60.138 5.25-85.71l.025-.039a83.389 83.389 0 0 1 1.937-2.795c5.847-8.049 13.135-15.051 21.622-20.682l.39-.26a81.224 81.224 0 0 1 2.663-1.672 87.366 87.366 0 0 1 1.622-.958c.387-.222.779-.441 1.17-.657.466-.259.933-.517 1.404-.769.529-.28 1.063-.551 1.597-.821.364-.183.722-.372 1.088-.551.92-.449 1.849-.887 2.79-1.306l66.456-29.667h.001l24.103-10.759c2.972-1.328 5.314-.15 6.445.67 1.131.821 2.979 2.681 2.642 5.917l-3.556 34.159c-.8 7.681 4.778 14.557 12.461 15.357 7.68.794 14.557-4.778 15.357-12.461l3.556-34.159c1.294-12.39-3.955-24.148-14.038-31.459zm-81.395-76.179c1.098-.713 2.267-1.075 3.478-1.075 2.573 0 6.3 1.914 6.524 6.168l4.322 82.166-57.753 25.781c-.232.103-.457.215-.688.32-.901.41-1.8.822-2.688 1.253-.456.221-.903.456-1.355.682-.657.329-1.317.654-1.966.994-.508.266-1.005.545-1.507.818-.58.316-1.163.626-1.738.951-.54.305-1.07.624-1.603.937-.443.26-.892.512-1.331.778 5.511-11.849 8.355-25.004 8.07-38.55-.317-15.052-4.345-29.217-11.551-41.576a60.014 60.014 0 0 1 7.17-5.466l52.616-34.181zm-165.39 5.091c.224-4.254 3.949-6.167 6.524-6.167 1.211 0 2.38.362 3.478 1.075l52.615 34.183a59.278 59.278 0 0 1 14.036 12.689c.032.041.059.084.091.124 7.63 9.611 11.742 21.235 12.358 33.033.015.31.036.621.048.933.024.657.036 1.315.039 1.972l-.001.53a61.02 61.02 0 0 1-.041 2.008c-.007.165-.018.33-.027.495a59.48 59.48 0 0 1-.572 5.847c-.063.429-.124.857-.197 1.284-.069.406-.147.81-.224 1.214a58.172 58.172 0 0 1-1.06 4.554c-.048.172-.091.344-.14.515-2.643 9.246-7.509 17.7-14.216 24.567-.587-.413-1.198-.793-1.796-1.194-.552-.373-1.106-.745-1.665-1.109-.688-.446-1.379-.887-2.078-1.319a118.549 118.549 0 0 0-8.014-4.527 95.062 95.062 0 0 0-1.315-.664 116.436 116.436 0 0 0-4.412-2.096l-57.751-25.781 4.32-82.166zm57.549 280.26c-10.843 7.167-23.261 10.954-35.928 10.954-33.805 0-61.933-25.308-65.427-58.87l-13.813-132.696c-.248-2.38.72-4.012 1.576-4.962 1.253-1.391 3.067-2.221 4.848-2.221.884 0 1.779.2 2.661.593l24.102 10.759.003.001 32.44 14.482 34.016 15.185a92.136 92.136 0 0 1 7.017 3.525c.505.281 1.012.558 1.512.849.597.347 1.18.71 1.768 1.071a83.65 83.65 0 0 1 3.211 2.07c.309.21.621.417.927.629.716.499 1.424 1.01 2.123 1.53.232.173.461.35.692.524a83.696 83.696 0 0 1 4.563 3.716c.07.062.145.113.217.173a82.327 82.327 0 0 1 6.339 6.236c-8.032 13.704-13.188 29.234-14.917 45.836-2.58 24.778 2.814 48.786 14.887 69.207a87.518 87.518 0 0 1-12.817 11.409z" fill="#507c5c"/>
</svg>
