<svg xmlns="http://www.w3.org/2000/svg" viewBox="0 0 512 512">
    <g fill="#cff09e">
        <path d="M397.942 158.695c-49.003 49.003-140.325 37.131-140.325 37.131s-11.872-91.322 37.131-140.325S435.073 18.37 435.073 18.37s11.872 91.322-37.131 140.325z"/>
        <path d="M114.055 158.695c49.003 49.003 140.325 37.131 140.325 37.131s11.872-91.322-37.131-140.325S76.924 18.37 76.924 18.37s-11.872 91.322 37.131 140.325z"/>
    </g>
    <path d="M456.334 182.146h-59.52c4.615-3.423 9.053-7.181 13.223-11.353 54.331-54.331 42.528-150.556 41.998-154.626a17.107 17.107 0 0 0-14.758-14.758C436.837 1.35 426.272 0 410.532 0c-31.547 0-90.114 5.638-127.88 43.406-11.692 11.692-20.315 25.326-26.653 39.563-6.338-14.238-14.961-27.871-26.653-39.563C191.579 5.638 133.013 0 101.464 0 85.725 0 75.16 1.35 74.717 1.408a17.107 17.107 0 0 0-14.758 14.758c-.53 4.07-12.332 100.294 41.998 154.627 4.172 4.172 8.608 7.93 13.223 11.353H55.662c-9.448 0-17.106 7.658-17.106 17.106v95.954c0 9.448 7.658 17.106 17.106 17.106h13.5l24.014 184.786c1.107 8.524 8.368 14.901 16.964 14.901h291.719c8.594 0 15.856-6.379 16.964-14.901l24.014-184.786h13.5c9.448 0 17.106-7.659 17.106-17.106v-95.954c-.002-9.447-7.661-17.106-17.109-17.106zM306.844 67.597c29.048-29.048 77.432-33.385 103.688-33.385 3.1 0 5.958.06 8.524.152.893 25.523-1.333 80.359-33.21 112.234-29.046 29.048-77.432 33.385-103.688 33.385-3.1 0-5.958-.06-8.524-.152-.893-25.522 1.333-80.356 33.21-112.234zM92.94 34.365c2.566-.092 5.424-.152 8.524-.152 26.256 0 74.64 4.336 103.688 33.385 31.881 31.879 34.105 86.726 33.212 112.234a238.26 238.26 0 0 1-8.524.152c-26.256 0-74.642-4.338-103.688-33.385C94.271 114.72 92.047 59.874 92.94 34.365zm293.892 443.422H125.167l-21.504-165.476H278.37c9.448 0 17.106-7.659 17.106-17.106 0-9.448-7.659-17.106-17.106-17.106H72.768v-61.742H439.23v61.742h-52.641c-9.448 0-17.106 7.658-17.106 17.106s7.658 17.106 17.106 17.106h21.749l-21.506 165.476z" fill="#507c5c"/>
</svg>
