<svg xmlns="http://www.w3.org/2000/svg" viewBox="0 0 512.001 512.001">
    <g fill="#cff09e">
        <path d="M264.673 87.051c11.135 3.412 21.625 9.511 30.434 18.321a73.316 73.316 0 0 1 18.315 30.417l28.429 21.647 28.058-21.378c17.024-17.024 21.259-43.026 10.517-64.573l-8.499-17.044a55.991 55.991 0 0 0-24.841-24.982l-17.98-9.092c-21.59-10.917-47.749-6.732-64.856 10.374l-21.233 27.888 21.656 28.422zM264.69 227.84c-25.224 7.737-53.78 1.642-73.736-18.315a73.316 73.316 0 0 1-18.315-30.417l-28.429-21.647-28.058 21.378c-17.024 17.024-21.259 43.026-10.517 64.573l8.499 17.044a55.991 55.991 0 0 0 24.841 24.982l17.98 9.092c21.59 10.917 47.749 6.732 64.856-10.374l42.879-56.316zM317.022 426.107c-11.727-11.727-11.727-30.74 0-42.467l15.445-15.445a30.023 30.023 0 0 0 4.518-5.787l10.166-16.948c10.05-16.755 33.17-19.603 46.986-5.787l9.322 9.322c13.816 13.816 10.967 36.936-5.787 46.986l-16.948 10.166a30.001 30.001 0 0 0-5.787 4.518l-15.445 15.445c-11.731 11.724-30.743 11.724-42.47-.003z"/>
    </g>
    <path d="M413.465 338.985l-9.322-9.321c-8.346-8.346-19.429-12.943-31.203-12.943-15.69 0-29.868 8.022-37.927 21.458l-10.17 16.951a15.83 15.83 0 0 1-2.388 3.058l-15.442 15.443c-8.344 8.344-12.941 19.439-12.941 31.241a43.998 43.998 0 0 0 4.571 19.596l-41.461 41.461v-168.98a70.033 70.033 0 0 0 78.126 10.559l17.044-8.497c13.417-6.69 24.532-17.742 31.296-31.119l9.093-17.981a70.001 70.001 0 0 0-12.997-81.25 14.025 14.025 0 0 0-1.435-1.253l-13.104-9.978 13.278-10.116a14.39 14.39 0 0 0 1.431-1.25 70.067 70.067 0 0 0 13.175-80.896l-8.497-17.044c-6.69-13.415-17.74-24.531-31.12-31.297l-17.978-9.092A70.448 70.448 0 0 0 303.857.186c-18.744 0-36.364 7.297-49.614 20.546-.45.449-.868.928-1.253 1.435l-9.976 13.103-10.116-13.278a14.036 14.036 0 0 0-1.25-1.429 70.06 70.06 0 0 0-80.895-13.175l-17.044 8.497c-13.417 6.69-24.531 17.742-31.296 31.119l-9.092 17.98a70.001 70.001 0 0 0 12.996 81.251c.45.449.928.868 1.434 1.253l13.104 9.978-13.278 10.116c-.504.384-.982.802-1.429 1.25a70.065 70.065 0 0 0-13.175 80.896l8.497 17.044c6.689 13.415 17.74 24.531 31.12 31.297l17.98 9.092a70.44 70.44 0 0 0 31.636 7.549h.001c17.391 0 33.811-6.292 46.673-17.782v200.921c0 7.817 6.336 14.153 14.153 14.153.369 0 .732-.027 1.094-.055.385.031.77.055 1.156.055a14.11 14.11 0 0 0 10.007-4.145l63.372-63.372a43.998 43.998 0 0 0 19.596 4.571c11.801 0 22.896-4.595 31.241-12.94l15.445-15.445a15.844 15.844 0 0 1 3.058-2.389l16.949-10.166c11.751-7.048 19.45-18.89 21.126-32.489 1.673-13.598-2.924-26.954-12.612-36.642zM260.808 58.625l14.083-18.498c7.826-7.509 18.077-11.635 28.966-11.635a42.013 42.013 0 0 1 18.863 4.503l17.978 9.092c7.981 4.036 14.573 10.666 18.563 18.667l8.497 17.044a41.785 41.785 0 0 1-7.239 47.618l-18.672 14.225-16.407-12.493a88.129 88.129 0 0 0-20.325-31.787 88.086 88.086 0 0 0-31.808-20.333l-3.762-4.936-8.737-11.467zM118.58 77.758l9.092-17.98c4.035-7.979 10.664-14.572 18.666-18.561l17.044-8.497A41.79 41.79 0 0 1 211 39.959l42.414 55.67.025.03c.255.333.525.648.807.955.106.116.217.226.326.338.188.192.381.379.58.56.133.122.266.241.402.357.195.164.396.32.599.473.136.103.269.211.408.309.317.222.644.43.979.626.151.088.307.166.461.248.218.116.436.231.66.335.161.075.324.146.488.215.232.099.467.191.706.277.153.055.304.11.459.16.071.023.14.052.211.074 9.356 2.867 17.624 7.846 24.575 14.797 6.946 6.948 11.924 15.211 14.791 24.561l.001.003c4.236 13.813 3.334 28.662-2.539 41.809-3.187 7.136.014 15.507 7.151 18.694 7.134 3.189 15.506-.013 18.694-7.15a87.73 87.73 0 0 0 7.168-26.817l29.984 22.83a41.75 41.75 0 0 1 7.132 47.828l-9.093 17.981c-4.036 7.979-10.664 14.572-18.666 18.561l-17.044 8.497a41.784 41.784 0 0 1-47.618-7.239l-14.226-18.672 15.115-19.852a14.153 14.153 0 0 0-15.41-22.104 59.813 59.813 0 0 1-17.527 2.624c-15.886 0-30.82-6.185-42.051-17.415-6.946-6.946-11.922-15.21-14.791-24.559-.001-.003-.001-.006-.003-.008-6.481-21.139-.812-43.963 14.794-59.569 5.527-5.527 5.527-14.488 0-20.016-5.527-5.527-14.488-5.527-20.016 0-14.541 14.542-23.237 33.323-25.267 53.042l-29.967-22.823a41.754 41.754 0 0 1-7.132-47.831zm63.624 208.646a42.02 42.02 0 0 1-18.863-4.503l-17.98-9.092c-7.981-4.036-14.572-10.665-18.563-18.667l-8.497-17.044a41.787 41.787 0 0 1 7.239-47.618l18.672-14.226 13.325 10.145 3.084 2.348a88.09 88.09 0 0 0 20.325 31.787c14.434 14.434 33.013 23.222 53.054 25.251l-1.885 2.475c-.023.028-.042.058-.065.086l-20.881 27.424c-7.825 7.508-18.078 11.634-28.965 11.634zm215.778 85.763a15.786 15.786 0 0 1-7.592 11.675l-16.949 10.166a44.322 44.322 0 0 0-8.516 6.648L349.481 416.1a15.771 15.771 0 0 1-11.226 4.651 15.772 15.772 0 0 1-11.227-4.651c-2.999-2.999-4.651-6.986-4.651-11.226s1.652-8.227 4.651-11.226l15.442-15.443a44.146 44.146 0 0 0 6.649-8.517l10.169-16.949c2.896-4.829 7.999-7.712 13.652-7.712 4.215 0 8.186 1.652 11.186 4.653l9.322 9.321a15.769 15.769 0 0 1 4.534 13.166z" fill="#507c5c"/>
</svg>
