<svg xmlns="http://www.w3.org/2000/svg" viewBox="0 0 512.001 512.001">
    <g fill="#507c5c">
        <path d="M147.907 441.011c-8.229 0-14.9-6.671-14.9-14.9v-31.786c0-8.229 6.671-14.9 14.9-14.9s14.9 6.671 14.9 14.9v31.786c0 8.229-6.67 14.9-14.9 14.9zM147.907 338.2c-8.229 0-14.9-6.671-14.9-14.9v-31.786c0-8.229 6.671-14.9 14.9-14.9s14.9 6.671 14.9 14.9V323.3c0 8.23-6.67 14.9-14.9 14.9zM147.907 235.39c-8.229 0-14.9-6.671-14.9-14.9v-31.786c0-8.229 6.671-14.9 14.9-14.9s14.9 6.671 14.9 14.9v31.786c0 8.229-6.67 14.9-14.9 14.9zM147.907 132.58c-8.229 0-14.9-6.671-14.9-14.9V85.893c0-8.229 6.671-14.9 14.9-14.9s14.9 6.671 14.9 14.9v31.786c0 8.23-6.67 14.901-14.9 14.901z"/>
    </g>
    <g fill="#cff09e">
        <path d="M497.101 402.044l-53.334-81.231h33.889l-60.825-92.638-60.824 92.638h33.889l-53.333 81.231zM410.12 173.577l-44.796-68.226h28.464l-51.086-77.806-51.085 77.806h28.462l-44.794 68.226z"/>
    </g>
    <g fill="#507c5c">
        <path d="M221.073 25.146c-1.325-8.121-8.98-13.628-17.105-12.306-8.122 1.326-13.631 8.983-12.306 17.105l71.724 439.614H32.429l71.724-439.614c1.325-8.122-4.185-15.779-12.306-17.105-8.124-1.323-15.781 4.185-17.105 12.306L.194 482.059a14.901 14.901 0 0 0 14.705 17.299h266.014a14.898 14.898 0 0 0 14.705-17.299L221.073 25.146zM509.557 393.867l-38.181-58.153H477.686c8.229 0 14.9-6.671 14.9-14.9 0-3.335-1.095-6.414-2.947-8.897l-60.351-91.918a14.9 14.9 0 0 0-24.91 0l-60.824 92.638a14.9 14.9 0 0 0 12.455 23.078h6.28l-38.181 58.153a14.9 14.9 0 0 0 12.455 23.078h40.039v40.941c0 8.229 6.671 14.9 14.9 14.9h50.66c8.229 0 14.9-6.671 14.9-14.9v-40.941h40.039a14.9 14.9 0 0 0 12.456-23.079zm-82.294 49.118h-20.86v-26.041h20.86v26.041zm14.9-55.841h-77.991l38.181-58.153a14.9 14.9 0 0 0-12.455-23.078h-6.28l33.215-50.59 33.215 50.59h-6.28a14.9 14.9 0 0 0-12.455 23.078l38.181 58.153h-27.331zM378.876 220.476v-32.001h31.242a14.9 14.9 0 0 0 12.455-23.078l-29.644-45.147h.885c8.229 0 14.9-6.671 14.9-14.9 0-3.335-1.095-6.414-2.947-8.897l-50.613-77.087a14.9 14.9 0 0 0-24.91 0l-51.086 77.807a14.9 14.9 0 0 0 12.455 23.078h.855l-29.644 45.147a14.9 14.9 0 0 0 12.455 23.078h31.242v32.001c0 8.229 6.671 14.9 14.9 14.9h42.55c8.234 0 14.905-6.671 14.905-14.901zM333.191 98.274a14.901 14.901 0 0 0-13.112-7.823h-.855l23.478-35.759 23.478 35.759h-.855a14.9 14.9 0 0 0-12.455 23.078l29.644 45.147h-79.622l29.644-45.147a14.904 14.904 0 0 0 .655-15.255zm15.885 107.302h-12.75v-17.101h12.75v17.101z"/>
    </g>
</svg>
