<svg width="489" height="390" viewBox="0 0 489 390" xmlns="http://www.w3.org/2000/svg">
    <g fill="none" fill-rule="evenodd">
        <path d="M251.727 358.739H110.343c-43.785 0-79.405-35.62-79.405-79.405 0-43.785 35.62-79.407 79.405-79.407 8.543 0 15.469-6.925 15.469-15.469s-6.925-15.469-15.469-15.469C49.501 168.99 0 218.489 0 279.333c0 60.844 49.501 110.343 110.343 110.343h141.385c8.543 0 15.469-6.925 15.469-15.469-.001-8.543-6.926-15.468-15.47-15.468zm66.231-172.736c-20.264-20.991-48.565-33.521-79.385-33.521-24.866 0-48.344 8.079-67.898 23.364-6.731 5.261-7.922 14.983-2.661 21.714 5.261 6.731 14.983 7.922 21.714 2.661 14.06-10.991 30.95-16.801 48.843-16.801 34.988 0 65.466 22.425 75.843 55.799a15.47 15.47 0 0 0 22.557 8.776 59.334 59.334 0 0 1 29.829-8.042c32.749 0 59.393 26.644 59.393 59.393s-26.644 59.393-59.393 59.393h-38.054c-8.542 0-15.469 6.925-15.469 15.469 0 8.543 6.927 15.469 15.469 15.469h38.057c49.808 0 90.331-40.522 90.331-90.331C457.134 249.537 398.803 212 377 212c-21.803 0-32.5 3.5-40.029 6.5-1.471-9-19.013-32.497-19.013-32.497z" fill="#507C5C"/>
        <path d="M397.5 220.5L441 15M423.5 237.5L474 140M372 223s5-99-49-176" stroke="#507C5C" stroke-width="30" stroke-linecap="round" stroke-linejoin="round"/>
    </g>
</svg>
