<svg xmlns="http://www.w3.org/2000/svg" viewBox="0 0 512.002 512.002">
    <path d="M81.409 95.689c8.129-45.919 48.206-80.804 96.459-80.804 32.669 0 61.585 16.001 79.39 40.579-8.49 11.726-14.465 25.394-17.091 40.225-35.495 2.407-63.545 31.94-63.545 68.045 0 37.678 30.544 68.222 68.222 68.222H86.086c-37.678 0-68.222-30.544-68.222-68.222-.001-36.105 28.05-65.639 63.545-68.045z" fill="#cff09e"/>
    <path d="M494.14 157.532c-8.221 0-14.885 6.664-14.885 14.885 0 24.615-20.026 44.647-44.635 44.655H244.845c-29.411 0-53.337-23.928-53.337-53.337 0-27.941 21.817-51.307 49.667-53.194a14.889 14.889 0 0 0 13.651-12.256c.252-1.419.546-2.821.868-4.215.095-.411.202-.816.302-1.224a82.336 82.336 0 0 1 2.328-7.803c.043-.124.083-.249.128-.371 2.612-7.244 6.243-14.098 10.863-20.479.244-.338.472-.685.685-1.037C285.252 42.7 309.593 29.77 336.626 29.77c45.826 0 83.107 37.281 83.107 83.107 0 8.221 6.664 14.885 14.885 14.885s14.885-6.664 14.885-14.885C449.503 50.637 398.867 0 336.626 0c-30.739 0-58.919 12.316-79.444 32.631C236.212 11.953 207.685 0 177.868 0c-51.13 0-95.216 34.042-108.681 82.372-37.918 7.866-66.209 41.648-66.209 81.362 0 45.826 37.282 83.107 83.107 83.107h348.537c41.026-.013 74.401-33.399 74.401-74.425.002-8.22-6.662-14.884-14.883-14.884zM86.086 217.071c-29.41 0-53.337-23.928-53.337-53.337 0-27.941 21.817-51.307 49.667-53.194a14.883 14.883 0 0 0 13.649-12.256c7.029-39.7 41.432-68.514 81.803-68.514 23.186 0 45.322 9.818 60.96 26.665a112.347 112.347 0 0 0-10.881 25.937c-.844.176-1.676.378-2.51.579-.333.08-.671.147-1.002.231-.835.211-1.66.451-2.484.688-.326.094-.656.174-.981.272-.746.225-1.48.475-2.216.719-.396.131-.796.249-1.189.387-.686.24-1.359.503-2.036.761-.432.164-.871.314-1.299.485-.607.243-1.204.508-1.804.764-.488.208-.982.403-1.465.621-.481.216-.951.453-1.426.677-.591.278-1.186.548-1.768.841-.378.191-.746.397-1.121.592-.668.348-1.338.689-1.996 1.055-.32.179-.63.371-.948.554-.7.402-1.402.799-2.088 1.221-.278.17-.546.354-.822.528-.714.45-1.43.898-2.13 1.368-.25.168-.49.348-.738.519-.714.491-1.429.982-2.127 1.496-.222.162-.433.336-.653.502-.713.536-1.426 1.072-2.121 1.63-.188.15-.366.31-.552.461a83.805 83.805 0 0 0-2.127 1.78c-.191.167-.372.342-.561.511a81.9 81.9 0 0 0-2.021 1.84c-.171.162-.335.335-.505.5a84.831 84.831 0 0 0-1.978 1.956c-.103.106-.199.217-.302.324a82.532 82.532 0 0 0-2.075 2.23c-.116.129-.223.265-.338.394a82.96 82.96 0 0 0-1.932 2.257c-.054.065-.103.132-.156.198a83.428 83.428 0 0 0-4.047 5.381c-.077.112-.147.228-.223.339a81.039 81.039 0 0 0-1.703 2.583c-.046.073-.088.149-.134.222a82.06 82.06 0 0 0-1.67 2.779c-.112.196-.214.397-.324.595a82.96 82.96 0 0 0-1.356 2.487c-.095.183-.18.372-.274.557-.438.86-.869 1.724-1.279 2.599-.098.21-.185.426-.28.636a87.012 87.012 0 0 0-1.142 2.593c-.031.074-.058.152-.088.226a82.286 82.286 0 0 0-2.343 6.426c-.174.546-.323 1.101-.485 1.652-.174.589-.359 1.174-.519 1.77-.085.314-.153.636-.235.951-.216.84-.435 1.678-.625 2.526-.024.103-.04.208-.063.311a83.246 83.246 0 0 0-.649 3.218 83.21 83.21 0 0 0-.813 5.859 82.664 82.664 0 0 0-.476 8.717c0 1.356.039 2.705.103 4.046.021.438.061.871.088 1.307.058.901.119 1.8.205 2.693.049.515.115 1.024.173 1.536.094.808.192 1.617.308 2.417.077.534.165 1.064.252 1.594a83.354 83.354 0 0 0 .738 3.904c.164.764.342 1.523.527 2.279.125.512.249 1.024.384 1.532.208.783.435 1.558.664 2.332.138.467.271.936.418 1.401.275.871.575 1.73.877 2.587.125.354.24.713.369 1.066a82.717 82.717 0 0 0 1.408 3.565c.094.222.199.438.295.658.412.951.835 1.898 1.282 2.831.195.409.406.81.607 1.215.366.734.735 1.466 1.122 2.188.24.448.491.889.74 1.332.374.668.753 1.332 1.145 1.989.269.451.545.898.822 1.343.397.637.802 1.27 1.216 1.895a77.823 77.823 0 0 0 2.198 3.16c.301.411.598.825.905 1.23.484.639.984 1.265 1.486 1.889.289.359.572.723.866 1.078.074.089.144.183.219.272H86.086v-.008zm272.776 162.298h-10.823v-2.233c0-8.221-6.664-14.885-14.885-14.885s-14.885 6.664-14.885 14.885v2.233h-26.333l24.706-24.706c5.813-5.813 5.813-15.238 0-21.052s-15.238-5.813-21.052 0l-24.706 24.706v-26.333h2.233c8.221 0 14.885-6.664 14.885-14.885s-6.664-14.885-14.885-14.885h-2.233v-10.823c0-8.221-6.664-14.885-14.885-14.885s-14.885 6.664-14.885 14.885v10.823h-2.233c-8.221 0-14.885 6.664-14.885 14.885s6.664 14.885 14.885 14.885h2.233v26.333l-24.706-24.706c-5.813-5.813-15.238-5.813-21.052 0s-5.813 15.238 0 21.052l24.706 24.706H193.73v-2.233c0-8.221-6.664-14.885-14.885-14.885s-14.885 6.664-14.885 14.885v2.233h-10.823c-8.221 0-14.885 6.664-14.885 14.885s6.664 14.885 14.885 14.885h10.823v2.233c0 8.221 6.664 14.885 14.885 14.885s14.885-6.664 14.885-14.885v-2.233h26.333l-24.706 24.706c-5.813 5.813-5.813 15.238 0 21.052a14.837 14.837 0 0 0 10.525 4.36c3.809 0 7.62-1.453 10.525-4.36l24.706-24.706v26.333h-2.233c-8.221 0-14.885 6.664-14.885 14.885s6.664 14.885 14.885 14.885h2.233v10.823c0 8.221 6.664 14.885 14.885 14.885s14.885-6.664 14.885-14.885v-10.823h2.233c8.221 0 14.885-6.664 14.885-14.885s-6.664-14.885-14.885-14.885h-2.233V430.19l24.706 24.706c2.907 2.907 6.716 4.36 10.525 4.36s7.62-1.453 10.525-4.36c5.813-5.813 5.813-15.238 0-21.052l-24.706-24.706h26.333v2.233c0 8.221 6.664 14.885 14.885 14.885s14.885-6.664 14.885-14.885v-2.233h10.823c8.221 0 14.885-6.664 14.885-14.885s-6.661-14.884-14.882-14.884z" fill="#507c5c"/>
</svg>
