<svg xmlns="http://www.w3.org/2000/svg" viewBox="0 0 511.998 511.998">
    <path fill="#cff09e" d="M439.588 197.61h58.78v129.559h-58.78z"/>
    <path d="M498.364 183.977H344.171c-17.213 0-33.449 6.648-45.716 18.721l-63.115 62.104c-17.556 17.558-17.556 46.124 0 63.682l.101.101c8.778 8.778 20.311 13.167 31.842 13.167 11.531 0 23.062-4.389 31.842-13.167l67.331-67.33c5.324-5.324 5.324-13.958 0-19.284-5.324-5.324-13.958-5.324-19.284 0l-67.33 67.33c-6.925 6.927-18.193 6.925-25.115 0l-.101-.101c-3.354-3.354-5.202-7.814-5.202-12.558s1.846-9.204 5.123-12.48l63.035-62.028c7.135-7.022 16.579-10.889 26.589-10.889h81.777v104.826l-72.155 65.491a21.94 21.94 0 0 1-14.306 5.307h-.001l-274.676-.021c-8.777-.001-15.917-7.142-15.917-15.92s7.141-15.919 15.919-15.919h138.642c7.531 0 13.635-6.104 13.635-13.635s-6.104-13.635-13.635-13.635H64.812c-23.815 0-43.189 19.374-43.189 43.189 0 23.812 19.372 43.187 43.184 43.19l274.675.022h.004a49.204 49.204 0 0 0 32.305-12.09c.071-.063.142-.125.211-.188l67.288-61.075c.097.001.191.015.289.015h58.781c7.531 0 13.635-6.104 13.635-13.635V197.611c.004-7.53-6.1-13.634-13.631-13.634zm-13.635 129.554h-31.512V211.246h31.512v102.285z" fill="#507c5c"/>
    <g fill="#cff09e">
        <path d="M222.2 203.12c-31.711 31.711-90.808 24.029-90.808 24.029s-7.683-59.096 24.029-90.808 90.808-24.029 90.808-24.029 7.683 59.097-24.029 90.808z"/>
        <path d="M38.49 203.12c31.711 31.711 90.808 24.029 90.808 24.029s7.683-59.096-24.029-90.808-90.808-24.029-90.808-24.029-7.683 59.097 24.029 90.808z"/>
    </g>
    <path d="M259.751 110.554a13.635 13.635 0 0 0-11.763-11.763c-.293-.038-7.289-.933-17.639-.933-20.812 0-59.475 3.747-84.569 28.841-6.453 6.453-11.496 13.79-15.433 21.497-3.938-7.706-8.98-15.043-15.433-21.497-25.094-25.094-63.757-28.841-84.569-28.841-10.349 0-17.346.894-17.639.933A13.635 13.635 0 0 0 .943 110.554c-.349 2.685-8.133 66.166 27.908 102.207C53.945 237.853 92.608 241.6 113.42 241.6h.001c1.143 0 2.236-.012 3.291-.031v36.07c0 7.531 6.104 13.635 13.635 13.635s13.635-6.104 13.635-13.635v-36.07c1.057.019 2.15.031 3.293.031 20.814 0 59.475-3.747 84.569-28.839 36.04-36.041 28.256-99.522 27.907-102.207zM116.44 214.302c-.96.019-1.97.029-3.023.029-16.595 0-47.143-2.709-65.287-20.853-19.014-19.013-21.146-51.376-20.812-68.32.96-.019 1.969-.03 3.023-.03 16.594 0 47.143 2.709 65.287 20.853 19.013 19.014 21.147 51.377 20.812 68.321zm96.119-20.823c-18.144 18.144-48.692 20.853-65.287 20.853-1.083 0-2.12-.011-3.105-.031-.371-19.051 2.996-50.421 20.894-68.318 18.144-18.145 48.692-20.853 65.287-20.853 1.083 0 2.12.011 3.105.031.372 19.051-2.996 50.419-20.894 68.318z" fill="#507c5c"/>
</svg>
