<svg width="1314" height="224" viewBox="0 0 1314 224" xmlns="http://www.w3.org/2000/svg">
    <g fill="none" fill-rule="evenodd">
        <path d="M109.45 171.559c-12.622-1.227-25.353-7.439-34.985-17.071-4.742-4.742-7.73-8.864-10.562-14.567-3.919-7.892-5.762-14.037-6.555-21.855-.315-3.098-.2-11.024.208-14.372.688-5.638 2.847-12.586 5.695-18.323 3.097-6.24 6.386-10.841 11.225-15.706 4.868-4.893 9.67-8.345 15.932-11.451 8.472-4.204 16.885-6.14 26.67-6.134 9.58.005 17.821 1.888 26.144 5.974 6.66 3.269 11.08 6.417 16.168 11.51 5.032 5.04 8.209 9.48 11.393 15.927 4.454 9.014 6.273 17.44 6.019 27.87-.135 5.51-.375 7.733-1.273 11.77-1.923 8.647-6.89 18.824-12.474 25.562-8.45 10.197-21.556 17.965-34.204 20.275-4.576.835-13.948 1.12-19.401.59zm-10.492-33.314c.125-.164.74-1.754 1.37-3.533 1.695-4.798.914-4.312 6.911-4.307 2.797.002 5.214.085 5.372.186.157.1.847 1.796 1.533 3.768.686 1.973 1.351 3.722 1.48 3.886.337.436 3.526.412 3.526-.026 0-.269-2.905-8.169-8.822-23.986l-.896-2.395-1.314-.07-1.314-.07-5.245 12.863c-2.884 7.075-5.293 13.116-5.352 13.424-.101.532-.041.56 1.21.56.772 0 1.409-.124 1.541-.3zm4.233-10.353c-.074-.194.461-2 1.19-4.012a216.25 216.25 0 0 0 2.077-5.994c.496-1.547.868-2.335 1.1-2.335.192 0 .386.134.431.3.046.164.915 2.862 1.932 5.995s1.788 5.855 1.714 6.048c-.2.523-8.243.521-8.444-.002zm31.116 10.3c3.062-.649 5.464-2.51 6.262-4.853.516-1.513.481-4.007-.073-5.213-.799-1.743-2.424-2.999-4.599-3.555-.714-.182-1.325-.481-1.359-.664-.035-.191.524-.645 1.318-1.07 2.343-1.252 3.41-3.103 3.413-5.919.002-2.209-.773-3.422-2.873-4.499-.96-.492-1.604-.578-5.88-.784-2.641-.128-5.093-.16-5.45-.07l-.646.162v13.25c0 7.286.071 13.32.16 13.408.313.314 8.062.16 9.727-.193zm-6.484-2.102c-.223-.27-.283-1.631-.235-5.36l.065-5 2.363-.069c3.127-.09 4.623.336 5.999 1.712 1.927 1.927 2.088 4.999.365 6.962-1.196 1.362-2.602 1.862-5.618 1.997-2.162.098-2.694.054-2.939-.242zm-.026-12.966c-.19-.228-.255-1.688-.21-4.73l.066-4.4 2.515-.07c1.88-.051 2.773.03 3.537.321 2.016.77 2.952 3.068 2.116 5.2-.464 1.186-.905 1.746-2.07 2.629-1.493 1.132-5.325 1.808-5.954 1.05zm23.21 2.033c0-15.087.182-13.814-1.947-13.532l-1.167.155v13.223c0 7.272.071 13.294.16 13.382.087.088.788.16 1.556.16h1.397v-13.388z" fill="#9ED1D6"/>
        <path d="M109.6 171.45c-14.097-1.707-27.302-8.596-37.134-19.372-3.123-3.424-7.208-9.236-7.208-10.256 0-.247-.322-1.036-.716-1.753-.934-1.701-2.93-6.225-3.687-8.35-1.328-3.737-2.64-9.37-2.933-12.596-.09-.977-.28-1.853-.425-1.947-.365-.237-.36-9.488.006-10.271.147-.317.449-1.923.67-3.57 1.673-12.487 7.55-24.192 16.778-33.42 6.568-6.57 14.233-11.36 22.976-14.36 3.525-1.21 10.724-2.759 12.821-2.759.485 0 1.012-.13 1.172-.291.394-.394 9.304-.425 10.127-.035.317.15 1.687.399 3.046.553 3.158.358 9.266 1.868 12.5 3.09 8.384 3.167 15.91 8.041 21.856 14.154 8.745 8.993 14.47 20.382 16.32 32.47.202 1.317.43 2.772.508 3.233.476 2.845.616 5.046.497 7.845-.075 1.745-.233 3.362-.352 3.592-.12.23-.341 1.376-.493 2.545-.91 7.046-3.203 13.985-6.845 20.718-2.62 4.843-3.086 5.685-3.616 6.535-1.611 2.58-7.685 8.936-11.228 11.747-8.606 6.829-19.223 11.232-30.18 12.517-3.797.445-10.704.436-14.46-.019zm-10.553-32.965c.15-.165.886-1.97 1.632-4.012l1.358-3.713h10.491l.428 1.078c.236.593.891 2.371 1.455 3.952l1.027 2.874h1.912c1.566 0 1.927-.07 1.987-.384.041-.211-1.447-4.469-3.307-9.461a7038.63 7038.63 0 0 1-4.84-13.029c-.803-2.173-1.625-4.087-1.826-4.251-.471-.386-1.982-.386-2.5 0-.22.164-1.166 2.185-2.102 4.49-.936 2.306-2.999 7.372-4.584 11.258-4.443 10.894-4.506 11.056-4.365 11.283.204.33 2.918.258 3.234-.085zm4.396-10.801c-.068-.177.112-.905.4-1.617.288-.712 1.19-3.229 2.005-5.592.815-2.364 1.598-4.336 1.741-4.384.143-.048.336.27.429.704.093.436.914 3.033 1.825 5.773.912 2.74 1.594 5.084 1.516 5.21-.08.129-1.798.228-3.967.228-2.982 0-3.853-.071-3.95-.322zm30.41 10.867c4.413-.723 7.375-3.79 7.375-7.636 0-3.264-1.91-5.755-5.016-6.542-1.32-.334-1.44-.57-.528-1.041 2.393-1.238 3.82-3.54 3.823-6.174.004-2.686-1.368-4.543-3.95-5.348-1.287-.4-9.587-.771-10.75-.48l-.627.158v13.488c0 7.42.072 13.56.16 13.649.246.246 7.924.186 9.514-.074zm-5.79-2.7c-.224-.27-.284-1.578-.235-5.121l.065-4.76 2.754.013c2.919.015 3.912.306 5.207 1.53 2.465 2.33 1.621 6.564-1.591 7.986-1.445.638-5.759.884-6.2.352zm-.002-12.937c-.22-.265-.282-1.464-.234-4.52l.066-4.16 2.155-.073c2.792-.094 3.547.06 4.542.934 2.289 2.01 1.39 5.633-1.794 7.226-1.642.822-4.272 1.151-4.735.593zm23.177 15.407c.162-.303.247-4.94.247-13.396 0-11.438-.043-12.976-.376-13.31-.454-.454-2.739-.518-3.168-.088-.217.216-.288 3.568-.288 13.613 0 7.328.072 13.397.16 13.485.088.087.838.16 1.668.16 1.246 0 1.552-.081 1.756-.464z" fill="#78CDD4"/>
        <path d="M109.913 171.47c-10.621-1.161-21.505-5.684-30.164-12.534-2.371-1.876-7.315-6.749-9.146-9.014-1.692-2.093-5.345-7.425-5.345-7.801 0-.397.98-.626 3.376-.79 8.324-.566 13.653-4.425 14.93-10.81.184-.922.454-3.75.598-6.283.406-7.093 1.33-11.693 3.396-16.906 3.757-9.478 10.887-17.303 20.095-22.054 16.845-8.69 37.194-5.505 50.444 7.898 7.04 7.122 11.234 15.955 12.34 25.997.331 3.002.13 10.019-.389 13.623-.735 5.105-2.295 10.402-3.878 13.174-1.86 3.256-7.297 9.22-11.451 12.561-12.675 10.197-28.383 14.732-44.806 12.938zm-9.318-36.758l1.446-3.952H112.563l.782 2.156c.43 1.186 1.078 2.964 1.439 3.952l.656 1.796 1.892.071c1.041.039 1.98-.017 2.087-.124.107-.107-1.13-3.75-2.751-8.095a5922.022 5922.022 0 0 1-4.938-13.289c-1.096-2.964-2.158-5.524-2.362-5.688-.203-.165-.831-.3-1.396-.3-.803 0-1.101.118-1.37.54-.65 1.015-10.935 26.556-10.79 26.791.08.13.864.204 1.742.165l1.596-.07 1.445-3.953zm2.848-7.028c-.068-.177.114-.905.404-1.617.29-.712 1.191-3.228 2.003-5.592.813-2.363 1.594-4.336 1.738-4.384.144-.047.337.27.43.704.094.436.913 3.036 1.821 5.78.909 2.744 1.59 5.088 1.515 5.21-.075.121-1.858.22-3.962.22-2.982 0-3.853-.07-3.95-.321zm30.584 10.856c4.338-.823 7.192-3.834 7.215-7.612.02-3.32-2.054-5.931-5.263-6.624-1.139-.246-1.14-.494-.003-1.165 2.318-1.369 3.563-3.462 3.578-6.014.01-1.85-.479-2.97-1.786-4.09-1.681-1.438-2.751-1.65-8.438-1.663l-5.03-.013-.062 13.413c-.035 7.377-.011 13.548.052 13.713.145.378 7.806.42 9.737.055zm-5.964-2.69c-.224-.268-.284-1.577-.235-5.12l.065-4.76 2.754.013c2.33.012 2.906.093 3.735.525 3.07 1.6 3.867 5.185 1.701 7.652-1.144 1.304-2.465 1.784-5.298 1.929-1.976.1-2.477.057-2.722-.238zm-.002-12.936c-.22-.265-.282-1.464-.234-4.52l.066-4.16 1.916-.075c2.752-.107 3.834.106 4.786.94 2.28 2.004 1.384 5.597-1.802 7.22-1.62.826-4.265 1.158-4.732.595zm23.137 15.583c.415-.415.415-26.556 0-26.97-.298-.298-2.502-.397-3.166-.142-.34.13-.379 1.553-.379 13.612 0 7.408.072 13.54.16 13.628.279.279 3.084.173 3.385-.128z" fill="#64B5C8"/>
        <path d="M112.444 171.698c-.462-.053-1.863-.213-3.114-.354-7.673-.864-16.231-3.857-23.473-8.207-7.155-4.297-14.907-11.915-19.485-19.148-1.364-2.156-1.438-2.092 2.838-2.458 6.494-.556 11.394-3.325 13.415-7.58 1.12-2.358 1.459-4.211 1.788-9.778.548-9.286 2.223-15.503 5.943-22.075 5.968-10.542 16.423-18.08 28.55-20.585 10.937-2.26 22.947.044 32.097 6.155 10.284 6.869 16.778 16.907 18.968 29.32.474 2.686.393 12.049-.135 15.676-.688 4.728-2.318 10.506-3.777 13.387-.757 1.495-3.372 4.751-6.034 7.515-9.155 9.505-21.305 15.745-34.436 17.684-2.362.35-11.358.656-13.145.448zm-13.242-33.213c.127-.165.744-1.755 1.37-3.533 1.687-4.79.949-4.312 6.667-4.308 2.665.002 4.974.086 5.131.186.158.1.846 1.796 1.53 3.768.683 1.973 1.349 3.722 1.48 3.887.279.353 3.905.422 4.118.078.075-.122-1.06-3.436-2.523-7.365-1.463-3.93-3.68-9.888-4.925-13.242-1.245-3.353-2.38-6.236-2.522-6.407-.274-.33-2.285-.423-2.751-.126-.278.177-10.827 25.803-11.042 26.822-.11.519-.05.54 1.561.54 1.058 0 1.76-.111 1.906-.3zm4.275-10.694c-.073-.118.153-.953.501-1.856.349-.903 1.238-3.428 1.975-5.611.737-2.183 1.433-4.016 1.545-4.072.236-.119 4.019 11.27 3.84 11.56-.165.266-7.696.246-7.861-.02zm31.19 10.631c2.007-.473 3.232-1.128 4.525-2.422 1.522-1.522 2.089-2.906 2.096-5.12.005-1.397-.117-2.049-.547-2.931-.756-1.55-2.412-2.956-4.077-3.458-.74-.224-1.44-.486-1.554-.582-.115-.097.23-.4.765-.672 2.346-1.197 3.738-3.489 3.74-6.159 0-1.48-.095-1.861-.72-2.874-.579-.937-1.046-1.334-2.36-2.004l-1.64-.837-5.12-.088c-3.822-.067-5.212-.014-5.478.206-.308.255-.356 2.096-.356 13.42 0 7.22.065 13.296.145 13.504.125.327.758.379 4.61.376 3.096-.003 4.928-.113 5.97-.359zm-6.787-2.818c-.065-.169-.088-2.406-.053-4.97l.066-4.664 2.515.008c2.921.009 4 .31 5.299 1.485 1.607 1.452 2.029 4.184.925 6-.532.874-1.755 1.809-2.847 2.174-1.163.39-5.753.363-5.905-.033zm-.001-12.936c-.065-.17-.089-2.137-.052-4.372l.066-4.063h2.634c2.204 0 2.768.079 3.448.48 1.3.765 1.805 1.623 1.805 3.07 0 2.166-1.444 4.039-3.735 4.847-1.248.44-4.002.465-4.166.038zm23.487 2.344v-13.653h-3.593l-.062 13.413c-.035 7.377-.01 13.553.056 13.723.086.224.603.29 1.859.24l1.74-.07v-13.653z" fill="#5D94A9"/>
        <path d="M112.563 171.689c-2.427-.198-8.662-1.354-11.507-2.134-7.862-2.155-15.941-6.372-22.145-11.56-3.039-2.541-7.382-7.065-9.534-9.93-2.106-2.805-3.91-5.684-3.738-5.963.07-.112.632-.205 1.25-.205 1.702-.003 5.72-.658 7.47-1.218 5.074-1.625 8.224-4.771 9.46-9.448.207-.786.486-3.315.62-5.62.33-5.666.802-9.259 1.652-12.557 4.18-16.207 16.521-27.984 32.923-31.415 3.934-.823 9.839-1.03 13.935-.488 13.467 1.782 25.156 9.658 31.83 21.445 2.49 4.398 4.022 8.783 4.924 14.101.462 2.718.504 3.651.394 8.674-.133 6.108-.472 8.897-1.625 13.37-1.119 4.338-2.447 7.454-4.136 9.703-1.975 2.63-6.933 7.697-9.764 9.977-10.373 8.354-23.245 13.056-36.38 13.287-2.437.043-4.97.035-5.629-.019zM99.08 138.724c.21-.164.946-1.862 1.636-3.772.69-1.91 1.306-3.61 1.369-3.777.088-.236 1.276-.29 5.268-.24l5.155.065 1.294 3.712c.712 2.042 1.472 3.848 1.69 4.012.232.175 1.112.3 2.118.3 1.087 0 1.81-.11 1.965-.3.174-.214-1.17-4.09-4.715-13.601-2.728-7.316-5.04-13.433-5.14-13.593-.11-.178-.764-.29-1.69-.29h-1.51l-.472 1.137c-.26.626-2.77 6.78-5.58 13.675-4.13 10.136-5.043 12.577-4.77 12.75.507.321 2.946.265 3.382-.078zm4.501-11.195c0-.13.417-1.343.927-2.695.509-1.351 1.382-3.838 1.94-5.526.559-1.688 1.05-3.034 1.092-2.992.108.108 3.706 11.05 3.706 11.27 0 .099-1.725.18-3.832.18-2.371 0-3.833-.09-3.833-.237zm30.18 11.243c4.71-.751 7.665-3.871 7.665-8.093 0-2.941-1.69-5.242-4.638-6.317-1.422-.518-1.424-.52-.851-.893 2.366-1.54 3.589-3.42 3.758-5.781.155-2.165-.334-3.482-1.755-4.733-1.747-1.538-2.788-1.736-8.735-1.66l-5.145.064-.062 13.637c-.048 10.752.002 13.678.24 13.83.439.278 7.697.237 9.523-.054zm-5.569-2.996c-.099-.102-.18-2.323-.18-4.936v-4.75h2.17c2.938 0 4.088.326 5.384 1.528 2.49 2.308 1.911 6.033-1.184 7.628-.757.39-1.554.53-3.495.61-1.384.058-2.596.022-2.695-.08zm0-12.933c-.099-.103-.18-2.048-.18-4.322 0-3.884.029-4.145.465-4.283.603-.191 3.99.06 4.945.368 1.167.375 2.052 1.464 2.19 2.694.335 2.965-2.023 5.302-5.647 5.598-.876.072-1.674.047-1.773-.055zm22.915 16.035c.339-.13.378-1.578.378-13.902V111.22l-1.976.07-1.976.07-.062 13.532c-.071 15.36-.245 14.132 2.005 14.132.688 0 1.422-.066 1.63-.146z" fill="#487994"/>
        <path d="M112.563 171.608c-4.181-.468-9.174-1.469-12.814-2.568-13.238-3.998-24.715-12.513-32.355-24.005-.911-1.37-1.657-2.576-1.657-2.678 0-.102.62-.25 1.377-.331 5.662-.603 7.476-1.05 10.414-2.571 3.333-1.725 5.762-4.985 6.527-8.757.18-.888.395-2.908.477-4.489.506-9.716 1.687-15.12 4.675-21.38 9.188-19.246 31.8-28.603 52.16-21.583 13.052 4.501 22.986 14.839 26.99 28.087 1.394 4.617 1.68 6.8 1.668 12.72-.016 7.192-.623 11.538-2.395 17.132-1.247 3.939-1.994 5.393-4.18 8.141-8.63 10.85-21.417 18.553-35.017 21.093-2.141.4-4.365.832-4.941.96-1.393.31-8.816.466-10.929.23zm-11.822-36.417c.744-2.042 1.478-3.85 1.631-4.016.212-.232 1.443-.29 5.115-.24l4.837.065 1.019 2.874c.56 1.58 1.21 3.36 1.444 3.952l.426 1.078 2.212.069c1.775.055 2.24-.001 2.348-.285.13-.337-9.55-26.767-10.03-27.389-.14-.179-.796-.3-1.635-.3-1.192 0-1.453.081-1.746.54-.263.413-8.173 19.673-10.574 25.748-.627 1.585-.437 1.769 1.742 1.687l1.86-.07 1.351-3.713zm3.001-7.604c-.058-.1.3-1.22.797-2.492a137.327 137.327 0 0 0 1.914-5.344c.556-1.668 1.046-2.998 1.089-2.955.2.2 3.603 10.752 3.5 10.854-.19.192-7.184.131-7.3-.063zm31.054 11.079c2.854-.744 4.962-2.35 6.086-4.638.546-1.112.663-1.67.663-3.148 0-3.157-1.51-5.341-4.548-6.576l-1.28-.52 1.118-.826c3.608-2.666 4.14-7.728 1.078-10.252-1.642-1.353-2.544-1.532-8.29-1.648-3.887-.079-5.307-.03-5.57.187-.302.251-.352 2.198-.352 13.748 0 10.146.07 13.527.287 13.743.447.447 9.039.39 10.808-.07zm-6.677-3.303c-.065-.169-.088-2.297-.052-4.73l.065-4.424h2.395c2.183 0 2.523.064 3.833.719 1.98.99 2.56 2.005 2.462 4.312-.087 2.073-.626 2.931-2.391 3.811-1.096.546-1.536.62-3.719.62-1.792 0-2.508-.085-2.593-.308zm0-12.936c-.066-.17-.09-2.029-.053-4.131l.066-3.823h2.515c2.195 0 2.626.069 3.385.54 1.017.633 1.487 1.609 1.465 3.042-.04 2.61-2.57 4.665-5.756 4.676-1.011.004-1.543-.096-1.623-.304zm23.46 16.218c.08-.209.146-6.393.146-13.743 0-11.197-.055-13.41-.337-13.644-.21-.174-1.006-.253-2.096-.21l-1.759.072-.062 13.652c-.034 7.51-.01 13.788.053 13.952.078.205.714.3 2.012.3 1.51 0 1.928-.078 2.044-.38z" fill="#246888"/>
        <path d="M113.287 171.66c-1.153-.06-1.561-.155-1.317-.31.253-.16.072-.224-.634-.227-1.441-.005-6.503-.9-9.609-1.697-3.7-.95-6.73-2.105-10.96-4.173-9.409-4.601-17.262-11.464-23.162-20.24l-1.689-2.512.809-.159c.444-.087 1.94-.284 3.323-.438 7.89-.877 12.956-4.851 14.239-11.166.184-.91.458-3.754.608-6.32.15-2.565.49-5.951.757-7.524 1.194-7.03 3.934-13.52 8.02-18.996 1.769-2.369 5.932-6.56 8.112-8.166 11.61-8.55 26.215-10.855 39.582-6.246 6.52 2.248 12.582 6.192 17.14 11.15 6.448 7.016 10.18 15.222 11.2 24.627.305 2.82.173 9.024-.27 12.59-.553 4.456-2.057 10.102-3.634 13.643-1.244 2.792-6.888 9.027-11.562 12.772-6.837 5.48-15.237 9.609-23.45 11.528-2.868.67-6.893 1.322-8.195 1.327-.586.003-.814.077-.616.203.186.118-.642.262-2.036.354-2.306.153-3.308.15-6.656-.02zm-13.836-32.696c.131-.165.806-1.862 1.5-3.773.692-1.91 1.31-3.61 1.373-3.777.089-.235 1.229-.29 5.032-.24l4.917.065 1.289 3.695c.708 2.032 1.407 3.838 1.551 4.012.18.217.894.317 2.25.317 2.178 0 2.745-.126 2.745-.61 0-.176-1.838-5.258-4.084-11.292-5.755-15.458-5.954-15.967-6.393-16.301-.433-.33-2.642-.403-3.114-.103-.333.21-11.319 27.006-11.319 27.606 0 .21.072.453.16.54.297.298 3.84.177 4.093-.14zm4.487-11.856c.81-2.018 1.88-4.947 2.627-7.201.494-1.49.933-2.675.975-2.633.042.042.792 2.231 1.667 4.865.875 2.634 1.647 4.924 1.715 5.088.096.232-.697.3-3.514.3-3.37 0-3.626-.031-3.47-.42zm31.644 11.599c1.66-.543 3.645-1.9 4.582-3.132 1.112-1.462 1.567-2.868 1.573-4.853.005-1.393-.118-1.968-.656-3.067-.754-1.542-2.48-3.064-3.982-3.514-.854-.256-1.296-.686-.704-.686.427 0 2.168-1.732 2.75-2.735.68-1.174 1.113-3.346.917-4.61-.427-2.763-2.6-4.615-5.991-5.105-2.083-.301-9.658-.309-10.13-.01-.313.197-.36 2.02-.36 14.017 0 11.992.047 13.82.36 14.028.622.414 10.195.14 11.641-.333zm-7.15-3.168c-.1-.103-.18-2.218-.18-4.699v-4.51h1.992c1.096 0 2.534.16 3.195.356 4.147 1.232 4.549 6.785.61 8.431-.907.379-5.34.712-5.617.422zm0-12.938c-.1-.101-.18-1.945-.18-4.096v-3.912h2.163c3.236 0 4.618.77 4.913 2.736.298 1.992-1.308 4.248-3.49 4.902-1.31.392-3.186.596-3.406.37zm23.285 16.199c.162-.304.247-5.088.247-13.875 0-11.873-.043-13.455-.376-13.788-.265-.265-.837-.377-1.932-.377-2.749 0-2.482-1.528-2.482 14.212 0 10.349.07 13.787.287 14.004.175.174 1.02.287 2.148.287 1.593 0 1.895-.066 2.108-.463z" fill="#004E7B"/>
        <g fill="#0D557E">
            <path d="M266 111.983V82h321.249v59.966H266v-29.983zm246.79 26.32c5.103-2.133 7.035-6.572 7.766-17.846l.618-9.545h-14.238v3.213c0 2.713.417 3.212 2.677 3.212 2.52 0 2.678.335 2.678 5.685 0 6.73-1.733 9.661-5.405 9.14-4.35-.615-5.61-5.061-5.61-19.795 0-10.46.364-13.698 1.784-15.865 2.48-3.785 6.727-3.673 8.4.222.695 1.62 1.33 3.067 1.41 3.217.079.15 1.668-.258 3.53-.908 4.253-1.482 4.36-3.985.357-8.27-6.211-6.65-16.831-5.39-20.962 2.486-1.852 3.53-2.307 6.614-2.604 17.652-.494 18.319 1.386 24.093 8.927 27.422 4.167 1.84 6.23 1.836 10.671-.02zm33.738-.85c3.792-2.369 4.312-5.768 4.312-28.197V87.354h-7.495v20.416c0 12.026-.456 21.268-1.109 22.488-1.239 2.315-5.277 2.753-7.244.786-.913-.913-1.285-7.424-1.285-22.487V87.354h-7.496v22.055c0 24.561.676 27.414 6.944 29.33 3.783 1.155 10.497.51 13.373-1.286zm-269.82-12.084c0-12.672-.114-13.386-2.141-13.386-2.028 0-2.142.714-2.142 13.386 0 12.671.114 13.385 2.142 13.385 2.027 0 2.141-.714 2.141-13.385zm6.425 0v-13.386h-5.354v26.771h5.354v-13.385zm5.354 0c0-12.672-.114-13.386-2.141-13.386-2.028 0-2.142.714-2.142 13.386 0 12.671.114 13.385 2.142 13.385 2.027 0 2.141-.714 2.141-13.385zm6.425 0c0-12.672-.114-13.386-2.141-13.386-2.028 0-2.142.714-2.142 13.386 0 12.671.114 13.385 2.142 13.385 2.027 0 2.141-.714 2.141-13.385zm24.63 11.243c0-2.012-.714-2.141-11.78-2.141-9.102 0-11.779.324-11.779 1.427 0 2.562 1.284 2.856 12.493 2.856 10.352 0 11.065-.138 11.065-2.142zm15.83-9.905l.304-11.511h5.318c5.195 0 5.318-.075 5.318-3.213 0-3.14-.119-3.212-5.354-3.212h-5.354V93.779h5.89c5.83 0 5.889-.032 5.889-3.212v-3.213h-20.346V138.883l4.016-.332 4.015-.333.304-11.51zm17.668 6.96l.894-4.55h10.451l.723 4.818c.716 4.777.76 4.819 4.956 4.819 3.535 0 4.14-.31 3.664-1.874-.313-1.03-1.547-6.21-2.742-11.511-3.016-13.375-7.408-32.714-8.087-35.605-.426-1.818-1.331-2.41-3.685-2.41-3.502 0-3.163-.731-6.449 13.92-3.918 17.471-7.229 31.756-8.268 35.676-.442 1.668.066 1.896 3.567 1.606 3.87-.32 4.128-.574 4.976-4.889zm3.164-17.133l1.786-10.976.785-4.819 1.193 5.89c.656 3.24 1.495 8.179 1.865 10.976l.673 5.086h-7.303l1-6.157zm28.89 10.708l.303-11.51 4.337 11.243 4.337 11.243 3.962.333c2.18.183 3.962-.1 3.962-.626 0-.527-1.927-5.696-4.283-11.486-4.447-10.93-5.034-13.385-3.197-13.385 2.26 0 5.33-6.963 5.335-12.1.007-10.114-3.985-13.6-15.574-13.6h-6.91v51.4h7.423l.304-11.512zm-.232-25.432c0-7.02.243-8.03 1.927-8.03 3.16 0 4.498 2.27 4.498 7.633 0 5.17-1.893 8.429-4.895 8.429-1.19 0-1.53-1.785-1.53-8.032zm27.352 20.614c.47-8.982 1.029-15.608 1.241-14.724.212.883 1.696 8.111 3.298 16.062 2.85 14.15 2.973 14.464 5.856 14.795 1.62.187 2.944-.116 2.944-.672s1.18-6.732 2.623-13.724c1.443-6.992 2.823-13.918 3.067-15.39.244-1.473.512.696.596 4.818.084 4.123.462 11.472.84 16.33l.688 8.835h3.589c4.414 0 4.368.874 1.461-27.842-1.163-11.484-2.123-21.483-2.135-22.22-.012-.811-1.495-1.338-3.768-1.338-2.062 0-3.748.382-3.748.848 0 .466-1.399 7.728-3.109 16.137-2.92 14.366-4.395 19.25-4.38 14.515.003-1.128-1.022-6.87-2.277-12.76-4.156-19.493-3.86-18.74-7.343-18.74-2.841 0-3.159.387-3.733 4.551-.653 4.742-2.288 22.822-3.437 38.015l-.668 8.834h7.54l.855-16.33zm41.181-9.37v-25.7h-7.496v51.4h7.496v-25.7zm15.045 8.834l.054-16.865L474 121.888l5.505 16.866h7.086v-51.4h-7.496l-.078 15.795-.077 15.795-5.035-15.527-5.035-15.527-3.99-.333-3.99-.332V138.754h7.497l.053-16.866zm96.38 4.284l.06-12.583 5.027 12.577 5.027 12.577 4.016.005c2.208.003 4.015-.44 4.015-.983 0-.544-2.413-6.52-5.362-13.278l-5.362-12.29 2.274-5.193c1.25-2.856 3.636-8.446 5.301-12.422l3.028-7.228h-8.094l-4.952 12.047-4.952 12.047-.043-12.047-.042-12.047h-7.496v51.4h7.496l.06-12.582zm-245.279 3.979c0-2.074-.55-2.163-11.498-1.874-9.958.263-11.547.555-11.858 2.178-.324 1.693.783 1.874 11.499 1.874 11.21 0 11.857-.12 11.857-2.178zm-.193-5.586c-.325-2.289-.872-2.424-10.956-2.718-10.75-.312-13.221.396-12.05 3.45.53 1.377 2.678 1.678 11.997 1.678 11.16 0 11.346-.041 11.01-2.41zm.193-6.157c0-2.012-.713-2.141-11.779-2.141-11.065 0-11.779.13-11.779 2.141 0 2.012.714 2.142 11.78 2.142 11.065 0 11.778-.13 11.778-2.142zm-18.204-17.743c0-13.346-.02-13.457-2.409-13.118-2.309.328-2.422.831-2.715 12.053-.347 13.258-.09 14.525 2.95 14.525 2.07 0 2.174-.645 2.174-13.46zm6.19-.193l.301-13.118h-5.42v13.46c0 13.346.02 13.457 2.41 13.118 2.33-.331 2.419-.777 2.71-13.46zm5.59.267c0-12.671-.115-13.385-2.142-13.385-2.028 0-2.142.714-2.142 13.385 0 12.672.114 13.386 2.142 13.386 2.027 0 2.141-.714 2.141-13.386zm6.424 0V87.354h-5.354v12.672c0 6.969.322 12.992.714 13.385.393.393 1.597.714 2.677.714 1.8 0 1.963-1.12 1.963-13.386zm-24.629 6.96c0-2.005-.714-2.14-11.243-2.14-10.53 0-11.244.135-11.244 2.14 0 2.007.714 2.143 11.244 2.143s11.243-.136 11.243-2.142zm-.193-6.156c.336-2.369.149-2.41-10.976-2.41h-11.318v5.429l10.976-.305c10.46-.29 10.992-.418 11.318-2.714zm0-5.89c-.326-2.296-.858-2.424-11.318-2.714l-10.976-.306v5.429h11.318c11.125 0 11.312-.04 10.976-2.409zm.193-6.157c0-2.006-.714-2.142-11.243-2.142-10.53 0-11.244.136-11.244 2.142 0 2.005.714 2.141 11.244 2.141s11.243-.136 11.243-2.141z"/>
        </g>
        <g fill="#000">
            <path d="M740.329 171.072c-1.067-1.067-.933-1.888.45-2.76 1.024-.646 2.712.016 3.114 1.222.221.663-1.347 2.466-2.144 2.466-.27 0-.91-.418-1.42-.928zm-58.58-.46c-2.593-1.157-4.73-3.757-5.518-6.713-1.345-5.044 1.337-10.098 6.504-12.253 2.688-1.12 4.627-1.122 8.383-.007 2.55.758 2.975 1.088 2.975 2.312 0 1.407-.025 1.415-1.753.521-2.817-1.457-6.826-1.653-9.144-.448-7.664 3.983-5.132 15.114 3.433 15.095 4.483-.01 5.168-.398 5.168-2.928 0-2.165-.058-2.23-2.01-2.23-1.627 0-2.01-.218-2.01-1.148 0-1.009.383-1.148 3.158-1.148h3.158V170.224l-2.153.597c-2.962.823-8.116.717-10.191-.209zm21.434-.35c-3.546-1.873-4.783-4.197-4.783-8.985 0-3.282.244-4.451 1.2-5.742 4.152-5.602 12.099-6.256 16.96-1.395 3.584 3.584 4.109 9.254 1.223 13.221-2.748 3.777-10.155 5.25-14.6 2.901zm11.37-3.6c2.218-2.42 2.783-4.208 2.24-7.097-.996-5.314-7.408-7.75-12.803-4.863-1.844.987-3.75 5.44-3.285 7.673.951 4.56 4.14 6.936 8.842 6.588 2.695-.2 3.361-.506 5.006-2.301zm10.983-4.28c-5.145-12.105-4.87-11.19-3.295-10.959 1.092.16 1.826 1.377 4.188 6.94 1.576 3.711 3.019 6.744 3.207 6.741.188-.003 1.634-3.1 3.213-6.884 2.45-5.87 3.06-6.879 4.153-6.884l1.283-.006-.995 2.468c-3.558 8.823-7.357 17.62-7.611 17.623-.165.002-2.03-4.065-4.143-9.038zm26.498 7.735c-2.996-2.019-3.377-3.31-3.387-11.466l-.008-7.32h2.871v7.49c0 7.186.057 7.547 1.409 8.899 1.988 1.988 6.451 2 8.75.024l1.611-1.385v-7.513c0-7.408.018-7.513 1.292-7.514 1.273-.002 1.292.107 1.283 7.319-.01 8.156-.39 9.447-3.386 11.466-2.716 1.83-7.72 1.83-10.435 0zm17.849-8.739V151.33h1.435c1.406 0 1.436.093 1.459 4.45l.023 4.45 4.279-4.489c3.44-3.609 4.56-4.452 5.72-4.306 1.362.172 1.214.432-2.667 4.677l-4.108 4.495 5.387 5.41c5.02 5.04 5.277 5.409 3.769 5.409-1.235 0-2.864-1.155-6.879-4.879l-5.26-4.878-.166 4.878c-.162 4.756-.202 4.879-1.58 4.879h-1.412v-10.048zm-81.533-29.071c-2.428-8.652-5.645-16.41-8.947-21.57-1.114-1.743-1.947-3.235-1.85-3.316.097-.08 1.598-.607 3.335-1.169a210.457 210.457 0 0 0 3.732-1.233c.36-.133.504 1.391.385 4.102-.257 5.866.852 5.713 3.38-.467l.9-2.198 1.818 5.894c1 3.242 1.726 5.986 1.613 6.1-.114.113-1.395-.372-2.847-1.077-1.452-.706-2.805-1.119-3.006-.918-.483.483 1.792 4.245 4.02 6.647 3.722 4.014 8.11 4.749 11.188 1.873 2.325-2.171 2.544-6.031.454-7.995-1.715-1.611-2.987-1.577-4.689.124-1.565 1.566-2.02 1.062-2.02-2.24 0-3.045 2.739-4.89 6.034-4.062 1.413.354 1.401.31-.558-2.258-2.36-3.091-3.422-6.549-2.89-9.41.39-2.098 2.501-6.368 3.149-6.368.667 0 3.895 3.727 4.823 5.57 1.128 2.24 1.157 6.556.065 9.623-.94 2.64-.72 3.174.758 1.837.58-.525 1.873-.954 2.875-.954 2.558 0 4.117 1.74 4.117 4.593 0 2.42-.536 2.866-1.722 1.436-1.049-1.264-3.248-1.05-4.274.415-2.6 3.711.709 8.898 6.461 10.13 5.716 1.225 11.337-.64 13.253-4.394 1.406-2.757 2.13-7.305 1.25-7.85-.991-.612-5.528 1.833-7.439 4.009l-1.707 1.945-.294-1.553c-.16-.855-.463-3.848-.671-6.651l-.379-5.097 1.924 1.43c2.253 1.673 5.156 2.735 7.478 2.735 1.617 0 1.635-.033.835-1.579-.449-.868-2.005-3.193-3.458-5.167l-2.642-3.588h17.22l-2.642 3.588c-1.453 1.974-3.01 4.3-3.458 5.167-.8 1.546-.782 1.58.835 1.58 2.322 0 5.225-1.063 7.478-2.737l1.924-1.43-.379 5.098c-.208 2.803-.51 5.796-.672 6.65l-.293 1.554-1.708-1.945c-1.91-2.176-6.447-4.62-7.438-4.008-.88.544-.156 5.092 1.25 7.849 1.916 3.755 7.537 5.619 13.253 4.395 5.752-1.233 9.06-6.42 6.461-10.131-1.026-1.465-3.225-1.679-4.274-.415-1.186 1.43-1.722.983-1.722-1.436 0-2.854 1.559-4.593 4.117-4.593 1.002 0 2.295.43 2.875.954 1.478 1.337 1.699.803.758-1.837-1.092-3.067-1.063-7.384.065-9.624.928-1.842 4.156-5.57 4.823-5.57.648 0 2.76 4.271 3.15 6.368.53 2.862-.531 6.32-2.891 9.411-1.96 2.567-1.97 2.612-.558 2.258 3.295-.827 6.034 1.017 6.034 4.063 0 3.301-.455 3.805-2.02 2.24-1.728-1.728-3.175-1.741-4.77-.044-1.925 2.05-1.724 5.748.43 7.902 2.931 2.931 7.556 2.17 11.294-1.861 2.227-2.402 4.502-6.164 4.018-6.647-.2-.201-1.553.212-3.005.918-1.453.705-2.733 1.19-2.847 1.077-.113-.114.613-2.858 1.613-6.1l1.818-5.894.9 2.198c2.528 6.18 3.637 6.333 3.38.467-.119-2.71.024-4.235.385-4.102.316.116 1.995.67 3.732 1.233 1.737.562 3.234 1.085 3.326 1.16.092.076-.886 1.819-2.174 3.872-2.878 4.59-6.469 13.268-8.458 20.44l-1.495 5.388-3.207-.387c-24.761-2.984-52.274-2.984-77.032 0l-3.202.386-1.348-4.804zm-11.481-29.586c-3.326-1.317-4.86-5.433-3.185-8.544 1.529-2.84 5.55-4.06 8.384-2.543 1.469.787 2.839 3.53 2.839 5.687 0 3.45-4.809 6.68-8.038 5.4zm104.72-.157c-3.218-1.37-4.508-5.36-2.8-8.662 2.988-5.779 12.185-2.315 10.975 4.134-.676 3.605-4.879 5.933-8.175 4.528zm-53.711-12.107c-1.524-.805-2.363-1.798-3.058-3.616l-.957-2.506 2.611-7.973c1.437-4.385 2.392-8.192 2.124-8.46-.268-.268-2.062.307-3.987 1.279-1.924.971-3.636 1.766-3.803 1.766-.167 0-.303-2.325-.303-5.167 0-2.842.177-5.168.393-5.168.216 0 1.91.426 3.762.946 1.976.554 3.573.732 3.86.43.272-.287-.198-2.608-1.064-5.251L725.902 52h5.34c2.937 0 5.336.194 5.33.43-.004.237-.634 2.448-1.4 4.912-1.633 5.256-1.42 5.536 3.179 4.171 1.667-.495 3.244-.9 3.502-.9.259 0 .47 2.325.47 5.167 0 2.842-.137 5.167-.303 5.167-.167 0-1.879-.795-3.803-1.766-1.925-.972-3.72-1.547-3.987-1.28-.268.269.661 3.996 2.065 8.283 2.14 6.535 2.465 8.1 2.011 9.684-.637 2.222-1.985 3.835-4.135 4.947-2.074 1.072-3.767.976-6.293-.358zm-48.165-4.169c-1.511-1.19-2.844-3.476-2.844-4.875 0-3.626 4.042-6.99 7.402-6.16 4.613 1.139 6.28 6.79 2.977 10.093-1.348 1.347-2.169 1.674-4.163 1.66-1.366-.01-2.884-.333-3.372-.718zm95.867-.942c-4.622-4.623.481-12.132 6.528-9.605 3.433 1.434 4.843 5.57 2.873 8.428-1.557 2.26-2.587 2.817-5.238 2.837-1.994.014-2.816-.313-4.163-1.66zm-65.226-2.12c-5.723-2.822-3.526-11.13 2.944-11.13 2.69 0 5.103 1.945 5.772 4.655.593 2.398-1.06 5.581-3.406 6.562-2.501 1.045-3.034 1.036-5.31-.086zm36.684.062c-2.22-.965-3.853-4.218-3.28-6.537 1.487-6.023 9.814-6.28 11.767-.362.872 2.643-.48 5.596-3.142 6.859-2.304 1.093-2.91 1.098-5.345.04zm-53.863-6.255c-2.716-2.716-2.716-5.437 0-8.153 4.062-4.061 10.105-1.401 10.105 4.448 0 1.228-.585 2.338-1.952 3.705-2.716 2.717-5.437 2.717-8.153 0zm68.325 0c-4.062-4.061-1.402-10.105 4.448-10.105 2.624 0 5.657 3.233 5.657 6.029 0 1.65-.435 2.56-1.952 4.076-2.716 2.717-5.437 2.717-8.153 0z"/>
        </g>
        <g>
            <path d="M900.091 138.598c-.125-.125-.112-18.915.013-19.106.14-.213 2.964-2.045 4.596-2.982 5.717-3.281 10.526-4.942 16.05-5.543 1.827-.199 6.446-.198 8.397.002 5.898.605 9.519 1.52 20.819 5.26 3.942 1.305 8.089 2.622 9.215 2.927 9.94 2.687 16.837 2.306 24.465-1.354 3.21-1.54 5.806-3.102 12.6-7.58 9.613-6.338 15.225-9.02 21.376-10.22a31.164 31.164 0 0 1 13.3.267c2.256.534 3.648.992 3.74 1.23.045.119.082 2.021.082 4.227 0 3.827-.012 4.018-.264 4.153-.145.078-.46.141-.7.141-1.584 0-5.619.874-8.295 1.796-4.779 1.647-8.71 3.769-16.816 9.076-9.24 6.05-12.248 7.706-16.587 9.132-3.127 1.028-5.717 1.43-9.212 1.43-5.856 0-9.815-.914-23.143-5.343-10.535-3.5-16.28-4.658-23.14-4.664-5.282-.005-9.635.694-14.342 2.303-7.336 2.507-13.668 6.624-19.913 12.946-1.083 1.097-2.01 1.993-2.06 1.993a.314.314 0 0 1-.181-.09zm60.114-23.536c-1.698-.185-4.7-.752-6.867-1.297-2.455-.619-4.438-1.24-11.905-3.728-7.756-2.585-11.127-3.513-15.43-4.25-5.444-.93-11.406-.878-16.105.142-2.701.587-6.42 1.878-8.718 3.027-.44.22-.885.367-.99.327-.159-.061-.19-1.135-.19-6.557 0-6.43.002-6.486.284-6.636.45-.241 7.076-.34 9.272-.138 5.693.521 9.728 1.522 20.41 5.058 8.884 2.94 11.828 3.75 16.04 4.406 2.455.383 7.285.41 9.352.052 5.858-1.014 10.024-2.919 18.493-8.457 8.198-5.36 10.78-6.923 14.135-8.562 8.703-4.247 16.383-5.135 24.696-2.852 1.75.48 3.797 1.237 6.92 2.555 3.831 1.618 8.023 2.839 12.743 3.712 1.201.223 2.224.48 2.285.577.06.095.11 1.45.112 3.01.002 2.356-.032 2.85-.196 2.913-.233.09-2.121-.605-4.239-1.56-2.683-1.208-5.926-2.167-9.17-2.71-2.266-.38-7.293-.346-9.601.064-3.769.67-6.93 1.72-10.717 3.561-3.792 1.844-5.83 3.061-12.888 7.696-9.7 6.37-13.938 8.425-19.399 9.406-1.799.324-6.356.455-8.327.241zm-18.362-16.105c-2.89-.193-6.561-.894-10.307-1.97-.939-.269-4.748-1.497-8.464-2.73-10.977-3.64-15.068-4.652-20.751-5.133-1.089-.093-2.056-.228-2.15-.301-.129-.1-.171-.989-.171-3.602 0-3.001.028-3.48.21-3.55.336-.128 2.358.49 10.37 3.169 9.234 3.088 11.77 3.804 15.742 4.444 2.475.4 6.78.497 9.002.204 3.48-.46 6.72-1.51 10.342-3.354 2.693-1.37 4.672-2.574 10.102-6.146 7.213-4.745 9.61-6.183 13.106-7.863 7.603-3.654 14.583-4.697 21.774-3.254.939.188 2.414.55 3.278.805 1.453.429 2.285.746 6.937 2.65 5.448 2.23 11.442 3.596 18.727 4.267 2.45.225 10.018.226 12.75 0 1.804-.148 2.189-.148 2.285.003.186.295.15 9.312-.04 9.5-.09.092-.395.134-.716.1-.307-.034-1.296-.127-2.197-.208-4.222-.377-9.354-1.313-13.078-2.383-2.601-.748-4.464-1.416-7.331-2.627-3.797-1.605-6.127-2.322-9.488-2.92-2.383-.423-7.233-.46-9.557-.074-4.351.725-7.79 1.916-12.411 4.299-3.053 1.574-4.851 2.667-10.933 6.647-8.373 5.478-10.996 6.943-15.154 8.461-3.463 1.265-7.806 1.838-11.877 1.566zm-25.051-16.31c-4.006-.45-7.12-1.181-13.16-3.091-1.66-.525-3.156-1.043-3.325-1.152-.301-.195-.307-.25-.307-2.862 0-2.186.035-2.677.196-2.738.107-.042.983.06 1.945.224 2.502.427 7.092.525 9.612.204 3.47-.441 6.045-1.259 9.885-3.139 2.78-1.36 5.031-2.703 10.034-5.982 6.981-4.576 9.315-5.986 12.765-7.716 7.927-3.975 15.03-5.12 22.54-3.636 2.85.563 4.506 1.12 9.815 3.308 12.115 4.99 27.533 5.982 43.686 2.81 4.36-.855 8.921-2.044 12.48-3.251 1.07-.364 1.466-.445 1.603-.331.148.122.183 1.32.18 6.244 0 3.35-.056 6.178-.122 6.283-.223.352-6.41 1.4-10.933 1.85-3.16.315-8.105.507-10.648.414-9.9-.364-17.104-1.884-25.486-5.375-2.93-1.22-5.354-2.033-7.363-2.469-8.1-1.755-15.335-.602-23.875 3.805-3.046 1.572-4.842 2.665-10.984 6.685-6.295 4.119-8.297 5.324-11.269 6.781-5.783 2.837-11.18 3.816-17.27 3.133z" fill="#D6DF23"/>
            <path d="M934.584 171.919c-2.705-.49-4.723-2.001-5.926-4.437-.36-.73-.723-1.719-.84-2.292-.27-1.313-.267-3.562.007-4.745.78-3.358 3.282-5.645 6.64-6.066 3.279-.411 5.828 1.28 6.895 4.573.292.899.37 1.453.426 2.995.055 1.517.032 1.915-.12 2.011-.103.066-2.178.12-4.61.122l-4.422.002.075.827c.103 1.133.648 2.207 1.373 2.706 1.586 1.091 3.182 1.08 5.217-.04.49-.27.968-.49 1.06-.49.197 0 1.324 2.199 1.324 2.582 0 .471-2.013 1.558-3.69 1.993-.864.224-2.795.37-3.41.259zm2.894-11.933c-.05-1.096-.443-1.973-1.018-2.27-.63-.326-2.088-.21-2.682.213-.553.393-.964 1.27-1.068 2.276l-.077.743 2.443-.037 2.443-.037-.04-.888zM967.91 171.855c-1.056-.189-2.512-.72-3.406-1.245-1.15-.674-2.981-2.574-3.686-3.825-1.264-2.244-1.712-4.139-1.707-7.208.005-2.721.225-3.713 1.3-5.87.622-1.246.886-1.605 2.017-2.74 1.474-1.48 2.704-2.213 4.587-2.736 1.353-.375 3.49-.404 4.907-.066 3.66.874 6.665 3.96 7.727 7.938.402 1.506.503 4.458.21 6.136-.548 3.14-1.949 5.75-4.016 7.481-.914.767-2.622 1.643-3.785 1.942-1.03.265-3.184.366-4.147.193zm3.602-4.411c1.716-.785 2.762-2.664 3.203-5.751.411-2.883-.115-6-1.321-7.817-1.315-1.982-3.795-2.613-6.006-1.529-.952.466-1.575 1.119-2.212 2.313-1.743 3.27-1.293 9.325.873 11.722.55.61 1.606 1.213 2.422 1.386.903.19 2.224.05 3.041-.324zM1027.826 171.795c-2.246-.51-4.298-2.174-5.318-4.315-.85-1.782-1.03-2.628-1.017-4.763.01-1.607.057-1.985.373-2.946 1.004-3.06 3.255-4.948 6.425-5.389 3.164-.44 5.768 1.221 6.835 4.36.564 1.658.84 4.792.456 5.176-.12.12-1.345.164-4.659.164h-4.495l.092.694a7.89 7.89 0 0 0 .365 1.425c.848 2.266 3.942 2.884 6.457 1.29.351-.223.73-.406.84-.406.117 0 .467.536.841 1.29.623 1.253.634 1.298.395 1.562-.385.426-2.238 1.334-3.362 1.647-1.367.381-3.098.468-4.228.211zm3.522-11.563c.056-.869-.18-1.67-.648-2.193-.359-.402-.464-.439-1.392-.484-.877-.043-1.064-.009-1.479.273-.65.441-1.05 1.08-1.235 1.97-.249 1.198-.338 1.156 2.355 1.113l2.358-.037.041-.642zM982.552 171.283c-.21-.155-.234-.76-.265-6.792l-.034-6.62-.888-.069-.887-.068-.263-1.307c-.145-.718-.224-1.41-.175-1.535.072-.189.282-.23 1.164-.23h1.076l.083-1.058c.19-2.43 1.29-4.163 3.218-5.067.68-.318.935-.36 2.23-.36 1.118 0 1.51.049 1.666.205.26.261.935 3.022.778 3.179-.066.066-.379.047-.71-.042-1.688-.454-2.72.428-2.72 2.327v.816H992.15v-.664c0-2.409 1.245-4.535 3.178-5.428.768-.355.99-.393 2.312-.393 1.124 0 1.507.048 1.654.205.21.225.774 2.37.774 2.946 0 .326-.037.354-.375.273-2.099-.503-3.037.158-3.037 2.14v.921h4.295c4.107 0 4.302.012 4.437.264.092.173.14 2.985.14 8.182 0 7.015-.023 7.941-.214 8.131-.175.176-.574.215-2.174.215s-2-.04-2.175-.215c-.189-.189-.214-.998-.214-6.83v-6.614l-2.014.038-2.014.037-.034 6.621c-.031 6.032-.055 6.637-.265 6.792-.278.206-3.956.238-4.274.037-.177-.111-.21-1.05-.243-6.827l-.037-6.697-2.488.037-2.488.037-.034 6.621c-.032 6.032-.055 6.637-.265 6.792-.157.116-.803.17-2.022.17-1.218 0-1.864-.054-2.021-.17zM900.07 171.457c-.12-.195 2.127-23.385 2.286-23.587.1-.126.85-.17 2.9-.17 2.048 0 2.8.044 2.902.17.076.094 1.07 3.458 2.21 7.475 2.461 8.67 2.181 7.765 2.323 7.508.11-.2 1.349-4.528 3.283-11.464.533-1.913 1.043-3.524 1.132-3.581.09-.057 1.44-.105 3-.106 2.812-.002 2.836 0 2.962.305.172.417 2.123 23.064 2.012 23.353-.078.202-.345.23-2.192.23-1.517 0-2.143-.047-2.244-.17-.077-.094-.394-3.427-.705-7.406-.574-7.36-.655-8.204-.776-8.083-.037.038-1.014 3.49-2.17 7.672-1.155 4.182-2.172 7.69-2.26 7.795-.217.262-4.12.281-4.318.022-.071-.094-1.068-3.58-2.214-7.748-1.147-4.167-2.14-7.635-2.208-7.706-.075-.08-.123.001-.124.205-.004.793-1.224 15.167-1.298 15.287-.11.176-4.392.175-4.5-.001zM1013.584 171.51c-2.26-.595-4.034-2.09-5.09-4.288-.828-1.724-1.114-3.066-1.015-4.766.241-4.133 2.89-7.356 6.68-8.126 1.809-.368 3.911-.18 4.262.381.1.161.356 1.014.568 1.896.441 1.84.396 2.024-.417 1.684-.28-.117-.895-.28-1.369-.362-1.508-.263-3.167.363-3.943 1.488-1.462 2.117-1.254 5.691.433 7.441.853.885 1.425 1.114 2.758 1.108.989-.005 1.279-.064 1.966-.395.964-.465.926-.495 1.51 1.209.472 1.375.447 1.466-.553 2.025-1.608.898-3.97 1.186-5.79.706zM947.28 171.866c-1.158-.247-2.189-.95-2.717-1.852-.762-1.3-.788-1.507-.87-7.024l-.075-5.12-.888-.068-.887-.068-.263-1.307c-.145-.718-.223-1.41-.175-1.535.072-.189.283-.23 1.185-.23h1.096v-3.556l.35-.133c.528-.2 3.78-.17 4.058.037.188.14.235.47.265 1.877l.037 1.707 1.386.039c.881.024 1.436.099 1.52.204.177.218.712 2.19.712 2.621v.336l-1.81.038-1.808.038.004 4.369c.004 4.692.06 5.18.694 5.932.288.342.45.416.918.413.313-.002.836-.124 1.163-.273.328-.149.678-.27.78-.27.17 0 .61 1.22.822 2.28.107.535-.183.748-1.65 1.214-1.2.38-2.924.529-3.847.331z" fill="#000"/>
        </g>
        <g fill="#000">
            <path d="M1197.19 171.895c-1.613-.059-1.79-.11-2.558-.738-.928-.759-1.31-1.583-1.443-3.11-.087-1.003.003-1.106.966-1.106.907 0 1.012.102 1.013.994 0 .837.134 1.34.461 1.728.35.415.851.561 1.916.56.81-.002.97-.034 1.44-.291.723-.395.937-.844.937-1.959 0-1.234-.165-1.563-.98-1.952a16.814 16.814 0 0 0-1.523-.606c-3.16-1.068-3.933-1.801-4.05-3.842-.147-2.574 1.479-4.287 4.075-4.293 1.354-.003 2.228.297 2.995 1.029.504.48.623.668.845 1.333.446 1.34.316 1.834-.483 1.837a3.273 3.273 0 0 0-.636.058c-.303.081-.546-.206-.548-.649-.004-.568-.331-1.179-.825-1.537-.43-.312-.456-.318-1.415-.285-.918.031-1.001.052-1.366.347-.512.412-.665.888-.624 1.93.028.715.067.863.286 1.101.277.3.977.645 2.074 1.02 1.665.57 2.489.985 3.147 1.587.56.513.67.675.848 1.25.336 1.089.23 2.476-.273 3.565-.092.2-.47.66-.84 1.021-.955.936-1.452 1.081-3.438 1.008zm10.427-1.337c-.051-.125-.168-.683-.26-1.24-.093-.556-.324-1.79-.514-2.741-.19-.951-.458-2.34-.595-3.086-.136-.746-.317-1.694-.401-2.108a63.19 63.19 0 0 1-.318-1.72c-.09-.532-.175-.98-.19-.996-.013-.015-.679.088-1.479.228-1.82.32-1.996.322-2.104.027-.177-.478-.213-1.05-.079-1.234.143-.195.263-.224 3.608-.862 1.14-.218 2.68-.512 3.421-.655 1.72-.33 1.773-.308 1.903.799.046.384.026.557-.068.615-.072.044-.836.21-1.697.366-.862.157-1.577.298-1.59.312-.036.04 1.242 6.852 1.674 8.93.213 1.024.505 2.775.505 3.027 0 .2-.062.271-.278.316-.153.031-.443.1-.644.153-.575.152-.793.12-.894-.13zm-25.96-.569a15.16 15.16 0 0 1-1.063-.364c-1.827-.69-2.821-2.54-2.544-4.733.266-2.098 1.297-5.521 2.086-6.925.52-.925 1.376-1.793 2.186-2.22.5-.263.645-.29 1.563-.29 1.086 0 1.743.18 2.57.702.59.372 1.297 1.297 1.5 1.963.307 1 .169 2.937-.22 3.086-.14.054-1.44-.272-1.558-.39-.033-.033-.048-.547-.033-1.142.03-1.274-.088-1.592-.772-2.08-.364-.26-.552-.318-1.14-.352-.88-.05-1.188.074-1.751.7-.753.838-1.379 2.331-2.093 5-.275 1.026-.327 1.403-.337 2.429-.01 1.066.017 1.273.22 1.698.34.717.962 1.084 1.838 1.084 1.092-.001 1.488-.358 2.275-2.053.25-.54.514-.988.586-.994.417-.039 1.46.28 1.532.468.067.175-.334 1.37-.713 2.124-.386.768-1.282 1.639-2.047 1.987-.685.313-1.558.439-2.086.302zm32.479-.66c-.152-.11-.225-.676-.516-3.965-.187-2.11-.452-5.066-.59-6.568-.287-3.14-.31-3.83-.131-3.968.163-.125 1.63-.636 1.825-.636.173 0 .552.428 1.392 1.569.7.95 1.145 1.542 1.564 2.081.167.215.554.735.86 1.156.306.421.693.941.86 1.156.415.534.802 1.05 1.942 2.588.537.723 1.244 1.669 1.573 2.1.328.432.582.861.564.954-.02.107-.314.27-.803.448-.696.252-.792.265-.984.13-.199-.14-.505-.53-1.833-2.342-.296-.403-.578-.734-.626-.734a.754.754 0 0 0-.265.101c-.096.055-.54.234-.985.397-1.183.433-2.394.901-2.433.94-.02.02.062.912.18 1.983.25 2.259.292 2.12-.757 2.5-.55.2-.69.218-.837.11zm2.228-6.793c1.518-.576 1.77-.69 1.77-.804 0-.066-.27-.504-.601-.972-.61-.86-.757-1.072-1.827-2.622-.753-1.09-1.144-1.622-1.169-1.592-.027.033.654 5.837.719 6.126.059.26.066.26 1.108-.136zm-43.634 3.89c-.375-.175-.632-.359-.632-.451 0-.086.094-.348.209-.582.115-.234.462-.994.77-1.69.309-.695.81-1.81 1.115-2.479a428.57 428.57 0 0 0 1.374-3.035c.25-.557.639-1.422.862-1.923 1.027-2.298 1.334-2.933 1.437-2.967.118-.04 1.18.356 1.391.517.18.138.158.38-.087.945-.238.549-1.694 3.809-2.366 5.3-.239.528-.65 1.439-.912 2.023-.263.585-.604 1.336-.758 1.67-.155.334-.356.787-.448 1.007-.09.22-.332.755-.535 1.189-.428.914-.46.924-1.42.476zm52.527-3.203a477.727 477.727 0 0 1-2.014-3.112c-.178-.278-.625-.968-.992-1.534a771.286 771.286 0 0 1-2.607-4.03 16.629 16.629 0 0 0-.587-.869 4.263 4.263 0 0 1-.375-.627c-.22-.461-.185-.507.939-1.24.944-.615 1.258-.674 1.645-.31.142.135.714.592 1.27 1.018 1.072.819 1.86 1.428 2.49 1.926.211.167.853.664 1.426 1.105.573.441 1.184.92 1.356 1.063.173.143.554.443.846.665.292.223.778.605 1.08.85.3.244.567.424.592.4.024-.025-.112-.293-.304-.597-.19-.303-.489-.78-.661-1.057-.173-.279-.413-.65-.534-.827-.12-.177-.58-.882-1.021-1.568a615.742 615.742 0 0 0-2.544-3.93c-1.1-1.685-1.1-1.678-.265-2.214.627-.402.888-.404 1.11-.007.095.169.52.84.943 1.492l1.659 2.551c.488.751 1.047 1.616 1.241 1.922.195.307.502.785.683 1.063 2.587 3.977 2.679 4.125 2.679 4.328 0 .187-1.914 1.49-2.189 1.49-.106 0-.404-.171-.663-.38-1-.807-1.587-1.268-2.612-2.051a159.173 159.173 0 0 1-2.527-1.97c-.212-.168-.919-.714-1.571-1.215-.653-.5-1.397-1.081-1.654-1.29-.257-.209-.503-.38-.547-.38-.085 0-.08.01.973 1.62a176.6 176.6 0 0 1 1.831 2.833c.264.417 1.09 1.692 1.836 2.833.745 1.14 1.356 2.148 1.356 2.24 0 .162-1.168.998-1.396.998-.064 0-.466-.535-.892-1.19zm-58.025.437c-.534-.351-1-.716-1.037-.812-.057-.146.368-2.287.494-2.491.024-.038.203-.747.398-1.574.195-.828.42-1.755.498-2.061.607-2.377 1.282-5.29 1.249-5.391-.023-.068-.17.082-.326.332-.665 1.06-1.269 1.99-1.447 2.226-.106.139-.322.48-.48.759a9.76 9.76 0 0 1-.477.758c-.104.14-.436.64-.739 1.113a52.437 52.437 0 0 1-.88 1.334c-.181.26-.558.849-.836 1.307-.278.459-.63.964-.78 1.124l-.275.29-.433-.217c-.56-.282-.89-.586-.89-.825 0-.105.257-.586.571-1.07l1.644-2.528c2.324-3.565 2.963-4.55 3.368-5.182.232-.362.503-.771.604-.91.1-.14.327-.504.504-.81.376-.651.779-1.113.97-1.113.2 0 2.027 1.203 2.094 1.379.071.185-.133 1.107-1.05 4.742a470.392 470.392 0 0 0-.957 3.845c-.133.557-.362 1.484-.508 2.062-.147.577-.251 1.095-.233 1.15.019.056.41-.484.868-1.2.947-1.482 1.792-2.78 3.413-5.25.621-.945 1.189-1.833 1.261-1.972.208-.4.728-1.012.86-1.012.216 0 1.364.802 1.364.954 0 .082-.129.344-.286.584a413.1 413.1 0 0 0-2.33 3.571c-.286.446-.612.946-.725 1.113-.113.167-.454.69-.757 1.164-.303.473-.645.997-.76 1.163-.114.167-.5.76-.855 1.316a29.492 29.492 0 0 1-.842 1.265 4.47 4.47 0 0 0-.358.57c-.221.43-.668.949-.811.941-.065-.003-.554-.293-1.088-.644zm-9.173-6.488c-.535-.552-.657-.89-.41-1.139.133-.132.624-1.003 1.311-2.322l.435-.836-1.362-1.365c-.75-.75-1.445-1.365-1.545-1.365-.1 0-.306.085-.457.19-.388.268-2.668 1.605-2.87 1.683-.205.078-1.4-1.003-1.4-1.266 0-.188.798-.682 3.39-2.1.5-.273 1.456-.807 2.124-1.186.668-.378 1.533-.865 1.922-1.083.39-.217.777-.437.86-.488.084-.05.54-.307 1.012-.568.473-.262 1.376-.765 2.006-1.117.63-.353 1.2-.642 1.268-.642.174 0 1.583 1.444 1.583 1.623 0 .082-.323.719-.719 1.414-.395.695-.873 1.56-1.063 1.921-.19.362-.39.726-.445.81-.107.16-.98 1.722-1.867 3.339-.832 1.516-1.87 3.375-1.978 3.54-.054.084-.26.46-.455.836-.448.86-.608.874-1.34.12zm2.664-6.39a223.44 223.44 0 0 1 2.013-3.366c.524-.86.936-1.582.916-1.602-.02-.02-.804.428-1.74.997-.937.568-1.83 1.107-1.986 1.197-.156.09-.585.357-.955.592s-.72.446-.78.469c-.058.023.393.547 1.003 1.164.687.696 1.145 1.087 1.204 1.028.052-.052.198-.267.325-.479zm74.396 4.093l-4.93-4.829c-1.733-1.696-3.15-3.13-3.15-3.188 0-.058.808-.91 1.796-1.896 1.645-1.64 1.861-1.82 2.577-2.145 1.367-.62 2.125-.59 3.638.141 1.15.557 1.566.874 2.918 2.227 3.214 3.214 4.072 5.668 2.71 7.747-.417.636-3.414 3.689-3.622 3.689-.086 0-.957-.786-1.937-1.746zm3.04-1.645c.512-.53 1.019-1.155 1.126-1.391.375-.827.162-2.025-.53-2.985-.936-1.297-3.067-3.25-4.36-3.993-.771-.444-.88-.478-1.542-.48-.639-.003-.767.032-1.264.346-.491.31-2.02 1.85-2.02 2.034 0 .04 1.331 1.376 2.959 2.97 4.081 3.998 4.563 4.461 4.636 4.461.035 0 .483-.433.995-.962zm-43.397.04c-5.141-.314-10.734-1.786-15.48-4.075-.907-.437-1.33-.666-2.995-1.622-.664-.381-2.937-1.898-3.695-2.466-2.447-1.833-4.613-3.877-6.725-6.343-2.98-3.48-5.547-7.713-6.935-11.435l-.586-1.568c-1.013-2.709-1.842-6.291-2.13-9.208-.063-.64-.158-1.524-.21-1.964-.125-1.032-.125-4.348 0-5.38.052-.44.148-1.325.21-1.964.515-5.206 2.421-11.078 5.108-15.734 1.082-1.875 1.359-2.306 2.374-3.701 1.94-2.666 4.015-4.946 6.413-7.049 1.996-1.75 4.95-3.895 6.236-4.53a3.19 3.19 0 0 0 .506-.304c.255-.217 3.12-1.636 4.3-2.13 2.448-1.024 5.484-1.975 7.695-2.409 2.623-.515 2.962-.568 4.651-.73 2.106-.201 7.05-.145 8.75.1 3.546.511 5.852 1.054 8.652 2.038 3.467 1.218 6.12 2.523 9.207 4.531 4.684 3.046 9.113 7.584 12.313 12.616 2.528 3.975 4.584 9.117 5.442 13.613.17.888.352 1.804.406 2.036.272 1.183.44 3.623.438 6.357-.002 2.875-.14 4.728-.49 6.552-.087.459-.251 1.313-.364 1.897-.405 2.109-1.456 5.456-2.444 7.79-.898 2.12-2.553 5.17-3.706 6.83-2.701 3.888-5.853 7.21-9.424 9.934-1.024.781-1.244.936-2.514 1.773-2.663 1.757-5.699 3.217-9.016 4.336-2.634.889-3.286 1.073-4.823 1.359-.77.143-1.56.303-1.754.355-.99.264-5.318.62-7.184.592a61.96 61.96 0 0 1-2.226-.097zm4.98-3.735c4.502-.273 8.752-1.29 12.673-3.033 1.342-.596 3.355-1.646 4.506-2.348.986-.601 2.152-1.384 2.819-1.891.41-.312.842-.634.96-.717.41-.286 2.647-2.256 3.253-2.866.713-.718 2.58-2.835 2.537-2.878-.016-.016-.32.152-.676.373-1.046.651-3.77 2.092-4.513 2.388-.378.15-.733.307-.788.348-.337.253-2.954.88-4.27 1.023-1.108.121-3.712.065-4.735-.102-4.93-.803-8.795-2.432-13.069-5.508-.593-.427-.71-.475-.88-.368-.109.067-.516.289-.905.491-.389.203-1.09.574-1.56.825-1.025.547-4.751 2.426-5.39 2.718-1.528.698-4.651 1.717-6.223 2.031-1.818.363-2.804.457-4.756.45-1.965-.005-2.987-.126-4.623-.545-.877-.224-2.722-.881-2.86-1.017a.362.362 0 0 0-.218-.096c-.3 0 2.532 2.492 4.008 3.528.588.412 2.376 1.605 2.833 1.89 1.042.647 4.195 2.27 4.415 2.272.048 0 .224.073.391.162.501.265 2.36.948 3.44 1.263.557.162 1.217.36 1.467.44.783.251 3.657.805 5.033.97 2.32.28 4.683.345 7.131.197zm-19.044-12.85c3.092-.32 6.208-1.3 9.36-2.94l1.797-.936c.766-.398 1.745-.915 2.175-1.148.43-.233.988-.531 1.238-.663s1.405-.751 2.565-1.377c3.338-1.8 5.64-2.937 7.654-3.779 1.25-.522 3.63-1.36 4.402-1.548 2.373-.58 2.565-.605 4.654-.607 1.961 0 2.062.01 3.264.327 3.124.826 5.088 1.939 6.368 3.61.799 1.041 1.341 2.525 1.345 3.676 0 .292.041.531.09.531.149 0 1.76-1.45 2.199-1.981.501-.605 1.094-1.528 1.305-2.034.086-.205.29-.9.454-1.543 1.058-4.164.46-8.054-1.785-11.6-.73-1.153-.939-1.443-1.689-2.336-1.418-1.69-3.622-3.612-5.734-5.003a204.814 204.814 0 0 0-5.446-3.455 200.132 200.132 0 0 1-3.305-2.055c-.39-.248-.936-.59-1.214-.758a60.12 60.12 0 0 1-2.452-1.612c-1.899-1.316-2.17-1.511-3.476-2.508-1.073-.818-2.733-2.395-3.646-3.462-1.35-1.578-1.396-1.64-1.993-2.692-.73-1.286-1.19-2.48-1.613-4.188-.325-1.313-.364-1.611-.367-2.833-.003-1.212.03-1.474.282-2.316.462-1.538.637-1.853 1.612-2.902.512-.551 1.553-1.36 1.92-1.49.066-.024.096-.07.066-.104-.196-.215-3.42-.777-4.455-.777-.704 0-3.235.352-4.09.569-1.893.48-3.904 1.656-5.417 3.17-2.712 2.715-4.44 6.841-5.104 12.197-.176 1.414-.326 4.525-.456 9.41-.056 2.114-.148 4.46-.204 5.21-.057.752-.15 2.05-.21 2.884-.115 1.658-.425 4.159-.614 4.958-1.146 4.863-2.218 7.04-4.668 9.478-2.266 2.255-4.402 3.321-6.65 3.321-.945 0-2.11-.246-2.844-.6a5.586 5.586 0 0 0-.46-.209c-.05 0 .076.621.32 1.568.632 2.459 1.834 4.042 4.704 6.197 1.047.786 3.38 1.816 4.759 2.1 1.612.333 3.651.428 5.36.25zm35.565-.502c1.917-.248 3.498-.82 4.402-1.594.211-.18.536-.59.721-.91.333-.575.337-.6.339-1.849.002-1.257 0-1.268-.324-1.758a4.74 4.74 0 0 0-.711-.822c-.606-.52-2.104-1.223-3.263-1.535-.98-.263-1.205-.285-2.884-.285-1.851 0-1.958.014-3.997.517-.978.242-2.518.802-4.25 1.545-1.388.597-4.682 2.272-4.726 2.404-.047.142 1.6 1.158 3.288 2.03 2.322 1.199 4.69 1.911 7.51 2.259.835.103 3.092.102 3.895-.002zm-46.28-12.662c1.044-.349 2.987-1.878 3.855-3.032 1.136-1.513 1.893-3.175 2.408-5.29.399-1.64.57-2.784.753-5.02l.265-3.222c.06-.742.091-1.369.068-1.393-.075-.075-2.31 1.115-3.21 1.709-1.665 1.098-1.976 1.341-3.429 2.681-2.464 2.273-4.542 5.569-5.126 8.128-.288 1.265-.304 2.299-.048 3.143.19.626.304.81.807 1.301.859.84 1.462 1.11 2.488 1.11.454 0 .98-.052 1.17-.115zm-8.41-3.61c.105-1.438.603-3.77.951-4.45.077-.15.26-.575.407-.944.411-1.033 1.33-2.585 2.44-4.121.135-.187.55-.688.924-1.113 2.161-2.465 3.504-3.596 6.815-5.742.434-.281 3.369-1.77 3.938-1.998.325-.13.412-.218.412-.414 0-.872.223-6.126.311-7.341.33-4.523 1.445-8.822 3.11-11.983 1.01-1.915 2.304-3.611 3.81-4.99.38-.348.65-.633.6-.633-.191 0-2.06.708-3.13 1.185-1.04.463-3.573 1.78-4.404 2.288a60.643 60.643 0 0 0-2.633 1.768c-1.265.952-1.613 1.227-2.353 1.86-3.774 3.228-6.933 7.305-9.21 11.884-2.012 4.046-3.141 7.893-3.665 12.482-.228 1.997-.3 5.401-.147 6.982.167 1.728.393 3.58.519 4.25.151.807.78 3.397.982 4.046l.173.557.023-1.062c.012-.585.07-1.715.128-2.511zm72.803-1.081c.087-.557.199-1.171.25-1.366.363-1.413.474-7.502.177-9.815-.625-4.867-1.907-9.127-3.867-12.85-1.324-2.516-1.915-3.47-3.384-5.463-2.084-2.83-5.521-6.233-7.997-7.92-.308-.21-.806-.551-1.107-.759-2.185-1.508-5.584-3.269-7.851-4.068a25.935 25.935 0 0 1-1.164-.437c-.194-.083-.832-.275-1.416-.425-.584-.15-1.352-.36-1.706-.465-.955-.286-1.163-.255-.616.094 1.428.91 4.228 3.306 5.32 4.552 1.727 1.972 3.16 4.632 4.071 7.556.512 1.642.685 2.386.94 4.047.379 2.455.406 4.233.126 7.993l-.06.81.591.333c.517.29 1.236.737 3.324 2.064 3.956 2.514 6.218 4.323 8.327 6.655 1.296 1.434 2.286 2.785 3.201 4.369.87 1.505 1.894 4.6 2.091 6.322.063.55.139 1.067.168 1.15.069.194.377-1.066.582-2.377zM1212.6 96.696c.09-1.957-.102-4.224-.546-6.45-.344-1.72-1.834-5.309-2.663-6.413a19.097 19.097 0 0 1-.604-.864c-.882-1.355-2.875-2.85-4.056-3.043-1.112-.18-2.618.326-3.34 1.125-.752.83-1.028 2.375-.716 4.001.283 1.48.542 2.325.977 3.2 1.446 2.903 3.891 5.243 8.893 8.508.752.49 1.48.976 1.62 1.079.138.103.28.19.313.192.033.004.088-.597.122-1.335zm-62.711 51.933c-.34-.539-.321-.741.105-1.093l.36-.296-.638-.175c-1.243-.343-1.916-.917-2.582-2.204-.362-.7-.381-.784-.382-1.697 0-.867.03-1.026.313-1.62.652-1.37 1.974-2.614 4.675-4.403 1.816-1.203 3.132-1.693 4.573-1.7 1.333-.008 1.925.231 2.842 1.148 1.34 1.34 1.87 3.06 1.36 4.4-.273.712-.552 1.126-1.21 1.795-.625.636-.83.7-1.133.354-.272-.31-.746-1.029-.746-1.131 0-.046.251-.325.559-.62.637-.613.857-1.053.857-1.714 0-1.14-.937-2.208-2.13-2.425-.489-.088-1.807.272-2.618.716-1.476.808-3.592 2.31-4.427 3.143-.722.718-1.031 1.26-1.113 1.948-.071.604.079 1.073.534 1.669.875 1.146 2.195 1.223 3.962.23.514-.29.935-.558.935-.597 0-.039-.276-.471-.614-.96-.933-1.353-1-1.472-.918-1.62.124-.222 1.15-.853 1.296-.797.074.029.338.361.586.739.248.377.823 1.229 1.278 1.892.63.917.805 1.244.73 1.361-.1.16-.518.456-3.415 2.415a89.278 89.278 0 0 0-2.033 1.402c-.463.353-.707.314-1.006-.16zm91.87-3.157c-3.754-4.324-5.787-6.655-6.105-7.003-.429-.468-.61-.786-.548-.96.032-.09.203-.368.38-.619.178-.25.35-.532.384-.626.033-.094.168-.241.298-.327.22-.144.322-.128 1.447.24.666.217 1.825.583 2.576.814.752.23 1.64.508 1.973.617.334.11 1.176.374 1.872.588.696.214 1.788.551 2.428.75.64.198 1.67.517 2.29.707.62.191 1.177.379 1.24.417.213.132.113.44-.342 1.059-.331.45-.52.618-.69.618-.13 0-1.001-.25-1.937-.556-.935-.307-1.732-.557-1.772-.557-.04 0-.12.109-.181.241-.06.133-.254.44-.43.683-.387.536-1.618 2.424-1.618 2.482 0 .023.592.688 1.316 1.478.723.79 1.315 1.506 1.315 1.592 0 .235-.836 1.463-1.012 1.488-.087.012-1.313-1.317-2.883-3.126zm.908-4.085c.377-.588.691-1.138.698-1.222.016-.184-.255-.296-3.275-1.349a204.35 204.35 0 0 1-2.565-.905l-.288-.113.277.33c.308.368 2.321 2.535 3.478 3.744.532.556.784.754.87.684.065-.055.427-.58.805-1.169zm-98.96-2.692a8.003 8.003 0 0 1-.35-.855c-.179-.52-.178-.542.007-.777.214-.274 1.61-1.13 2.375-1.46 1.559-.67 2.176-1.269 2.176-2.112 0-.42-.43-1.739-.927-2.846l-.237-.528-1.872.768c-2.787 1.143-3.57 1.435-3.71 1.38-.155-.058-.54-1.055-.54-1.396 0-.277.176-.389 1.34-.852 1.001-.397 2.751-1.111 3.973-1.62.556-.232 1.398-.576 1.872-.764a204.43 204.43 0 0 0 2.225-.91c.752-.313 1.73-.706 2.176-.873.445-.167.853-.347.905-.4.32-.315.596.12 1.327 2.081.145.39.3.754.343.81.098.125.558 1.515.763 2.306.213.818.192 1.185-.108 1.934-.361.902-1.13 1.624-2.218 2.084-1.299.55-2.35.462-3.365-.277l-.328-.24v.24c0 .132-.074.455-.163.717-.229.672-.953 1.26-2.533 2.055-1.674.843-2.323 1.275-2.404 1.6-.097.385-.513.348-.727-.065zm8.994-5.95c.702-.397 1.082-.982 1.082-1.666 0-.463-.772-2.763-1.06-3.156-.157-.215-.217-.2-1.874.49-1.84.764-2.428 1.027-2.428 1.084 0 .108.385 1.068.733 1.828.381.834.764 1.342 1.235 1.64.479.304 1.568.2 2.312-.22zm97.102 4.955a430.68 430.68 0 0 1-2.124-.86c-.64-.26-1.505-.607-1.923-.769-.417-.161-.837-.34-.934-.394-.096-.056-.597-.265-1.113-.465-2.126-.824-4.933-1.96-5.263-2.13-.168-.086-.278-.226-.278-.352 0-.193.32-1.005 1.437-3.656.458-1.086 1.223-2.117 1.904-2.568.903-.598 1.89-.609 3.324-.036 1.029.41 1.733 1.09 2.033 1.962.113.33.206.714.206.856 0 .249.016.242.456-.19.435-.427.488-.45 1.142-.486.543-.03.844.015 1.44.22 1.623.556 3.062.89 3.687.856.517-.027.61-.005.641.15.063.317-.499 1.7-.734 1.807-.25.114-2.222-.367-3.294-.804-.49-.2-.838-.269-1.365-.271-.63-.003-.752.03-1.095.292a2.513 2.513 0 0 0-.598.708c-.2.39-.946 2.156-1.053 2.491-.037.116.188.253.893.543l2.713 1.118 1.77.73-.01.354c-.015.527-.43 1.3-.69 1.289-.116-.005-.643-.183-1.172-.395zm-4.79-5.063c.603-1.481.642-1.624.642-2.361 0-.88-.194-1.25-.884-1.687-.613-.389-1.157-.533-1.808-.48-.885.074-1.318.562-2.043 2.306a32.755 32.755 0 0 0-.494 1.23c-.054.176.24.339 1.536.85.334.133 1.04.421 1.568.641.529.22 1 .391 1.048.38.047-.012.243-.408.435-.879zm8.13-6.423a971.615 971.615 0 0 0-8.905-1.567c-2.001-.34-2.405-.437-2.554-.617-.098-.118-.155-.31-.128-.43.026-.12.121-.673.212-1.229.266-1.64.633-3.184.887-3.735.706-1.532 2.4-2.484 4.417-2.484 1.828 0 4.932.746 6.627 1.593 1.017.508 2.068 1.588 2.31 2.373.325 1.057.316 1.414-.09 3.862-.367 2.208-.488 2.606-.786 2.58-.065-.007-.961-.162-1.99-.346zm1.127-2.93c.06-.22.132-.844.162-1.385.054-.976.052-.987-.273-1.494-.523-.815-1.521-1.319-3.496-1.766-1.153-.26-2.587-.39-3.917-.351-1.221.035-1.26.043-1.788.382-.401.258-.593.466-.747.81-.228.508-.706 2.954-.597 3.055.037.035.637.162 1.333.282.695.12 2.312.403 3.592.628l3.895.685 1.568.274.08-.359c.044-.197.129-.54.188-.76zm-113.185 2.41c-.988-.315-1.475-.631-2.038-1.322-.458-.563-.861-1.635-.987-2.627-.078-.618.13-1.745.43-2.322.306-.593 1.192-1.393 2.039-1.841 1.912-1.012 6.304-1.83 8.245-1.535 1.946.295 3.075 1.153 3.693 2.805.622 1.661.387 3.323-.644 4.547-1.172 1.394-4.692 2.45-8.41 2.524-1.397.028-1.583.01-2.328-.228zm4.199-1.854c.306-.061 1.103-.216 1.77-.345 1.949-.376 3.368-1.153 3.756-2.057.204-.473.176-1.61-.051-2.102-.236-.512-.539-.79-1.176-1.081-1.296-.593-6.201 0-8.236.995-.717.351-1.397 1.045-1.486 1.517-.125.667.014 1.594.321 2.14.275.488.636.737 1.56 1.076.24.088 2.927-.02 3.542-.143zm-1.883-13.553c-.342-.146-.647-.61-.647-.983 0-.248.095-.446.345-.718.288-.315.41-.376.753-.376.745 0 1.282.798.997 1.48-.077.185-.214.398-.304.473-.208.172-.865.244-1.144.124zm106.745-.005c-.328-.133-.646-.602-.646-.953 0-.442.428-1.04.805-1.122.575-.127 1.123.211 1.322.814.273.828-.637 1.602-1.48 1.26zm-101.32-7.476c-.89-.201-1.012-.264-1.012-.521 0-.365.35-1.332.515-1.42.096-.052.326-.043.558.021.662.183 1.661.158 2.132-.053.352-.158.476-.299.756-.86.28-.56.34-.804.365-1.48.027-.696-.001-.867-.201-1.211-.333-.575-1.017-.964-1.92-1.092-1.058-.15-1.28-.031-2.171 1.15a26.7 26.7 0 0 0-.983 1.379c-.146.235-.619.785-1.05 1.221-.721.73-.84.808-1.472.98-.6.161-.774.17-1.347.064-.958-.176-1.69-.479-2.27-.937-1.069-.844-1.617-2.193-1.412-3.473.439-2.747 2.267-4.28 4.523-3.795.789.17.802.189.652.927-.21 1.027-.26 1.07-1.202 1.015-.866-.05-1.197.052-1.617.502-.509.545-.711 2.031-.373 2.74.33.694 1.693 1.22 2.557.988.456-.122.748-.43 1.784-1.881 1.096-1.534 2.072-2.521 2.741-2.771.936-.35 2.02-.224 3.338.39 1.914.89 2.679 3 1.928 5.321-.477 1.475-1.34 2.433-2.512 2.79-.766.232-1.299.234-2.308.006zm93.676-.14c-.164-.131-.793-2.003-.793-2.358 0-.13.22-.36.625-.654a528.333 528.333 0 0 0 3.523-2.577c.195-.146.924-.68 1.62-1.187l1.77-1.29c.278-.203.756-.554 1.062-.78.306-.226.688-.494.849-.596.498-.317.13-.273-1.22.146a863.41 863.41 0 0 1-7.065 2.145c-.167.05-.662.205-1.1.345-.899.288-1.204.314-1.365.12-.14-.167-.483-1.454-.41-1.528.056-.055 1.108-.386 3.229-1.016 1.09-.324 2.34-.699 5.514-1.654.723-.218 2.013-.61 2.866-.87.853-.262 1.626-.46 1.717-.443.23.044.948 2.281.814 2.537-.052.098-.486.462-.965.809l-1.496 1.086c-1.817 1.322-2.77 2.013-3.28 2.383-.863.624-2.834 2.062-3.381 2.467-.799.59-.617.555 3.32-.649.835-.255 1.882-.57 2.327-.702.446-.131 1.584-.479 2.53-.773.946-.293 1.854-.538 2.018-.542.284-.009.309.026.52.72.173.563.197.763.107.885-.063.086-.64.312-1.28.502s-2.005.602-3.035.918c-1.03.315-2.304.7-2.833.858-.528.156-1.507.453-2.175.659-.668.206-1.419.434-1.67.506-.486.141-1.674.498-1.993.6a.422.422 0 0 1-.35-.066zm-90.637-9.435c-1.336-.376-1.972-.628-3.482-1.378-3.145-1.56-4.68-3.121-4.97-5.052-.137-.917.45-2.56 1.266-3.537 1.122-1.345 2.683-1.747 4.753-1.224 1.416.357 4.376 1.875 5.872 3.01.612.465 1.464 1.327 1.807 1.828.813 1.191.798 2.825-.042 4.326-1.077 1.927-2.959 2.66-5.204 2.027zm2.718-1.816c.685-.355 1.325-1.525 1.325-2.426 0-1.265-1.25-2.369-4.56-4.028-1.789-.896-2.43-1.09-3.61-1.09-.986 0-1.454.188-1.886.753-.834 1.094-.745 2.312.245 3.38.586.632 1.838 1.434 3.576 2.289.953.47 2.006.945 2.34 1.057.746.252 2.14.287 2.57.065zm85.4 1.222c-1.204-.35-2.178-1.282-2.787-2.668-.352-.799-.39-.971-.392-1.746-.002-.765.035-.938.33-1.563.773-1.63 3.625-3.739 6.783-5.012 1.787-.72 3.275-.826 4.419-.314 1.407.63 2.676 2.63 2.7 4.26.019 1.16-.528 2.236-1.7 3.35-1.171 1.11-3.568 2.46-5.84 3.29-1.02.37-1.386.455-2.141.492-.588.03-1.075-.002-1.373-.089zm2.362-1.993c.713-.237 3.347-1.524 4.292-2.098.936-.568 1.92-1.481 2.208-2.05.55-1.086.219-2.502-.745-3.177-.41-.287-.497-.307-1.315-.3-.512.005-1.121.08-1.464.182-.508.15-2.36.987-2.803 1.266-.083.053-.568.347-1.077.654-2.118 1.277-2.875 2.13-2.864 3.225.008.85.626 1.95 1.29 2.3.523.276 1.644.275 2.478-.002zm-83.402-5.159l-1.15-.83c-.326-.236-.69-.497-.81-.58a323.027 323.027 0 0 1-2.425-1.747 70.706 70.706 0 0 0-1.18-.834c-.361-.25-.893-.625-1.181-.834-2.306-1.672-2.95-2.137-3.312-2.385-.496-.342-.57-.461-.453-.727.159-.357.76-1.112.908-1.14.143-.026.431.144 1.119.66.203.153.795.582 1.315.955.52.372 1.106.792 1.3.933a181.408 181.408 0 0 1 2.327 1.675c.697.506 1.493 1.08 1.772 1.275.278.194.807.568 1.175.83.369.263 1.04.741 1.493 1.062.565.402.822.648.822.789 0 .285-.777 1.31-.99 1.304-.095-.003-.424-.186-.73-.406zm75.127-.873c-.392-.482-.549-.752-.553-.952-.002-.088.35-.42.78-.736a52.863 52.863 0 0 0 1.29-.978c.279-.221.62-.48.76-.574.139-.095.42-.31.624-.48.204-.17.72-.559 1.146-.865.426-.306.942-.695 1.146-.864.205-.17.469-.374.587-.456.118-.08.572-.42 1.007-.754.436-.334.98-.744 1.211-.91.23-.168.682-.51 1.003-.76 1.186-.924 1.492-1.108 1.678-1.01.181.098.906 1.127.906 1.288 0 .088-.505.517-1.433 1.217a10060.592 10060.592 0 0 0-3.41 2.575c-.242.182-.61.468-.82.635a66.67 66.67 0 0 1-1.43 1.08c-.579.427-1.688 1.257-2.466 1.846-.777.59-1.483 1.07-1.568 1.07-.085 0-.291-.167-.458-.372zm-74.595-4.357a1275.476 1275.476 0 0 0-4.02-3.82c-2.706-2.553-3.493-3.328-3.493-3.437 0-.174 1.061-1.302 1.184-1.258.12.043 1.999 1.81 6.503 6.118 1.91 1.828 2.396 2.27 2.49 2.27.081 0 .98-.924 3.172-3.259.303-.322.623-.586.712-.586.2 0 1.153.951 1.102 1.1-.02.06-1.121 1.247-2.447 2.64-1.483 1.56-2.483 2.533-2.6 2.533-.11 0-1.208-.97-2.603-2.301zm71.008.07c-.281-.28-.511-.57-.511-.641 0-.117 1.541-1.633 5.103-5.02 1.884-1.792 3.7-3.579 3.696-3.637-.002-.03-.502-.58-1.112-1.22-.61-.64-1.11-1.234-1.11-1.322 0-.21.884-1.128 1.048-1.087.212.053 6.136 6.252 6.136 6.422 0 .135-1.006 1.047-1.156 1.047-.053 0-.63-.558-1.281-1.24l-1.185-1.24-1.2 1.166c-.66.64-2.017 1.938-3.018 2.883-1 .946-1.957 1.86-2.125 2.032-.916.939-2.503 2.368-2.629 2.368-.08 0-.375-.23-.656-.51zm-2.94-3.077a9.373 9.373 0 0 1-.706-.538l-.353-.301.238-.746c.13-.41.397-1.155.59-1.655.519-1.336.529-1.49.116-1.752-.423-.269-.615-.404-1.788-1.263-.518-.38-1-.713-1.07-.74-.07-.027-.67.422-1.334.997s-1.36 1.152-1.547 1.284c-.336.235-.344.236-.658.053-.564-.33-1.076-.785-1.076-.959 0-.097.695-.725 1.632-1.475.898-.719 1.85-1.489 2.115-1.711.909-.76 3.938-3.189 4.539-3.638.145-.108.566-.45.936-.759 1.197-1 1.898-1.522 2.042-1.522.077 0 .34.152.585.338.245.186.547.392.672.459.125.066.297.226.382.355.142.217.126.31-.205 1.236-.198.55-.675 1.89-1.062 2.974-.386 1.085-.91 2.542-1.164 3.238-.254.696-.523 1.447-.599 1.67-.33.975-1.368 3.883-1.526 4.274-.095.237-.225.428-.289.425-.063-.004-.275-.113-.47-.244zm1.19-6.96c.113-.292.398-1.009.632-1.593.235-.585.539-1.359.676-1.72.137-.362.386-.968.552-1.347.166-.38.288-.73.27-.78-.032-.094-.157.01-3.166 2.623l-1.795 1.56.239.19c.131.106.414.307.629.448.214.14.663.457.997.703.335.246.642.448.684.448.042 0 .169-.24.282-.532zm-58.695 3.845c-.083-.292-.656-2.58-1.273-5.084a439.71 439.71 0 0 0-1.266-5.06c-.184-.647-.63-2.515-.72-3.01-.085-.476.02-.61.777-.992.319-.16.609-.34.644-.396.216-.35.582-.063 3.252 2.552 5.742 5.623 7.525 7.409 7.525 7.54 0 .073-.142.212-.315.307-.173.094-.471.274-.662.4-.191.125-.426.227-.521.227-.096 0-.788-.614-1.537-1.366-.75-.751-1.423-1.366-1.497-1.366-.073 0-.574.257-1.114.571-.54.315-1.277.741-1.639.949-.746.428-.809.571-.562 1.294.247.725.764 2.729.764 2.96 0 .126-.122.272-.315.378-.173.095-.47.275-.662.4-.551.361-.705.308-.879-.304zm3.048-7.646c.018-.055-.186-.322-.453-.595a399.217 399.217 0 0 1-2.197-2.286c-.941-.986-1.728-1.775-1.749-1.755-.02.02.098.51.263 1.088.165.578.53 1.87.813 2.872.283 1.002.557 1.922.61 2.044.094.217.129.204 1.388-.523.71-.41 1.307-.79 1.325-.845zm44.517 4.43c-.369-.192-.582-.367-.582-.478 0-.097 1.212-2.612 2.693-5.59 1.48-2.976 2.844-5.742 3.029-6.146.392-.853.478-.88 1.36-.447.414.203.566.337.592.519.034.237-.629 1.617-4.588 9.558-1.61 3.227-1.495 3.109-2.504 2.584zm-36.653-1.91c-1.293-.359-2.098-1.065-2.633-2.312-.208-.482-.383-1.015-.39-1.184-.012-.29.023-.32.645-.531.942-.32.954-.317 1.204.369.315.863.8 1.54 1.266 1.768.593.29 1.74.121 2.557-.376 1.045-.634 1.317-1.559.838-2.84-.449-1.199-.79-1.365-2.83-1.376-1.195-.006-2.651-.183-3.43-.416-1.257-.377-2.34-2.374-2.202-4.06.069-.843.306-1.389.907-2.09.537-.628.851-.838 1.839-1.229 1.768-.7 3.296-.394 4.39.88.458.532.865 1.463.77 1.762-.04.127-.282.254-.747.393-.378.112-.737.205-.798.205-.06 0-.23-.262-.376-.582-.305-.666-.697-1.023-1.26-1.15-.814-.182-2.075.284-2.57.95-.407.549-.212 2.112.337 2.7.376.402.833.499 2.893.611 1.243.068 2.042.165 2.613.316.751.198.871.267 1.395.798.514.52.605.681.885 1.556.679 2.118.183 3.8-1.446 4.907-1.024.696-2.992 1.171-3.857.931zm30.455-.3c-1.026-.407-1.267-.552-1.727-1.041-.543-.578-.687-.825-.903-1.551-.245-.827-.226-2.163.049-3.42.258-1.177 1.07-3.682 1.514-4.666.696-1.544 1.704-2.72 2.788-3.252.543-.267.707-.298 1.568-.297.858.001 1.043.037 1.723.33 1.429.614 2.4 1.921 2.503 3.37.056.77-.214 2.098-.443 2.186-.168.064-1.522-.336-1.608-.475-.034-.054-.016-.429.039-.833.185-1.354-.117-2.097-1.04-2.556-.753-.376-1.495-.352-2.13.069-.86.569-1.47 1.626-2.282 3.948-.686 1.962-.85 2.75-.855 4.078-.004 1.31.164 1.747.856 2.226.49.34 1.417.462 1.92.253.473-.195.965-.819 1.518-1.92.364-.725.561-1.014.692-1.014.334 0 1.178.322 1.347.514.155.177.14.252-.239 1.171-.652 1.586-1.409 2.414-2.674 2.93-.827.336-1.68.32-2.616-.05zm-20.529-1.988c-.693-.176-1.17-.44-1.713-.949-.617-.578-.761-.84-1.03-1.874-.412-1.587-.357-1.716.769-1.83.844-.084.848-.08.938.776.086.823.52 1.695.975 1.956.29.167.529.202 1.316.197 1.194-.01 1.804-.26 2.275-.938.282-.406.304-.5.294-1.276-.013-.98-.288-1.663-.793-1.974-.17-.105-.81-.31-1.422-.456a42.702 42.702 0 0 1-2.266-.623c-1.033-.32-1.209-.41-1.692-.868-.375-.355-.602-.676-.744-1.056-.902-2.412-.056-4.573 2.137-5.456.646-.26.865-.297 1.752-.297 1.37 0 2.112.27 2.856 1.04.507.525.76 1.059.987 2.08.138.623-.214.876-1.22.876-.533 0-.537-.002-.641-.38a2.996 2.996 0 0 1-.106-.517c-.002-.296-.448-.91-.81-1.114-.43-.241-1.39-.291-2.052-.107-.55.152-1.06.64-1.196 1.141-.132.485-.061 1.667.12 2.005.275.514.768.721 3.229 1.355 1.43.368 2.592.926 3.006 1.441.744.925 1.045 2.79.645 3.992-.397 1.192-.944 1.853-1.96 2.368-1.125.57-2.569.762-3.654.488zm10.893.001c-1.437-.312-2.487-1.184-2.994-2.488-.415-1.066-.51-1.697-.502-3.328.009-1.848.163-3.179.538-4.63.539-2.088 1.331-3.234 2.688-3.887.655-.315.766-.336 1.761-.336.916 0 1.168.039 1.827.284 1.73.644 2.585 1.928 2.824 4.236.23 2.226-.426 6.319-1.288 8.026-.274.543-1.11 1.42-1.617 1.697-1.015.552-2.039.687-3.237.426zm2.398-2.007c.5-.33 1.068-1.396 1.272-2.381.465-2.251.627-5.541.323-6.55-.317-1.053-.581-1.401-1.338-1.763-.553-.264-1.547-.264-2.066 0-1.3.663-1.944 2.686-2.098 6.581-.077 1.954.05 2.914.462 3.491.516.722 1.139.97 2.308.922.59-.025.809-.083 1.137-.3z"/>
        </g>
    </g>
</svg>
