<svg xmlns="http://www.w3.org/2000/svg" viewBox="0 0 512 512">
    <path d="M294.591 159.293c0-34.329-26.263-62.513-59.791-65.587.028-.839.046-1.68.046-2.525.001-42.212-34.22-76.433-76.433-76.433S81.979 48.97 81.979 91.183c0 .845.019 1.686.046 2.525-33.528 3.074-59.791 31.257-59.791 65.587 0 16.605 6.158 31.765 16.297 43.352a125.463 125.463 0 0 0-5.711 37.517c0 69.362 56.229 125.591 125.591 125.591s125.591-56.229 125.591-125.591c0-13.07-2.004-25.67-5.711-37.517 10.143-11.588 16.3-26.747 16.3-43.354z" fill="#cff09e"/>
    <path d="M428.627 108.394c26.447 2.425 46.389 24.307 46.389 50.9 0 8.146 6.604 14.749 14.749 14.749 8.144 0 14.749-6.603 14.749-14.749 0-20.236-7.529-39.587-21.204-54.486-10.595-11.545-24.157-19.655-39.075-23.534C439.279 35.64 400.517 0 353.587 0s-85.695 35.64-90.649 81.273a80.488 80.488 0 0 0-6.95 2.152 80 80 0 0 0-6.927-2.152C244.107 35.64 205.343 0 158.413 0S72.72 35.64 67.766 81.273c-14.918 3.877-28.481 11.989-39.075 23.534-13.675 14.9-21.204 34.251-21.204 54.486 0 16.748 5.215 33 14.822 46.564a140.495 140.495 0 0 0-4.236 34.305c0 62.637 41.252 115.816 98.011 133.812v123.277c0 8.146 6.604 14.749 14.749 14.749h55.161c8.144 0 14.749-6.603 14.749-14.749v-72.504c0-8.146-6.604-14.749-14.749-14.749s-14.749 6.603-14.749 14.749v57.755H145.58V379.909c4.227.385 8.505.593 12.831.593 37.889 0 72.314-15.1 97.588-39.588 15.437 14.958 34.286 26.41 55.254 33.06v123.277c0 8.146 6.604 14.749 14.749 14.749h55.161c8.144 0 14.749-6.603 14.749-14.749v-72.504c0-8.146-6.604-14.749-14.749-14.749-8.144 0-14.749 6.603-14.749 14.749v57.755H340.75v-102.59c4.227.385 8.507.591 12.833.591 77.384 0 140.34-62.957 140.34-140.34 0-8.146-6.604-14.749-14.749-14.749-8.144 0-14.749 6.603-14.749 14.749 0 61.119-49.725 110.843-110.843 110.843-30.696 0-58.513-12.55-78.604-32.782 15.005-22.334 23.77-49.192 23.77-78.063 0-11.62-1.422-23.126-4.234-34.305a80.542 80.542 0 0 0 14.822-46.564c0-20.236-7.529-39.587-21.204-54.486-.192-.209-.391-.409-.584-.615 2.827-2.795 4.525-6.705 4.386-10.967a57.793 57.793 0 0 1-.038-2.044c0-34.013 27.673-61.686 61.686-61.686s61.684 27.673 61.684 61.686c0 .684-.016 1.366-.038 2.044-.249 7.806 5.622 14.458 13.399 15.17zm-164.408 98.653a110.801 110.801 0 0 1 5.037 33.115c0 61.119-49.725 110.843-110.843 110.843S47.571 301.282 47.571 240.162c0-11.286 1.695-22.428 5.038-33.115a14.742 14.742 0 0 0-2.978-14.114 51.082 51.082 0 0 1-12.647-33.64c0-26.593 19.942-48.476 46.389-50.9 7.775-.712 13.648-7.364 13.395-15.167a57.793 57.793 0 0 1-.038-2.044c-.002-34.012 27.67-61.685 61.683-61.685 34.015 0 61.686 27.673 61.686 61.686 0 .684-.016 1.366-.038 2.044-.254 7.805 5.619 14.455 13.395 15.167 26.447 2.425 46.389 24.306 46.389 50.9a51.085 51.085 0 0 1-12.647 33.64 14.743 14.743 0 0 0-2.979 14.113z" fill="#507c5c"/>
</svg>
