<svg xmlns="http://www.w3.org/2000/svg" viewBox="0 0 512.001 512.001">
    <path d="M247.705 296.675c-70.369 0-127.412-57.045-127.412-127.412V64.613c0-17.578 20.049-27.631 34.136-17.115l93.276 69.631 93.276-69.631c14.086-10.516 34.136-.462 34.136 17.115v104.651c0 70.368-57.045 127.411-127.412 127.411z" fill="#cff09e"/>
    <path d="M405.894 342.531a14.633 14.633 0 0 0-13.264-13.265c-2.192-.195-54.106-4.55-96.883 18.87-7.09 3.881-9.69 12.774-5.81 19.862 3.879 7.09 12.774 9.69 19.862 5.81 23.336-12.775 51.22-15.356 67.208-15.659-.392 20.617-4.564 60.971-29.386 85.791-31.917 31.917-68.743 44.299-85.283 36.448V310.559c71.475-7.348 127.412-67.912 127.412-141.296V64.613c0-19.868-16.186-36.031-36.079-36.031-7.728 0-15.144 2.486-21.444 7.189l-24.204 18.067-19.621-45.044c-3.228-7.409-11.853-10.803-19.259-7.571-7.409 3.228-10.8 11.85-7.573 19.261l22.363 51.339-36.23 27.044-36.23-27.046 22.363-51.339c3.228-7.409-.162-16.033-7.571-19.261-7.402-3.225-16.033.161-19.259 7.571l-19.622 45.045L163.18 35.77c-6.3-4.702-13.715-7.188-21.443-7.188-19.894 0-36.079 16.163-36.079 36.031v104.651c0 73.385 55.937 133.947 127.412 141.296v171.914c0 .701.066 1.386.161 2.06-1.016 4.699.29 9.8 3.942 13.453 9.286 9.285 21.964 14.015 36.913 14.015 8.059 0 16.782-1.376 25.982-4.154 23.13-6.985 47.367-22.331 68.248-43.21 44.042-44.046 37.862-118.941 37.578-122.107zM134.925 64.613c0-4.665 3.983-6.764 6.812-6.764 1.409 0 2.698.449 3.935 1.374l38.984 29.102.015.012 39.059 29.157-87.815 66.48c-.631-4.819-.991-9.723-.991-14.711V64.613h.001zm9.414 149.694L310.814 88.278c.003-.001.004-.004.006-.006l38.912-29.049c1.222-.913 2.546-1.374 3.936-1.374 2.83 0 6.812 2.098 6.812 6.764v104.651c0 62.187-50.591 112.778-112.778 112.778-46.176-.001-85.94-27.908-103.363-67.735z" fill="#507c5c"/>
</svg>
