<svg xmlns="http://www.w3.org/2000/svg" viewBox="0 0 512.003 512.003">
    <path d="M252.043 107.452c-15.689-19.797-39.174-31.151-64.434-31.151h-8.985l38.988-38.988c5.979-5.979 5.979-15.674 0-21.655-5.979-5.979-15.674-5.979-21.655 0l-25.614 25.614V15.311C170.344 6.855 163.489 0 155.033 0s-15.311 6.855-15.311 15.311v25.96L114.11 15.659c-5.979-5.979-15.674-5.979-21.655 0-5.979 5.979-5.979 15.674 0 21.655l38.988 38.988h-8.985c-25.26 0-48.746 11.355-64.434 31.152-15.689 19.797-21.376 45.255-15.619 69.788l72.933 316.41c1.632 7.083 7.936 11.875 14.907 11.875 1.139 0 2.297-.129 3.453-.395 8.24-1.9 13.38-10.119 11.482-18.36L112.535 345.14h30.342c8.456 0 15.311-6.855 15.311-15.311s-6.855-15.311-15.311-15.311h-37.402l-16.711-72.502h54.111c8.456 0 15.311-6.855 15.311-15.311s-6.855-15.311-15.311-15.311H81.706L72.234 170.3c-3.621-15.432-.054-31.408 9.793-43.83 9.845-12.424 24.584-19.549 40.435-19.549h65.148c15.852 0 30.589 7.124 40.434 19.548 9.845 12.423 13.414 28.399 9.793 43.831-1.932 8.231 3.176 16.472 11.408 18.404 8.23 1.934 16.472-3.176 18.404-11.408 5.771-24.588.083-50.046-15.606-69.844z" fill="#507c5c"/>
    <path d="M396.64 236.031l-63.246 18.248a29.017 29.017 0 0 1-22.881 0l-63.246-18.248c-33.022-9.528-64.719 18.565-59.23 52.491l22.567 168.775c4.867 30.08 36.706 47.581 64.71 35.568l46.638-20.006 46.638 20.006c28.004 12.013 59.842-5.488 64.71-35.568l22.567-168.775c5.493-33.926-26.205-62.019-59.227-52.491z" fill="#cff09e"/>
    <path d="M457.032 240.828c-11.894-13.973-29.117-21.988-47.25-21.988-5.832 0-11.681.834-17.386 2.48l-55.129 15.907v-54.258c0-8.456-6.855-15.311-15.311-15.311s-15.311 6.855-15.311 15.311v54.26l-55.129-15.907a62.709 62.709 0 0 0-17.384-2.48c-18.136 0-35.36 8.014-47.252 21.987-11.734 13.785-16.825 31.967-13.988 49.918l22.543 168.582c.018.139.038.279.061.416 4.9 30.279 30.708 52.257 61.366 52.257 8.421 0 16.662-1.704 24.496-5.063l40.602-17.417 40.602 17.417c7.832 3.359 16.074 5.063 24.495 5.065h.005c30.656 0 56.462-21.978 61.361-52.259.023-.138.043-.277.061-.416l22.543-168.582c2.832-17.952-2.261-36.134-13.995-49.919zm-16.276 45.249c-.023.138-.043.277-.061.416l-22.537 168.546c-2.563 15.274-15.613 26.34-31.102 26.34h-.002c-4.249 0-8.429-.87-12.425-2.585l-46.638-20.006a15.306 15.306 0 0 0-12.072 0l-46.636 20.006c-3.998 1.715-8.178 2.585-12.425 2.585-15.49 0-28.542-11.067-31.105-26.34l-22.537-168.546a11.252 11.252 0 0 0-.061-.416c-1.502-9.282.998-18.303 7.042-25.401 6.066-7.126 14.789-11.214 23.934-11.214 2.96 0 5.951.43 8.896 1.28l62.425 18.012a44.287 44.287 0 0 0 15.994 3.16c.171.006.338.026.511.026s.341-.02.513-.026c5.448-.063 10.886-1.11 15.993-3.16l62.425-18.012a32.075 32.075 0 0 1 8.897-1.28c9.144 0 17.867 4.087 23.933 11.214 6.038 7.1 8.54 16.12 7.038 25.401z" fill="#507c5c"/>
</svg>
