<svg xmlns="http://www.w3.org/2000/svg" viewBox="0 0 511.998 511.998">
    <g fill="#cff09e">
        <path d="M228.428 181.451l-58.573-41.886-43.472 39.237v75.622zM385.615 254.424v-75.622l-43.471-39.237-58.572 41.886zM255.999 153.879l40.013-55.953-40.013-36.115-40.013 36.115zM354.4 346.62l-98.401-137.597L157.6 346.62l-31.217-31.215v180.31h92.222V393.556h74.789v102.159h92.221v-180.31z"/>
    </g>
    <path d="M427.837 363.826a56.138 56.138 0 0 0-25.941 6.333v-48.011l30.785-30.785a16.282 16.282 0 0 0-2.041-24.758l-28.742-20.554V178.8c0-4.608-1.952-8.999-5.373-12.086l-28.45-25.678 62.565-44.742c7.315-5.231 9.004-15.401 3.772-22.714-5.231-7.314-15.401-9.004-22.713-3.772l-78.998 56.494-.031.02-49.102 35.114-6.605-4.723c-.077-.055-.158-.099-.236-.153a18.01 18.01 0 0 0-1.302-.809c-.179-.099-.355-.202-.536-.295l92.753-129.702c5.231-7.314 3.543-17.483-3.772-22.714-7.314-5.23-17.485-3.541-22.713 3.772L293.382 73.62 266.91 49.727c-6.198-5.594-15.62-5.594-21.817 0L205.08 85.843c-6.145 5.547-7.151 14.823-2.335 21.557l33.24 46.484-3.15 4.404-4.406 3.15-49.102-35.114-.031-.02-63.371-45.323 53.188-53.188c6.358-6.358 6.358-16.667 0-23.025-6.36-6.358-16.666-6.358-23.027 0L79.315 71.539a16.278 16.278 0 0 0 2.041 24.756l62.565 44.742-28.449 25.678a16.278 16.278 0 0 0-5.373 12.086v67.251l-28.743 20.555a16.274 16.274 0 0 0-6.755 11.905 16.28 16.28 0 0 0 4.713 12.853l30.787 30.787v48.011a56.117 56.117 0 0 0-25.943-6.335c-31.148 0-56.489 25.341-56.489 56.49v75.4c0 8.992 7.291 16.282 16.282 16.282h174.653c8.991 0 16.282-7.289 16.282-16.282V409.84h42.226v85.878c0 8.992 7.291 16.282 16.282 16.282h174.652c8.991 0 16.282-7.289 16.282-16.282v-75.4c0-31.151-25.342-56.492-56.491-56.492zM255.999 83.742l18.317 16.534-18.317 25.612-18.317-25.612 18.317-16.534zm118.103 220.15l-17.633 17.633-80.453-112.504 3.149-4.404 4.406-3.15 112.504 80.453-21.97 21.969-.003.003zm-236.204 0l-.008-.007-21.965-21.965 19.911-14.238.021-.015 92.572-66.201 4.406 3.15 3.149 4.404-80.453 112.504-17.633-17.632zm231.437-81.127l-57.772-41.314 29.398-21.023 28.375 25.611v36.726h-.001zm-226.668-36.726l28.374-25.609 29.398 21.023-57.77 41.314v-36.728h-.002zm-34.579 293.396H60.235v-59.118c0-13.195 10.734-23.927 23.926-23.927s23.926 10.733 23.926 23.927v59.118h.001zm201.588 0v-85.878c0-8.992-7.291-16.282-16.282-16.282h-74.789c-8.991 0-16.282 7.289-16.282 16.282v85.878h-59.657V354.714l3.421 3.421c.405.405.83.781 1.27 1.138.147.119.304.221.454.335.298.225.596.448.907.65.197.129.402.241.602.36.278.164.558.329.845.477.223.114.451.217.679.321.28.127.56.251.845.363a17.724 17.724 0 0 0 1.594.526c.246.068.493.13.744.187.303.068.606.124.912.176.246.041.49.08.739.109.322.039.646.06.972.08.238.015.472.033.711.036.078.002.156.011.236.011a16.282 16.282 0 0 0 13.245-6.81l85.157-119.078 85.157 119.078a16.277 16.277 0 0 0 13.245 6.81c.081 0 .161-.011.241-.011.233-.003.462-.021.694-.034.332-.02.661-.042.99-.081.246-.029.488-.068.731-.109.306-.05.611-.107.913-.176.252-.057.501-.119.751-.187a18.377 18.377 0 0 0 1.599-.527c.275-.107.545-.228.816-.35.238-.107.475-.213.708-.334.275-.142.542-.3.811-.458.212-.125.428-.244.635-.379.298-.194.581-.407.866-.622.163-.122.332-.234.492-.363.438-.355.863-.733 1.267-1.135l3.422-3.422v124.723h-59.662v-.004zm142.089 0h-47.853v-59.118c0-13.195 10.734-23.927 23.926-23.927 13.193 0 23.926 10.733 23.926 23.927v59.118h.001z" fill="#507c5c"/>
</svg>
