<svg xmlns="http://www.w3.org/2000/svg" viewBox="0 0 511.997 511.997">
    <g fill="#cff09e">
        <path d="M197.859 96.901c0-15.533 6.049-30.137 17.033-41.121l41.12-41.12 41.12 41.12c22.674 22.674 22.674 59.567 0 82.241l-41.12 41.121-41.12-41.121c-10.984-10.983-17.033-25.586-17.033-41.12z"/>
        <path d="M314.106 144.403h58.154v58.154c0 32.066-26.087 58.154-58.154 58.154h-58.153v-58.154c-.001-32.064 26.087-58.154 58.153-58.154zM197.89 436.627c-32.066 0-58.153-26.088-58.153-58.154v-58.154h58.153c32.066 0 58.154 26.088 58.154 58.154v58.154H197.89z"/>
    </g>
    <path d="M314.106 275.372c40.149 0 72.814-32.664 72.814-72.814v-58.154c0-8.096-6.565-14.659-14.659-14.659h-51.277c13.78-27.311 9.297-61.549-13.482-84.33l-41.12-41.12a14.662 14.662 0 0 0-20.735-.001l-41.121 41.12C190.774 59.166 183.2 77.45 183.2 96.901c0 11.604 2.716 22.784 7.811 32.843h-51.273c-8.095 0-14.659 6.563-14.659 14.659v58.154c0 40.149 32.663 72.814 72.812 72.814 8.095 0 14.659-6.563 14.659-14.659s-6.565-14.659-14.659-14.659c-23.981 0-43.493-19.512-43.493-43.495v-43.495h43.493c9.677 0 18.623 3.18 25.856 8.545l9.093 9.093a43.257 43.257 0 0 1 8.5 24.052c-.015.603-.045 1.199-.045 1.805v58.154c0 .306.028.605.045.907v58.459c-12.137-9.054-27.177-14.422-43.449-14.422h-58.153c-8.095 0-14.659 6.563-14.659 14.659v58.154c0 40.149 32.663 72.814 72.812 72.814h43.449v46.054c0 8.096 6.565 14.659 14.659 14.659 8.095 0 14.659-6.563 14.659-14.659v-59.806c.019-.302.045-.601.045-.907V378.47c0-.605-.031-1.204-.045-1.805.95-23.149 20.07-41.69 43.448-41.69H357.6v43.495c0 23.983-19.512 43.495-43.495 43.495-8.095 0-14.659 6.563-14.659 14.659s6.565 14.659 14.659 14.659c40.149 0 72.814-32.664 72.814-72.814v-58.154c0-8.096-6.565-14.659-14.659-14.659h-58.154c-16.271 0-31.311 5.367-43.448 14.421V275.37h43.448v.002zm43.493-72.813c0 23.983-19.512 43.495-43.495 43.495h-43.401v-43.495c0-.605-.031-1.204-.045-1.805a43.243 43.243 0 0 1 8.431-23.957l9.256-9.256a43.252 43.252 0 0 1 25.76-8.478H357.6v43.496zM225.258 66.147l30.754-30.754 30.754 30.754c16.958 16.958 16.958 44.552 0 61.51l-17.951 17.951a73.432 73.432 0 0 0-11.663 11.663l-1.141 1.142-1.278-1.278a73.425 73.425 0 0 0-11.421-11.421l-18.056-18.058c-8.215-8.214-12.738-19.136-12.738-30.754s4.524-22.542 12.74-30.755zm-70.861 312.326v-43.495h43.493c23.377 0 42.498 18.541 43.449 41.69-.015.603-.045 1.199-.045 1.805v43.495h-43.402c-23.984-.001-43.495-19.512-43.495-43.495z" fill="#507c5c"/>
</svg>
