<svg xmlns="http://www.w3.org/2000/svg" viewBox="0 0 512 512">
    <path fill="#cff09e" d="M361.464 183.32H258.086l-51.368 87.352 94.36 145.904h197.557z"/>
    <path d="M510.156 409.801L372.984 176.544l-51.688-87.896a13.366 13.366 0 0 0-23.04 0l-51.689 87.896-40.388 68.681-37.734-58.345a13.364 13.364 0 0 0-22.444 0l-79.95 123.621c-4.008 6.199-2.233 14.473 3.964 18.481 6.196 4.008 14.473 2.232 18.481-3.964l55.361-85.602v163.797H13.365C5.983 403.212 0 409.196 0 416.577s5.983 13.365 13.365 13.365h485.27a13.364 13.364 0 0 0 11.521-20.141zm-200.38-288.012l28.325 48.166h-56.65l28.325-48.166zm-139.19 281.422V239.413l105.933 163.798H170.586zm152.554 0V254.772c0-7.381-5.983-13.365-13.365-13.365-7.381 0-13.365 5.983-13.365 13.365v129.977l-43.614-67.438-30.378-46.973 43.314-73.654h88.088l121.452 206.528H323.14z" fill="#507c5c"/>
</svg>
