<svg width="495" height="238" viewBox="0 0 495 238" xmlns="http://www.w3.org/2000/svg">
    <g fill="#507C5C" fill-rule="evenodd">
        <path d="M134.343 206.739c-43.785 0-79.405-35.62-79.405-79.405 0-43.785 35.62-79.407 79.405-79.407 8.543 0 15.469-6.925 15.469-15.469s-6.925-15.469-15.469-15.469C73.501 16.99 24 66.489 24 127.333c0 28.983 0 57.167-24 110.343H275.728c8.543 0 15.469-6.925 15.469-15.469-.001-8.543-6.926-15.468-15.47-15.468H134.343zM341.958 34.003C321.694 13.012 293.393.482 262.573.482c-24.866 0-48.344 8.079-67.898 23.364-6.731 5.261-7.922 14.983-2.661 21.714 5.261 6.731 14.983 7.922 21.714 2.661 14.06-10.991 30.95-16.801 48.843-16.801 34.988 0 65.466 22.425 75.843 55.799a15.47 15.47 0 0 0 22.557 8.776 59.334 59.334 0 0 1 29.829-8.042c32.749 0 59.393 26.644 59.393 59.393s-26.644 59.393-59.393 59.393h-38.054c-8.542 0-15.469 6.925-15.469 15.469 0 8.543 6.927 15.469 15.469 15.469H494.5c-13.366-30.938-13.366-67.97-13.366-90.331 0-49.809-40.521-90.331-90.331-90.331-6.036 0-12.033.617-17.905 1.805l-30.94-24.817z"/>
        <circle cx="123" cy="177" r="15"/>
        <circle cx="173" cy="177" r="15"/>
        <circle cx="217" cy="177" r="15"/>
        <circle cx="267" cy="177" r="15"/>
        <circle cx="88" cy="134" r="15"/>
        <circle cx="138" cy="134" r="15"/>
        <circle cx="189" cy="134" r="15"/>
        <circle cx="112" cy="91" r="15"/>
        <circle cx="163" cy="91" r="15"/>
    </g>
</svg>
