<svg viewBox="0 0 295 48" xmlns="http://www.w3.org/2000/svg" fill-rule="evenodd" clip-rule="evenodd" stroke-linejoin="round" stroke-miterlimit="1.414">
  <path d="M0 23.676c0 12.3 9.96 22.68 22.678 23.63l.61.045v-9.533l-.498-.06c-7.362-.87-12.915-6.925-12.915-14.08 0-7.16 5.553-13.213 12.915-14.085l.498-.058V0l-.61.045C9.96.995 0 11.375 0 23.675zM272.382.052l-.612-.047V9.54l.495.062c7.318.903 12.837 6.955 12.837 14.074 0 7.12-5.52 13.17-12.837 14.074l-.495.06v9.536l.612-.05c12.67-.986 22.595-11.362 22.595-23.62 0-12.26-9.925-22.635-22.595-23.624zM15.685 44.58c-.318-.126-.632-.26-.943-.4 1.44-.043 2.967-.276 4.327.42-1.01.03-2.327-.01-3.385-.02zm-6.163-3.62c.685.155 1.442.24 2.304.224-.61.037-1.1.192-1.672.27a25.468 25.468 0 0 1-.632-.494zm271.04-1.336c2.656-.212 4.916-.807 7.468-1.118-.276.304-.558.603-.85.892-2.24.266-4.13.865-6.618.226zm-258.407 0h-.664c.045.22.358.185.665.154v-.155zm53.77-.19h-6.384L75.907 5.44h7.078l6.224 34.085H82.86l-1.374-5.645h-4.203l-1.357 5.554zM104.03 5.44c.11 0 1.1.02 2.1.628.932.567 2.04 1.75 2.04 4.178l.017 8.48c.002 1.03-.503 2.13-1.35 2.948-.144.14-.295.268-.45.386.857.598 1.784 1.61 1.784 3.2v14.265h-6.273V27.212c-.006-.14-.106-1.548-1.432-1.548H97.41v13.77h-6.673V5.44h13.29zm54.222 0h7.078l6.224 34.085h-6.38l-.853-5.144h-5.183l-.835 5.054h-6.418L158.25 5.44zm100.735 10.685l2.37-.408-.045-.785c-.017-.32-.5-7.805-5.713-9.137a11.33 11.33 0 0 0-2.81-.354c-4.027 0-8.375 2.274-8.405 7.265-.036 6.104 4.008 10.133 7.8 13.43 2.087 1.815 3.002 3.572 2.8 5.37-.103.91-.703 1.714-1.45 2.065-.246.1-.515.17-.82.183h-.033a1.974 1.974 0 0 1-.638-.123c-1.612-.596-1.944-3.83-2.052-4.895l-.097-.925-5.925.83.012.78c.024 1.342.302 5.886 2.903 8.06 1.532 1.28 3.814 2.045 6.105 2.045 2.587 0 4.852-.953 6.214-2.613 2.403-2.928 2.66-6.784.707-10.58-1.27-2.47-3.893-5.078-5.828-7.003-.842-.838-1.57-1.562-1.96-2.054-.81-1.015-1.742-3.232-1.38-4.75.095-.41.287-.73.56-.987.777-.542 1.877-.407 2.83.193.658.916 1.07 2.478 1.21 4.034l.088.97.403-.07c-.025.07-.045.135-.073.204 1.187-.14 2.227-.422 3.225-.745zM49.592 14.93c-.018-.317-.5-7.803-5.713-9.135a11.33 11.33 0 0 0-2.81-.354c-4.028 0-8.377 2.274-8.405 7.265-.007 1.16.135 2.245.393 3.265.07.4.15.797.24 1.18.042.003.084 0 .126 0 .223.623.488 1.22.792 1.795.092.204.2.394.316.575 1.523 2.61 3.767 4.733 5.932 6.615.758.66 1.358 1.31 1.808 1.96.6 1.115 1.108 2.344.967 3.48.002-.002.007-.003.01-.004-.167 1.192-1.176 2.187-2.24 2.187-.228 0-.458-.042-.687-.127-1.614-.597-1.944-3.83-2.053-4.895l-.095-.925-5.926.83.012.78c.023 1.342.302 5.886 2.903 8.06 1.53 1.28 3.813 2.045 6.105 2.045 2.586 0 4.852-.953 6.214-2.613 2.4-2.928 2.66-6.784.706-10.58-1.27-2.47-3.892-5.078-5.826-7.002-.842-.838-1.57-1.562-1.96-2.054-.81-1.017-1.74-3.232-1.383-4.75.034-.134.08-.255.13-.372.753-1.273 2.066-1.276 3.157-.562.72.89 1.168 2.538 1.317 4.176l.088.97 2.15-.372c1.09-.014 2.17-.216 3.184-.438l-.005-.11.596-.102-.044-.785zm147.36-2.662c.1-.196.202-.394.315-.575.174-.206.39-.377.66-.508.37-.18.71-.272 1.01-.272 1.44 0 2.306 2.438 2.526 4.855l.09.97.53-.093c.003.005.004.012.01.017 1.71-.227 3.478-.4 5.078-.734v-.16l.305-.052-.045-.784c-.017-.318-.492-7.804-5.71-9.137a11.347 11.347 0 0 0-2.81-.354c-4.028 0-8.377 2.274-8.406 7.264-.037 6.104 4.007 10.133 7.8 13.43.152.134.286.266.427.4.024.053.046.107.06.16l.11-.002c.376.367.7.732.98 1.095 1.187 2.112 1.622 5.57-1.09 5.757-.704.05-1.094-.287-1.52-.654-.852-1.19-1.075-3.326-1.16-4.154l-.095-.927-2.325.324c-.973.03-1.98.026-2.63.37l-.972.135.014.78c.023 1.342.3 5.885 2.903 8.06 1.53 1.28 3.813 2.044 6.105 2.044 2.586 0 4.85-.952 6.213-2.613 2.4-2.927 2.66-6.782.705-10.58-1.267-2.467-3.89-5.076-5.813-6.99-.847-.842-1.58-1.57-1.972-2.064-.81-1.017-1.74-3.232-1.382-4.752.024-.092.06-.172.09-.256zm-7.82 2.663c-.018-.317-.507-7.805-5.713-9.135a11.337 11.337 0 0 0-2.808-.354c-4.03 0-8.377 2.274-8.407 7.265-.033 5.684 3.472 9.57 7.017 12.74-.005.01-.012.016-.017.025.474.534 1.096 1.028 1.715 1.548 1.428 1.505 2.053 2.982 1.883 4.488-.136 1.22-1.168 2.25-2.25 2.25-.228 0-.46-.042-.69-.127-.288-.106-.53-.3-.744-.546a5.49 5.49 0 0 1-.368-.54c-.673-1.223-.864-3.056-.94-3.808l-.096-.927-.794.11c-.002 0-.002-.003-.003-.003-.143.02-.282.043-.423.063l-4.706.66.013.78c.022 1.34.3 5.884 2.903 8.06 1.532 1.28 3.814 2.044 6.105 2.044 2.587 0 4.85-.952 6.214-2.613 2.4-2.926 2.66-6.782.707-10.58-1.27-2.47-3.893-5.077-5.813-6.99-.848-.842-1.58-1.57-1.973-2.064-.81-1.017-1.74-3.233-1.382-4.752.122-.513.388-.894.793-1.17.823-.283 1.858-.103 2.692.513.603.93.983 2.418 1.117 3.9l.088.97 1.003-.174c1.493-.17 2.858-.462 4.348-.635l-.014-.11.586-.102-.044-.785zM57.514 18.366h3.997a.32.32 0 0 0 .09-.03V5.442h6.673v33.994H61.6V24.502h-4.086v14.932H50.84V5.44h6.674v12.925zm80.97-12.924c1.56 0 2.875.508 3.908 1.507 2.298 2.22 2.31 6.108 2.31 6.272V31.7c0 6.743-5.95 7.714-6.012 7.723l-.11.01H127.44V5.442h11.045zm104.896 0v6.138h-5.295v27.856h-6.674V11.578h-5.295v-.297h-.096V6.14c.03-.002.064-.003.095-.007V5.44h17.265zm-34.62 0h15.67v6.138h-8.997v6.787h6.45v6.137h-6.45v8.59c1.873.085 3.863.294 5.997.296h.32a25.74 25.74 0 0 0 1.958-.09v.09h.723v6.046h-15.67V5.44zm-98.554 0h15.67v6.138h-8.997v6.787h6.45v6.137h-6.45v8.59c2.363.498 5.708.05 8.425.207v.088h.57v6.046h-15.67V5.44zm88.903 33.285h-.002v.298-.298zM38.23 38.02c.483-.176.91-.407 1.415-.56-.056.492-.62.495-.99.688-.143-.042-.287-.082-.425-.13zm210.363-.6c.845.018 1.602.124 2.083.494-.284.035-.714-.07-.93.03a8.165 8.165 0 0 1-1.153-.524zm-123.76-.237c-.693-.068-1.864.323-2.07-.213.874.116 1.433-.07 2.07-.182v.395zm-72.953-.435c.61-.042 1.33-.188 1.47.222-.463.082-1.044.05-1.47.166v-.388zm42.34-.512c.765-.053 1.464-.17 2.145-.303v.766c-.856-.02-1.958.2-2.145-.464zm185.62-.324c.082-.06.164-.118.246-.18 3.446-.056 6.56.206 9.975.177-.06.09-.12.18-.182.27-3.603.278-6.75-.755-10.038-.268zm-21.29-.935c.284.046.525.02.733-.052-.05.095-.1.19-.153.284-.265-.01-.546-.002-.58-.233zM9.384 34.803c1.567.113 2.72-.172 4.184-.16.157.148.327.284.49.426-1.426-.132-3.05.532-4.674-.267zm191.422.147c-1.62.558-5.794-.167-2.662-.286.234.058.47.097.705.097.136 0 .27-.013.404-.03.538.088 1.118.226 1.552.22zm-166.38-.15c.864.016 2.05-.274 2.428.213-.732.056-1.702-.116-2.274.095a5.91 5.91 0 0 1-.155-.308zM209.8 33.68v-.414c1.6-.166 2.863-.657 4.59-.703v.497c-1.608-.02-3.13.114-4.59.62zm22.652-.115v-.285c.37-.11.662-.254.68.02-.018.29-.33.298-.68.265zm58.997-.006c.142-.28.28-.558.41-.842-2.978.244-5.96.48-9.146.525-.088.104-.168.214-.257.316h8.994zm-238.86-.016c.027-.335-.34-.292-.708-.247v.247h.707zm81.52-21.772h2.75l.058-.002c.826 0 1.245.486 1.245 1.447v17.98c-.614 1.544-1.892 2.63-4.052 1.954V11.773zM3.206 32.914c.238 0 .44.036.53.178a1.27 1.27 0 0 0-.435.015c-.03-.064-.065-.128-.095-.193zm59.438-.178c.037.024.066.05.107.075-.04.004-.07.018-.107.025v-.1zm-24.748-.612c.08.22.17.434.27.642-1.61-.34-2.586-.18-3.59-.147 1.038-.23 1.995-.54 3.32-.496zm222.205.16c-1.23-.014-1.095-.337.05-.63a7.31 7.31 0 0 1-.05.63zM72.033 31.78c.985-.145 2.185-.49 2.897.054-1.23-.144-1.898.253-2.958.27l.06-.324zm114.934-1.14c-1.083.052-1.887.162-3.098.19a5.263 5.263 0 0 0-.102-.856c.738.156 1.9.45 3.2.665zm8.227-.79c.02.134.04.27.064.413-.56.08-1.173.108-1.81.112-.902-.323-1.993-.714-2.3-.814v-.014c1.243.203 2.72.18 4.046.305zm16.426-1.197a1.966 1.966 0 0 0-.613 0h.613c1.136.184 1.784 1.34 2.772 1.14v-1.14h-2.772zm-146.076.246c.762.1 1.092-.214 1.686-.273v.226c-.688.097-1.272.616-1.686.046zm223.09.155c-1.002-.184-2.322-.06-3.337-.23.036-.1.067-.205.102-.305 1.086.17 2.314.203 3.233.536zm-155.565-.585v.418c-.693.145-1.84.07-2.044-.232.883.134 1.41-.075 2.043-.185zm-36.703.438c-.87-.016-1.65-.118-2.145-.497.74-.092 1.433-.233 2.145-.352v.85zm63.81-.797l1.545-9.2 1.555 9.223c-1.02-.022-2.267.178-3.1-.024zm-79.24.056l-1.56-9.256-1.552 9.256h3.113zM8.992 26.35c.05.27.12.533.183.798-1.605-.064-3.22.353-4.47.036 1.595-.12 2.926-.49 4.288-.834zm106.847.82c-.702.05-1.463.157-1.71-.232.7 0 1.16-.23 1.71-.374v.606zm-53.194-.943c.92-.044 1.95-.194 2.393.222-1.217-.222-1.7.265-2.393.548v-.77zm80.83.71c-.926-.948-2.724-.358-4.27-.247v.248h4.27zm57.03-.028c-.04-.05-.088-.097-.13-.146l.235.146h-.104zm-158.278-.486c1.32-.17 2.55-.7 3.553-.233-1.19.086-2.043.495-3.278.538-.087-.102-.18-.202-.275-.304zm160.178-.014c.764-.115 1.51-.248 2.265-.374.13.21.25.417.36.623l-2.625-.25zm83.616-.296c.613-.018 1.342-.146 1.644.137-.57.052-1.078.163-1.69.175.02-.103.028-.21.045-.31zm-29.244-1.17c.452.072.645-.107.723-.397.163.21.322.42.472.628-.528.047-1.12.157-1.196-.23zm-74.27-.452c-.56.354-1.57.275-2.346.42-.123-.108-.245-.217-.366-.327.93-.23 1.937-.65 2.713-.093zm-130.624.054v-.45c.418-.264.647-.71.962-1.073.596.65 2.728-.18 3.302.49-1.744.034-2.963.573-4.264 1.033zm234.336-1.182c1.56.132 3.275.113 4.513.554-1.64-.086-3.022.078-4.515.135.004-.125.02-.25.02-.378 0-.104-.014-.206-.017-.31zm-204.927.63l-.038-.237h1.553c.534.343-.7.256-1.514.238zm75.617-.726c-.064-.31-.46-.3-.887-.26l-.048.26h.935zm-13.246-.736c-1.165.003-2.455.124-2.982-.488 1.207.133 2.014-.12 2.983-.217v.705zM1.315 22.52c-.016-.08-.068-.122-.138-.148-.004.05-.008.098-.01.148h.148zm38.333-1.21c.883-.2 1.898-.274 2.66-.59.167.166.338.34.51.514-.538.143-1.533.28-3.17.077zm88.834-.962c.955.056 1.887.133 2.546.472-.932-.02-1.85-.03-2.545.176v-.648zm164.188-.47c-.276.354-1.232.056-1.775.153.276-.354 1.23-.056 1.775-.153zm-2.422 0c-1.625.062-3.077-.04-4.55-.124-.016-.056-.027-.114-.044-.17 1.592.04 3.18.084 4.594.293zM78.28 19.16c-.458-.18-1.318-.164-2.842-.052.525-.49 1.872-.19 2.886-.212l-.044.264zm88.446-.267c-1.292.027-2.81-.163-3.948.01l-.053-.308c1.273-.134 2.67-.335 3.922-.128l.08.426zm31.342-.274h-.04c.02.008.04.017.064.024-.01-.008-.016-.016-.024-.025zm-96.702-5.383v-.243c-.01-.002-.02 0-.032-.003.194-1.117-.397-1.756-1.262-2.048H97.41v7.617l3.204.01.767-.02-.014-5.096c-.01-.072-.017-.144-.032-.217h.032zm131.088 4.232v-.357c1.646-.016 2.93.317 4.588.29v.46c-1.59-.075-3.066-.256-4.588-.394zm14.414.38c-.08-.253-.282-.39-.525-.485.067.164.14.325.213.484h.312zm-209.76-1.433c-1.067.066-1.782.472-2.52.854a13.577 13.577 0 0 1-.137-.352c.93-.374 1.758-1.01 2.658-.5zm30.122.26c-.32.007-.574-.05-.416-.504h.416v.503zm-64.624-.222c-.02-.09-.083-.137-.172-.16l-.06.16h.232zm53.866-1.806c-1.257.077-2.415.645-3.375.054.914-.372 2.08-.5 3.375-.503v.45zm234.743-.06c-2.766.266-5.26-.01-8.115-.005-.07-.09-.144-.178-.216-.267 2.553.406 5.487-.523 8.33.272zm-77.92-.13c-.99-.25-2.215-.276-3.493-.25v-.465c1.336.072 2.943-.116 3.492.714zm-39.952-.24c.646-.026 1.197-.144 1.518-.483a8.39 8.39 0 0 1 .534-.012c-.4.438-1.175.516-2.05.496zm28.883-.35a10.59 10.59 0 0 0-.16-.642c1.486-.006 2.63.318 4.14.29.028.162.054.315.074.456-1.244-.136-2.975.193-4.054-.103zm-122.47-.39c.823-.253 2.47-.383 3.603-.19l.116.646c-1.34-.056-2.644-.145-3.72-.455zm80.197-.243c-.737.078-1.073-.042-2.102-.006l.02-.107c1.71-.868 4.92-.187 2.083.114zm13.664-.734c.125-.396-.054-.496-.326-.51-.017.165-.023.337-.03.51h.357zm86.127-.464c-.2-.13-.42-.24-.683-.307.184-.04.385-.06.56-.11.045.142.085.28.124.416zm-26.61-.272a3.802 3.802 0 0 0-.68-.256v.256h.68zm-228.44-.013c.194-.298.396-.592.604-.882 3.448.057 6.864.145 10.254.258-.158.107-.308.225-.46.336-3.603-.035-6.968.158-10.398.29zm249.146-1.613c.58.097 1.144.213 1.665.368-.33.048-.666.073-1.008.085a2.76 2.76 0 0 0-.657-.453zM34.438 9.806c.637-.14 1.24-.56 1.654.005-.85.07-1.456.373-2.002.734.097-.26.217-.503.348-.738zm211.616.188c.04-.075.08-.148.122-.22 2.142-.01 4.276-.015 6.21.174-.34.053-.69.166-1.05.342-.047.022-.08.054-.126.08-1.638-.21-3.363-.46-5.156-.376zm42.39-.684c.207.24.407.484.602.732-3.11-.13-6.325-.158-9.13-.583 2.587-.298 5.672-.114 8.53-.15zm-225.8.5h1.376c-.19-.424-.75-.492-1.377-.496v.497zm65.843-.734c.39-.212 1.753-.73 2.03-.244-.74.1-1.27.4-2.037.472v-.237l.007.01zm30.704-.244c.14-.44-.096-.516-.42-.51l-.096.51h.517zm5.082-.735c.187-.023.334-.075.455-.143l.076.41c-.3.028-.554.015-.53-.267zm93.56.217c-1.213.01-2.337-.063-3.088-.496.72-.13 1.894.176 2.508-.058.206.173.4.357.58.554zm-145.99-.95a1.89 1.89 0 0 0-.594.284v-.666c.162.162.38.27.593.382zm-29.57-.03c-1.265.013-2.763.25-3.532-.215.943-.207 2.51.19 3.497.026l.034.188zm-66.915-.208c-2.032.092-3.757-.112-5.65-.155 1.346-.664 4.426-.64 5.65.156zm29.123-.04a8.226 8.226 0 0 0-2.04-.456c.157-.017.34-.007.51-.01.223.04.443.09.662.145.31.08.596.192.868.32zm138.748-.295c-1.755-.176-3.527.523-5.55.13a9.293 9.293 0 0 1 2.934-.474c.854 0 1.708.107 2.54.32.028.006.05.018.076.025zm96.205-1.218c-1.88-.333-4.346-.102-6.53-.142v.142h6.53z" fill="#2c3e50"/>
</svg>