<svg xmlns="http://www.w3.org/2000/svg" viewBox="0 0 511.999 511.999">
    <path d="M79.81 168.497c0-43.656 35.391-79.048 79.048-79.048 6.245 0 12.311.746 18.138 2.115.952-42.83 35.944-77.264 79.003-77.264v338.322h-97.14c-43.656 0-79.048-35.391-79.048-79.048 0-20.173 7.568-38.571 20.006-52.538-12.438-13.968-20.007-32.366-20.007-52.539z" fill="#cff09e"/>
    <path d="M446.486 168.497c0-51.473-41.876-93.348-93.348-93.348-1.849 0-3.701.056-5.553.167-3.586-18.397-12.638-35.284-26.288-48.659C303.761 9.474 280.58.009 256.024.001L255.998 0c-24.566 0-47.756 9.467-65.3 26.657-13.649 13.375-22.701 30.263-26.288 48.66a91.993 91.993 0 0 0-5.553-.167c-51.473 0-93.348 41.876-93.348 93.348a93.178 93.178 0 0 0 16.199 52.538 93.178 93.178 0 0 0-16.199 52.538c0 51.473 41.876 93.348 93.348 93.348h49.376V497.7c0 7.898 6.402 14.3 14.3 14.3h66.928c7.898 0 14.3-6.402 14.3-14.3v-86.095c0-7.898-6.402-14.3-14.3-14.3-7.898 0-14.3 6.402-14.3 14.3V483.4h-38.328V366.921h19.163c6.458 0 9.65-3.728 10.102-4.18l.01-.009.007-.007 89.415-89.414c5.584-5.584 5.584-14.639 0-20.224-5.584-5.583-14.637-5.583-20.225 0l-65.009 65.009V30.24c28.198 6.486 49.74 31.652 50.406 61.64a14.3 14.3 0 0 0 17.567 13.603 65.066 65.066 0 0 1 14.868-1.736c35.701 0 64.747 29.046 64.747 64.748a64.634 64.634 0 0 1-16.385 43.029 14.303 14.303 0 0 0 0 19.02 64.632 64.632 0 0 1 16.385 43.029c0 35.703-29.046 64.748-64.748 64.748H333.93c-7.898 0-14.3 6.402-14.3 14.3s6.402 14.3 14.3 14.3h19.206c51.473 0 93.348-41.876 93.348-93.348a93.191 93.191 0 0 0-16.199-52.538 93.162 93.162 0 0 0 16.201-52.538zM158.859 338.322c-3.348 0-6.635-.255-9.847-.748-31.045-4.758-54.901-31.646-54.901-64.001a64.614 64.614 0 0 1 10.95-36.013 64.845 64.845 0 0 1 5.435-7.016 14.303 14.303 0 0 0 0-19.02 64.634 64.634 0 0 1-16.385-43.029c0-35.701 29.046-64.748 64.748-64.748 1.836 0 3.678.107 5.518.266 3.132.27 6.261.745 9.349 1.47a14.3 14.3 0 0 0 17.567-13.603c.023-1.021.074-2.036.144-3.044.023-.329.059-.654.086-.981.059-.681.122-1.361.2-2.036.044-.38.099-.758.15-1.137a66.11 66.11 0 0 1 .277-1.853 64.944 64.944 0 0 1 .57-2.981c.08-.372.159-.744.246-1.113.15-.639.315-1.273.483-1.905.086-.322.166-.645.256-.965.24-.844.498-1.682.771-2.511.033-.099.06-.199.093-.297.309-.924.642-1.838.991-2.743.113-.293.237-.581.355-.872a60.83 60.83 0 0 1 .761-1.823c.152-.343.31-.684.466-1.025a58.853 58.853 0 0 1 1.3-2.665c.272-.526.552-1.047.838-1.564.184-.335.369-.671.561-1.002.31-.539.632-1.07.957-1.599.18-.293.356-.591.541-.882.419-.658.852-1.306 1.293-1.948.104-.15.202-.306.306-.456a67.507 67.507 0 0 1 1.692-2.305c.184-.242.379-.475.568-.714.406-.515.817-1.028 1.238-1.532.24-.286.486-.565.731-.847a62.21 62.21 0 0 1 1.178-1.326c.263-.287.531-.571.798-.854.402-.423.809-.839 1.221-1.251.272-.272.545-.543.822-.811.438-.422.884-.835 1.334-1.246.262-.239.519-.48.784-.714a64.573 64.573 0 0 1 1.689-1.436c.17-.14.335-.286.506-.425a64.95 64.95 0 0 1 2.264-1.749c.225-.166.455-.322.681-.485a67.408 67.408 0 0 1 1.68-1.177c.297-.2.601-.393.901-.588a62.95 62.95 0 0 1 1.546-.977c.323-.197.651-.39.978-.583a61.26 61.26 0 0 1 1.559-.885c.33-.182.661-.363.994-.539a62.405 62.405 0 0 1 1.673-.848c.309-.152.615-.307.925-.455a61.569 61.569 0 0 1 2.065-.925c.197-.084.39-.176.588-.259.899-.376 1.81-.732 2.73-1.068.204-.074.412-.14.618-.213a60.857 60.857 0 0 1 2.161-.726c.319-.1.642-.192.964-.287a59.33 59.33 0 0 1 2.943-.8c.309-.076.622-.143.932-.214v287.858l-65.009-65.009c-5.584-5.584-14.639-5.583-20.224 0-5.584 5.584-5.584 14.639 0 20.225l65.011 65.009h-62.62z" fill="#507c5c"/>
</svg>
