<svg xmlns="http://www.w3.org/2000/svg" viewBox="0 0 511.999 511.999">
    <path fill="#cff09e" d="M436.397 209.485h61.372v135.273h-61.372z"/>
    <path d="M497.764 195.247h-160.99c-17.97 0-34.923 6.942-47.734 19.546l-65.897 64.843c-18.331 18.332-18.331 48.158 0 66.49l.105.105c8.881 8.881 20.687 13.771 33.246 13.771 12.559 0 24.365-4.892 33.244-13.771l70.301-70.3c5.559-5.559 5.559-14.574 0-20.133-5.558-5.559-14.569-5.559-20.134 0l-70.301 70.301c-3.502 3.502-8.157 5.431-13.11 5.431s-9.609-1.929-13.112-5.431l-.105-.105c-3.502-3.502-5.431-8.159-5.431-13.112s1.928-9.609 5.349-13.03l65.814-64.762c7.451-7.332 17.311-11.37 27.765-11.37h85.383v109.448l-75.332 68.377a22.91 22.91 0 0 1-14.941 5.544h-.001l-286.789-.024c-9.165 0-16.619-7.457-16.619-16.621 0-9.165 7.456-16.621 16.621-16.621h144.757c7.863 0 14.236-6.374 14.236-14.236s-6.374-14.236-14.236-14.236H45.093C20.228 345.35 0 365.579 0 390.444c0 24.862 20.227 45.092 45.089 45.093l286.789.024h.004a51.372 51.372 0 0 0 33.728-12.622c.075-.065.148-.131.222-.198l70.256-63.768c.101.001.201.016.302.016h61.372c7.861 0 14.236-6.374 14.236-14.236V209.485c.002-7.864-6.372-14.238-14.234-14.238zm-14.236 135.269h-32.9V223.72h32.9v106.796z" fill="#507c5c"/>
    <path d="M193.675 222.084c-.268 44.656-36.685 80.641-81.342 80.373s-80.641-36.685-80.373-81.341c.387-64.648 81.64-130.442 81.64-130.442s80.465 66.191 80.075 131.41z" fill="#cff09e"/>
    <path d="M112.826 316.695l-.578-.001c-52.435-.313-94.839-43.227-94.524-95.662.421-70.576 83.387-138.563 86.918-141.421a14.231 14.231 0 0 1 18.003.07c3.499 2.879 85.691 71.312 85.266 142.487-.313 52.123-42.966 94.527-95.085 94.527zm.763-207.07c-20.124 18.496-67.124 66.497-67.393 111.576-.219 36.735 29.487 66.801 66.223 67.02l.409.001c36.512 0 66.393-29.708 66.611-66.224.251-42.068-41.481-89.701-65.85-112.373z" fill="#507c5c"/>
</svg>
