<svg xmlns="http://www.w3.org/2000/svg" viewBox="0 0 512 512">
    <path fill="#cff09e" d="M312.288 377.856l-80.636-95.413h48.883l-86.161-119.012h38.478L162.761 58.226 92.669 163.431h38.477L44.985 282.443h48.883l-80.636 95.413z"/>
    <path d="M498.77 364.625H318.43l-45.106-53.372 15.944-18.865c2.768-2.425 4.524-5.977 4.524-9.946 0-3.172-1.115-6.082-2.976-8.362l-18.48-25.526 56.008-77.363a13.23 13.23 0 0 0-10.716-20.991h-13.762l45.377-68.109L394.62 150.2h-13.762a13.23 13.23 0 0 0-10.716 20.991l70.965 98.02h-22.97c-7.306 0-13.231 5.924-13.231 13.231 0 7.308 5.925 13.231 13.231 13.231h48.883a13.23 13.23 0 0 0 10.716-20.991l-70.965-98.02h12.563a13.232 13.232 0 0 0 11.011-20.567L360.254 50.889a13.23 13.23 0 0 0-22.022 0L268.14 156.094a13.236 13.236 0 0 0-.654 13.581 13.233 13.233 0 0 0 11.665 6.986h12.563l-35.713 49.33-35.713-49.329h12.589c7.308 0 13.231-5.924 13.231-13.231a13.17 13.17 0 0 0-2.669-7.969L173.772 50.891a13.23 13.23 0 0 0-22.022 0L81.658 156.095a13.235 13.235 0 0 0-.654 13.581 13.228 13.228 0 0 0 11.665 6.986h12.563l-70.963 98.02a13.23 13.23 0 0 0-1.066 13.776 13.229 13.229 0 0 0 11.784 7.215h20.378L3.126 369.317a13.232 13.232 0 0 0 10.105 21.772h109.217v62.686c0 7.308 5.924 13.231 13.231 13.231h54.158c7.308 0 13.231-5.924 13.231-13.231v-39.997c0-7.308-5.924-13.231-13.231-13.231-7.308 0-13.231 5.924-13.231 13.231v26.766H148.91v-49.455h160.02v62.686c0 7.308 5.925 13.231 13.231 13.231h54.158c7.306 0 13.231-5.924 13.231-13.231v-39.997c0-7.308-5.925-13.231-13.231-13.231s-13.231 5.924-13.231 13.231v26.766h-27.696v-49.455h163.376c7.306 0 13.231-5.924 13.231-13.231.001-7.308-5.923-13.233-13.229-13.233zm-457.032 0l62.236-73.643a13.232 13.232 0 0 0-10.105-21.772H70.9l70.963-98.02a13.23 13.23 0 1 0-10.718-20.991h-13.763l45.377-68.109 45.377 68.109h-13.763a13.23 13.23 0 0 0-10.718 20.991l70.963 98.02H231.65a13.228 13.228 0 0 0-12.001 7.661 13.229 13.229 0 0 0 1.896 14.111l62.236 73.643H41.738z" fill="#507c5c"/>
</svg>
